<?xml version="1.0" encoding="utf-8"?>
<!-- Generator: Adobe Illustrator 21.0.1, SVG Export Plug-In . SVG Version: 6.00 Build 0)  -->
<svg version="1.1" id="_x33_cc84593-8d5d-40d7-968c-2bf8286e1214"
	 xmlns="http://www.w3.org/2000/svg" xmlns:xlink="http://www.w3.org/1999/xlink" x="0px" y="0px" viewBox="0 0 37.5 37.5"
	 style="enable-background:new 0 0 37.5 37.5;" xml:space="preserve">
<circle cx="18.8" cy="18.8" r="18"/>
<title>Untitled-1</title>
<path d="M30.2,18.1l-4.8-4.8c-0.2-0.2-0.5-0.2-0.7-0.2c-0.3,0-0.5,0.2-0.6,0.4c-0.3,0.4-0.3,0.8,0,1.2l3.1,3.1l-19.2,0
	c-0.3,0-0.5,0-0.7,0.2C7.1,18.2,7,18.4,7,18.7c-0.1,0.5,0.3,1,0.8,1.1c0.1,0,0.2,0,0.2,0h19.1l-3.1,3.1c-0.2,0.2-0.2,0.5-0.2,0.7
	c0,0.3,0.2,0.5,0.4,0.6c0.2,0.1,0.4,0.2,0.6,0.2c0.2,0,0.5-0.1,0.7-0.2l4.7-4.7C30.6,19.1,30.6,18.4,30.2,18.1z"/>
</svg>
