<svg id="b4cbf100-94d0-4797-9b58-ce63d94a0b05" data-name="3cc84593-8d5d-40d7-968c-2bf8286e1214" xmlns="http://www.w3.org/2000/svg" width="36" height="36" viewBox="0 0 36 36">
  <title>circle-arrow-thicker</title>
  <circle cx="18" cy="18" r="18"/>
  <path d="M30.19,18.07,25.42,13.3a1,1,0,0,0-.72-.2,1,1,0,0,0-.65.36,1,1,0,0,0,0,1.24l3.15,3.15H8.06a1,1,0,0,0-1.1.82,1,1,0,0,0,.82,1.1.93.93,0,0,0,.24,0h19.1l-3.06,3.06a1,1,0,0,0,.16,1.36.94.94,0,0,0,.58.2,1.06,1.06,0,0,0,.66-.24l4.73-4.73A1,1,0,0,0,30.19,18.07Z" transform="translate(-0.75 -0.75)"/>
</svg>
