<svg xmlns="http://www.w3.org/2000/svg" width="84.35" height="84.35" viewBox="0 0 84.35 84.35">
  <title>play-button</title>
  <g id="cd130b25-196d-497c-9a71-20a63604e918" data-name="Layer 2">
    <g id="e7d10f85-b8c5-4f4e-9f3f-376361778042" data-name="Layer 1">
      <g>
        <path d="M64.05,41,33.12,19.93a1.4,1.4,0,0,0-2.2,1.16V63.26a1.41,1.41,0,0,0,2.2,1.16L64.05,43.33a1.4,1.4,0,0,0,0-2.32ZM33.74,60.6V23.75l27,18.43Z" style="fill: #fff"/>
        <path d="M42.17,0A42.17,42.17,0,1,0,84.35,42.17,42.22,42.22,0,0,0,42.17,0Zm0,81.54A39.36,39.36,0,1,1,81.54,42.17,39.41,39.41,0,0,1,42.17,81.54Z" style="fill: #fff"/>
      </g>
    </g>
  </g>
</svg>
