<svg xmlns="http://www.w3.org/2000/svg" width="178.41" height="51.76" viewBox="0 0 178.41 51.76">
  <title>sdwm-logo</title>
  <g id="3bc2eb32-cf01-4616-9af9-1429df5391f5" data-name="Layer 2">
    <g id="a3e5e2df-89e9-4229-b989-c9c43c9fc3af" data-name="Layer 1">
      <g>
        <path d="M4.53,40.4a14.69,14.69,0,0,0,9.56,3.45c2.52,0,4.46-1.22,4.46-2.95,0-5.25-16.89-3.38-16.89-14.59,0-6.69,6.47-10.86,13.37-10.86,4.53,0,9.49,1.73,11.79,3.52l-4.39,6.76a11.76,11.76,0,0,0-6.69-2.37c-2.59,0-4.74,1-4.74,2.8C11,30.7,27.89,28.9,27.89,41c0,6.69-6.54,10.78-13.87,10.78A24.12,24.12,0,0,1,0,47.09Z" style="fill: #fff"/>
        <path d="M55.78,51v-2.8a14.57,14.57,0,0,1-9.71,3.52,17.53,17.53,0,0,1-13.16-5.89,18.71,18.71,0,0,1-4.46-12.22c0-10.28,7.62-18.19,17.11-18.19a15.45,15.45,0,0,1,9.85,3.24V0h9.35V51ZM55.42,28.4a10.72,10.72,0,0,0-8.63-4.31c-5.46,0-9,4.53-9,9.56A9.11,9.11,0,0,0,47,43.13a10.21,10.21,0,0,0,8.41-4.31Z" style="fill: #fff"/>
        <path d="M83.53,51H77.06L62.39,16.18h9.42l8.48,20.34,8.77-20.34h6.47l8.7,20.34,8.55-20.34h9.42L107.54,51h-6.47L92.3,30.77Z" style="fill: #fff"/>
        <path d="M120.18,51V16.18h9V19a13.86,13.86,0,0,1,9.42-3.52,15.19,15.19,0,0,1,11.72,5.46,17.31,17.31,0,0,1,12.37-5.46,15.9,15.9,0,0,1,12.22,5.61c2.23,2.73,3.52,6.33,3.52,11.5V51h-9.35V32.21c0-3.16-.65-4.75-1.73-6a7,7,0,0,0-5.25-2.16,10.88,10.88,0,0,0-8.41,4.6,30.82,30.82,0,0,1,.29,3.88V51h-9.35V32.21c0-3.16-.65-4.75-1.73-6a7,7,0,0,0-5.25-2.16c-4,0-6.83,2.66-8.12,4.31V51Z" style="fill: #fff"/>
      </g>
    </g>
  </g>
</svg>
