<svg xmlns="http://www.w3.org/2000/svg" width="74.05" height="74.05" viewBox="0 0 74.05 74.05">
  <title>social-twitter</title>
  <g id="b443d814-9f67-40d7-81f8-2225a047b04f" data-name="Layer 2">
    <g id="bcd495a6-c382-4af8-96aa-38497f8cc3cb" data-name="Layer 1">
      <g>
        <path d="M37,74A37,37,0,1,1,74,37,37.07,37.07,0,0,1,37,74ZM37,2A35,35,0,1,0,72,37,35.06,35.06,0,0,0,37,2Z" style="fill: #fff"/>
        <path d="M55.1,27.59a14.81,14.81,0,0,1-4.25,1.17,7.41,7.41,0,0,0,3.25-4.09,14.79,14.79,0,0,1-4.7,1.79A7.41,7.41,0,0,0,36.78,33.2a21,21,0,0,1-15.26-7.74,7.41,7.41,0,0,0,2.29,9.89,7.41,7.41,0,0,1-3.36-.92v.09a7.4,7.4,0,0,0,5.94,7.26,7.23,7.23,0,0,1-2,.26,7.34,7.34,0,0,1-1.39-.13A7.4,7.4,0,0,0,30,47a15,15,0,0,1-11,3.07,21,21,0,0,0,11.35,3.32c13.62,0,21.06-11.28,21.06-21.06,0-.32,0-.64,0-1a15,15,0,0,0,3.69-3.83" style="fill: #fff"/>
      </g>
    </g>
  </g>
</svg>
