<svg xmlns="http://www.w3.org/2000/svg" width="74.05" height="74.05" viewBox="0 0 74.05 74.05">
  <title>social-instagram</title>
  <g id="df61a30e-d870-45a9-b767-c84a8783cbf8" data-name="Layer 2">
    <g id="d7588dee-8f71-4c49-8f52-39c2eae2c3ab" data-name="Layer 1">
      <g>
        <path d="M37,74A37,37,0,1,1,74,37,37.07,37.07,0,0,1,37,74ZM37,2A35,35,0,1,0,72,37,35.06,35.06,0,0,0,37,2Z" style="fill: #fff"/>
        <path d="M48.08,19H26a7,7,0,0,0-7,7v22.1a7,7,0,0,0,7,7h22.1a7,7,0,0,0,7-7V26A7,7,0,0,0,48.08,19Zm2,4.15h.8v6.11l-6.09,0,0-6.11ZM31.89,33.33a6.33,6.33,0,1,1-1.2,3.7A6.33,6.33,0,0,1,31.89,33.33ZM51.53,48.07a3.45,3.45,0,0,1-3.45,3.45H26a3.45,3.45,0,0,1-3.45-3.45V33.33H27.9a9.85,9.85,0,1,0,18.25,0h5.38Z" style="fill: #fff"/>
      </g>
    </g>
  </g>
</svg>
