<svg xmlns="http://www.w3.org/2000/svg" width="108.82" height="442.28" viewBox="0 0 108.82 442.28">
  <defs>
    <style>
      .\35 f7b73ee-b67f-4b53-a391-5059b70baa15 {
        fill: #fff;
      }
    </style>
  </defs>
  <title>Asset 1</title>
  <g id="95dc5a0d-1ebe-4d99-8b81-adc01af43968" data-name="Layer 2">
    <g id="65a028e9-d0cd-4caf-995f-35bdffdb64e5" data-name="Layer 1">
      <g>
        <path class="5f7b73ee-b67f-4b53-a391-5059b70baa15" d="M54,108a54,54,0,1,1,54-54A54.08,54.08,0,0,1,54,108ZM54,1a53,53,0,1,0,53,53A53.08,53.08,0,0,0,54,1Z"/>
        <path class="5f7b73ee-b67f-4b53-a391-5059b70baa15" d="M54.07,275.41a54,54,0,1,1,54-54A54.08,54.08,0,0,1,54.07,275.41Zm0-107a53,53,0,1,0,53,53A53.08,53.08,0,0,0,54.07,168.38Z"/>
        <path class="5f7b73ee-b67f-4b53-a391-5059b70baa15" d="M54.8,442.28a54,54,0,1,1,54-54A54.08,54.08,0,0,1,54.8,442.28Zm0-107a53,53,0,1,0,53,53A53.08,53.08,0,0,0,54.8,335.25Z"/>
        <g>
          <path class="5f7b73ee-b67f-4b53-a391-5059b70baa15" d="M25.72,220.44a4.86,4.86,0,0,0,4.93,5,5.05,5.05,0,0,0,4.08-2l1.92,1.71a7.59,7.59,0,0,1-6.07,2.76,7.43,7.43,0,1,1,0-14.85,7.51,7.51,0,0,1,5.28,2.06L34,217a5,5,0,0,0-3.51-1.49A4.82,4.82,0,0,0,25.72,220.44Z"/>
          <path class="5f7b73ee-b67f-4b53-a391-5059b70baa15" d="M43.88,220a3.75,3.75,0,0,0-1-.1,3,3,0,0,0-2.43,1.44v6.29H37.79v-10h2.58v1a3.75,3.75,0,0,1,2.91-1.22,5.49,5.49,0,0,1,.91.08Z"/>
          <path class="5f7b73ee-b67f-4b53-a391-5059b70baa15" d="M53.63,226.07a5.43,5.43,0,0,1-4.11,1.79,5,5,0,0,1-5.24-5.2,4.93,4.93,0,0,1,4.87-5.22,4.86,4.86,0,0,1,4.72,5.12,4.37,4.37,0,0,1-.06.76H46.89a2.63,2.63,0,0,0,2.7,2.37,3.54,3.54,0,0,0,2.52-1.16Zm-2.5-4.7a2,2,0,0,0-2-1.75A2.17,2.17,0,0,0,47,221.37Z"/>
          <path class="5f7b73ee-b67f-4b53-a391-5059b70baa15" d="M65.13,227.66H62.55v-.8a4.19,4.19,0,0,1-2.79,1A5,5,0,0,1,56,226.18a5.37,5.37,0,0,1-1.28-3.51,5,5,0,0,1,4.91-5.22,4.58,4.58,0,0,1,2.93,1v-.8h2.58Zm-2.68-6.5A3.08,3.08,0,0,0,60,219.93a2.74,2.74,0,0,0,.06,5.47,2.93,2.93,0,0,0,2.41-1.24Z"/>
          <path class="5f7b73ee-b67f-4b53-a391-5059b70baa15" d="M74.92,227.66a6.64,6.64,0,0,1-1.67.21,4.12,4.12,0,0,1-3.47-1.44,4.69,4.69,0,0,1-.74-3v-3.51H66.26v-2.27H69v-2.79h2.68v2.79H75v2.27h-3.3v3.82a1.84,1.84,0,0,0,.33,1.26,1.7,1.7,0,0,0,1.36.5,6.56,6.56,0,0,0,1.09-.1Z"/>
          <path class="5f7b73ee-b67f-4b53-a391-5059b70baa15" d="M85,226.07a5.43,5.43,0,0,1-4.11,1.79,5,5,0,0,1-5.24-5.2,4.93,4.93,0,0,1,4.87-5.22,4.86,4.86,0,0,1,4.72,5.12,4.32,4.32,0,0,1-.06.76H78.25a2.63,2.63,0,0,0,2.7,2.37,3.54,3.54,0,0,0,2.52-1.16Zm-2.5-4.7a2,2,0,0,0-2-1.75,2.17,2.17,0,0,0-2.15,1.75Z"/>
        </g>
        <g>
          <path class="5f7b73ee-b67f-4b53-a391-5059b70baa15" d="M29.93,46.54h2.79v12H38.8V61H29.93Z"/>
          <path class="5f7b73ee-b67f-4b53-a391-5059b70baa15" d="M48.35,59.4a5.43,5.43,0,0,1-4.11,1.79A5,5,0,0,1,39,56a4.93,4.93,0,0,1,4.87-5.22,4.86,4.86,0,0,1,4.72,5.12,4.37,4.37,0,0,1-.06.76H41.6A2.63,2.63,0,0,0,44.31,59a3.54,3.54,0,0,0,2.52-1.16Zm-2.5-4.7a2,2,0,0,0-2-1.75,2.17,2.17,0,0,0-2.15,1.75Z"/>
          <path class="5f7b73ee-b67f-4b53-a391-5059b70baa15" d="M59.84,61H57.26v-.8a4.19,4.19,0,0,1-2.79,1A5,5,0,0,1,50.7,59.5,5.37,5.37,0,0,1,49.42,56a5,5,0,0,1,4.91-5.22,4.58,4.58,0,0,1,2.93,1V51h2.58Zm-2.68-6.5a3.08,3.08,0,0,0-2.48-1.24,2.74,2.74,0,0,0,.06,5.47,2.93,2.93,0,0,0,2.41-1.24Z"/>
          <path class="5f7b73ee-b67f-4b53-a391-5059b70baa15" d="M68.2,53.35a3.74,3.74,0,0,0-1-.1,3,3,0,0,0-2.43,1.44V61H62.11V51h2.58v1a3.75,3.75,0,0,1,2.91-1.22,5.49,5.49,0,0,1,.91.08Z"/>
          <path class="5f7b73ee-b67f-4b53-a391-5059b70baa15" d="M69.74,61V51h2.58v.8a4.41,4.41,0,0,1,2.83-1,4.51,4.51,0,0,1,3.47,1.61,5,5,0,0,1,1,3.51V61H77v-5.3a2.42,2.42,0,0,0-.6-1.88,2.11,2.11,0,0,0-1.51-.56,3.19,3.19,0,0,0-2.43,1.24V61Z"/>
        </g>
        <g>
          <path class="5f7b73ee-b67f-4b53-a391-5059b70baa15" d="M22,393.19a6,6,0,0,1-1.86-4.81V380H23v8.56a3.39,3.39,0,0,0,.95,2.68,3.71,3.71,0,0,0,4.91,0,3.39,3.39,0,0,0,.95-2.68V380h2.79v8.35a6,6,0,0,1-1.86,4.81,6.54,6.54,0,0,1-4.33,1.49A6.54,6.54,0,0,1,22,393.19Z"/>
          <path class="5f7b73ee-b67f-4b53-a391-5059b70baa15" d="M34.73,394.47v-10h2.58v.8a4.42,4.42,0,0,1,2.83-1,4.51,4.51,0,0,1,3.47,1.61,5,5,0,0,1,1,3.51v5.1H41.95v-5.3a2.42,2.42,0,0,0-.6-1.88,2.11,2.11,0,0,0-1.51-.56A3.2,3.2,0,0,0,37.41,388v6.5Z"/>
          <path class="5f7b73ee-b67f-4b53-a391-5059b70baa15" d="M49.38,394.47H46.69V379.82h2.68Z"/>
          <path class="5f7b73ee-b67f-4b53-a391-5059b70baa15" d="M60.17,392.88a5.43,5.43,0,0,1-4.11,1.79,5,5,0,0,1-5.24-5.2,4.93,4.93,0,0,1,4.87-5.22,4.86,4.86,0,0,1,4.72,5.12,4.32,4.32,0,0,1-.06.76H53.42a2.63,2.63,0,0,0,2.7,2.37,3.54,3.54,0,0,0,2.52-1.16Zm-2.5-4.7a2,2,0,0,0-2-1.75,2.17,2.17,0,0,0-2.15,1.75Z"/>
          <path class="5f7b73ee-b67f-4b53-a391-5059b70baa15" d="M71.66,394.47H69.08v-.8a4.18,4.18,0,0,1-2.79,1A5,5,0,0,1,62.52,393a5.37,5.37,0,0,1-1.28-3.51,5,5,0,0,1,4.91-5.22,4.59,4.59,0,0,1,2.93,1v-.8h2.58ZM69,388a3.08,3.08,0,0,0-2.48-1.24,2.74,2.74,0,0,0,.06,5.47A2.93,2.93,0,0,0,69,391Z"/>
          <path class="5f7b73ee-b67f-4b53-a391-5059b70baa15" d="M74.23,391.42a4.22,4.22,0,0,0,2.74,1c.72,0,1.28-.35,1.28-.85,0-1.51-4.85-1-4.85-4.19,0-1.92,1.86-3.12,3.84-3.12a6.21,6.21,0,0,1,3.38,1l-1.26,1.94a3.37,3.37,0,0,0-1.92-.68c-.74,0-1.36.29-1.36.8,0,1.3,4.85.78,4.85,4.25,0,1.92-1.88,3.09-4,3.09a6.91,6.91,0,0,1-4-1.34Z"/>
          <path class="5f7b73ee-b67f-4b53-a391-5059b70baa15" d="M85.27,394.47H82.59V379.82h2.68v5.36a4.42,4.42,0,0,1,2.72-.93,4.51,4.51,0,0,1,3.47,1.61,5,5,0,0,1,1,3.51v5.1H89.81v-5.3a2.42,2.42,0,0,0-.6-1.88,2.11,2.11,0,0,0-1.51-.56A3.2,3.2,0,0,0,85.27,388Z"/>
        </g>
        <rect class="5f7b73ee-b67f-4b53-a391-5059b70baa15" x="53.48" y="274.8" width="1" height="60.4"/>
        <rect class="5f7b73ee-b67f-4b53-a391-5059b70baa15" x="53.48" y="107.89" width="1" height="60.4"/>
      </g>
    </g>
  </g>
</svg>
