<?xml version="1.0" standalone="no"?>
<!DOCTYPE svg PUBLIC "-//W3C//DTD SVG 1.1//EN" "http://www.w3.org/Graphics/SVG/1.1/DTD/svg11.dtd" >
<svg xmlns="http://www.w3.org/2000/svg">
<metadata>
Created by FontPrep 20130207 at Fri Dec 30 21:30:11 2016
 By Jolane Synott
(c) Fabian Fohrer &#38; Fabian Huber 2015
</metadata>
<defs>
<font id="74af4dbcfbd938008c7e8d0f301642a4" horiz-adv-x='1024' >
  <font-face 
    font-family="Moderat-Regular"
    font-weight="400"
    font-stretch="normal"
    units-per-em="2048"
    panose-1="0 0 5 0 0 0 0 0 0 0"
    ascent="1638"
    descent="-410"
    x-height="1024"
    cap-height="1434"
    bbox="-328 -428 2255 1862"
    underline-thickness="102"
    underline-position="-102"
    unicode-range="U+0020-FB04"
  />
<missing-glyph horiz-adv-x="748" 
d="M136 68h408v1229h-408v-1229zM68 0v1365h544v-1365h-544z" />
    <glyph glyph-name="onequarter" unicode="&#x31;&#x2044;&#x34;" horiz-adv-x="1636" 
d="M1282 287v319h-18l-197 -319h215zM1413 287h121v-121h-121v-166h-131v166h-383v96l326 526h188v-501zM1411 1311l-1020 -1311h-166l1020 1311h166zM285 522v529h-183v114h113q34 1 56 23t22 57v66h135l2 -789h-145z" />
    <glyph glyph-name="onehalf" unicode="&#x31;&#x2044;&#x32;" horiz-adv-x="1734" 
d="M1223 135h391v-135h-551v74q0 162 166 272q25 16 51 30t52 30t38 24l33 22q76 52 76 116q-1 38 -35 66t-96 28t-100 -38q-40 -38 -40 -104h-143q0 96 69 186q69 89 200 89q130 1 208 -63t78 -157t-55 -149t-95 -80t-104 -62t-103 -73q-40 -35 -40 -76zM1411 1311
l-1020 -1311h-166l1020 1311h166zM285 522v529h-183v114h113q34 1 56 23t22 57v66h135l2 -789h-145z" />
    <glyph glyph-name="threequarters" unicode="&#x33;&#x2044;&#x34;" horiz-adv-x="1744" 
d="M1391 287v319h-19l-196 -319h215zM1522 287h120v-121h-120v-166h-131v166h-383v96l325 526h189v-501zM1520 1311l-1020 -1311h-166l1020 1311h166zM383 1188q-110 0 -121 -82h-135q0 90 74 150q75 60 183 61t180 -55t71 -157q0 -101 -105 -155v-12q58 -18 95 -67t37 -117
q0 -100 -76 -169t-203 -69q-125 0 -203 74t-78 188h138q4 -58 42 -96t103 -39q65 0 100 33t35 85t-38 85t-115 33h-54v116h47q74 0 106 30t32 73q0 42 -30 66t-85 24z" />
    <glyph glyph-name="onethird" unicode="&#x31;&#x2044;&#x33;" horiz-adv-x="1724" 
d="M1343 666q-109 0 -120 -82h-136q1 90 75 150t182 61t180 -55q71 -56 71 -157t-104 -155v-12q59 -18 95 -68t36 -117q0 -101 -76 -169t-202 -68t-204 74t-77 188h137q5 -58 43 -96t103 -39q65 0 100 33t35 85q0 53 -38 85t-116 32h-53v117h47q75 -1 106 29t31 74t-31 66
q-31 24 -84 24zM1411 1311l-1020 -1311h-166l1020 1311h166zM285 522v529h-183v114h113q34 1 56 23t22 57v66h135l2 -789h-145z" />
    <glyph glyph-name="twothirds" unicode="&#x32;&#x2044;&#x33;" horiz-adv-x="1904" 
d="M1524 666q-110 0 -121 -82h-135q0 90 74 150t182 61t180 -55t72 -157t-105 -155v-12q59 -18 95 -68t36 -117q0 -101 -76 -169t-202 -68t-204 74t-77 188h137q5 -58 43 -96t103 -39q65 0 100 33t35 85q0 53 -38 85t-116 32h-53v117h47q75 -1 106 29t31 74t-30 66
q-30 24 -84 24zM1591 1311l-1020 -1311h-165l1019 1311h166zM262 657h391v-135h-551v74q0 162 167 272q25 16 50 30t52 31q27 16 39 23q12 8 32 22q76 51 76 116q0 38 -34 66t-96 28t-101 -38t-39 -104h-144q0 96 69 186q69 89 200 89q130 0 208 -63t78 -164q0 -69 -27 -105
t-43 -54t-55 -45t-116 -73q-76 -45 -116 -80t-40 -76z" />
    <glyph glyph-name="arrowleft" unicode="&#x3c;&#x2014;" horiz-adv-x="1767" 
d="M1645 717v-162h-1274l413 -410l-118 -118l-584 583v54l584 583l118 -119l-415 -411h1276z" />
    <glyph glyph-name="arrowright" unicode="&#x2d;&#x3e;" horiz-adv-x="1767" 
d="M123 555v162h1276l-416 411l119 119l584 -583v-54l-584 -583l-119 118l414 410h-1274z" />
    <glyph glyph-name="smileface" unicode="&#x3a;&#x29;" horiz-adv-x="1699" 
d="M849 279q-144 1 -259 85t-156 216l-10 26l55 19l8 -29q36 -110 136 -188q104 -74 226 -74t226 74q98 76 135 188l11 29l53 -19l-8 -26q-44 -133 -158 -218q-115 -83 -259 -83zM1049 784v195h-62v55h178v-55h-59v-195h-57zM594 784v195h-62v55h179v-55h-62v-195h-55z
M1520 718q0 134 -51 256t-146 218q-95 95 -217 146t-257 51q-277 0 -474 -197t-197 -475q0 -133 51 -255t146 -218q197 -197 475 -197q134 0 256 51t217 146q95 96 146 218t51 256zM1577 717q0 -147 -55 -279t-158 -235t-236 -158q-132 -55 -278 -55t-278 55t-236 158
q-103 103 -158 235t-55 279q0 301 213 514t514 213q145 0 278 -55t236 -158t158 -235t55 -279z" />
    <glyph glyph-name="uniFB01" unicode="fi" horiz-adv-x="1222" 
d="M1057 1024v-1024h-180v881h-451v-881h-172v881h-152v143h152v100q0 144 72 232t190 88t193 -66l-78 -127q-36 29 -82 29q-123 0 -123 -172v-84h631zM968 1464q56 0 94 -38t38 -92t-38 -94q-38 -38 -94 -38q-54 0 -93 38t-39 94q0 54 38 92t94 38z" />
    <glyph glyph-name="uniFB02" unicode="fl" horiz-adv-x="1239" 
d="M1075 0h-178v1208q-19 28 -71 53t-157 25t-174 -54t-69 -177v-31h246v-143h-246v-881h-172v881h-152v143h152v47q0 173 109 273t290 100t278 -56t131 -100l13 -18v-1270z" />
    <glyph glyph-name="f_f_j.liga" unicode="ffj" horiz-adv-x="1835" 
d="M1665 1024v-1124q1 -142 -77 -231t-196 -89t-194 66l78 125q36 -29 88 -29t88 41t35 133v965h-451v-881h-172v881h-438v-881h-172v881h-152v143h152v100q0 144 72 232t190 88t193 -66l-78 -127q-36 29 -82 29q-123 0 -123 -172v-84h438v100q0 144 72 232t190 88
q117 0 193 -66l-78 -127q-36 29 -82 29q-123 0 -123 -172v-84h629zM1580 1464q56 0 94 -38t38 -92t-38 -94q-38 -38 -94 -38q-54 0 -93 38t-39 94q0 54 38 92t94 38z" />
    <glyph glyph-name="f_j.liga" unicode="fj" horiz-adv-x="1224" 
d="M1055 1024v-1124q1 -142 -77 -231t-196 -89t-194 66l78 125q36 -29 88 -29t88 41t35 133v965h-451v-881h-172v881h-152v143h152v100q0 144 72 232t190 88t193 -66l-78 -127q-36 29 -82 29q-123 0 -123 -172v-84h629zM970 1464q56 0 94 -38t38 -92t-38 -94
q-38 -38 -94 -38q-54 0 -93 38t-39 94q0 54 38 92t94 38z" />
    <glyph glyph-name=".notdef" horiz-adv-x="748" 
d="M136 68h408v1229h-408v-1229zM68 0v1365h544v-1365h-544z" />
    <glyph glyph-name="glyph1" horiz-adv-x="0" 
 />
    <glyph glyph-name="glyph2" horiz-adv-x="682" 
 />
    <glyph glyph-name="space" unicode=" " horiz-adv-x="552" 
 />
    <glyph glyph-name="exclam" unicode="!" horiz-adv-x="532" 
d="M266 -10q-51 0 -87 36t-36 88t36 86q36 36 87 36t87 -36t36 -86q0 -52 -36 -88t-87 -36zM160 1434h215l-41 -1043h-133z" />
    <glyph glyph-name="quotedbl" unicode="&#x22;" horiz-adv-x="819" 
d="M467 1321q0 55 28 87t78 32q51 0 79 -32t28 -87q0 -14 -14 -82l-52 -276h-82l-51 276q-14 68 -14 82zM139 1321q1 55 29 87t78 32t78 -32t28 -87q0 -14 -14 -82l-51 -276h-82l-51 276q-15 73 -15 82z" />
    <glyph glyph-name="numbersign" unicode="#" horiz-adv-x="1347" 
d="M784 532l68 340h-283l-67 -340h282zM1225 872h-207l-68 -340h189v-151h-219l-76 -381h-166l76 381h-283l-76 -381h-166l76 381h-192v151h223l67 340h-204v152h235l82 410h166l-82 -410h283l82 410h165l-81 -410h176v-152z" />
    <glyph glyph-name="dollar" unicode="$" horiz-adv-x="1181" 
d="M874 356q0 60 -49 105t-157 90v-389q142 14 188 101q18 33 18 93zM342 985q0 -112 172 -186v346q-76 -13 -124 -55t-48 -105zM668 -184h-154v182q-118 18 -208 78t-136 142t-47 175h184q-1 -73 57 -133t150 -86v436q-216 87 -285 168t-69 208q0 128 100 220t254 111v178
h154v-180q162 -22 258 -126t96 -226h-184q0 55 -46 106t-124 72v-400q219 -84 305 -178t86 -234q-1 -141 -111 -233t-280 -104v-176z" />
    <glyph glyph-name="percent" unicode="%" horiz-adv-x="1595" 
d="M1166 154q62 0 102 41q41 41 41 102t-41 102q-40 41 -102 41t-103 -41t-41 -102t41 -102t103 -41zM1164 -10q-126 0 -216 90t-90 217t90 217t216 90t218 -90t91 -217q1 -127 -91 -217t-218 -90zM430 870q61 0 102 41t41 103q-1 62 -41 102t-102 41q-62 -1 -102 -41
t-41 -102q0 -62 41 -103t102 -41zM1346 1311l-914 -1311h-192l913 1311h193zM430 707q-126 1 -216 91t-91 216q1 126 91 216t216 91q126 -1 216 -91q91 -90 91 -216t-91 -216q-90 -90 -216 -91z" />
    <glyph glyph-name="ampersand" unicode="&#x26;" horiz-adv-x="1398" 
d="M549 164q142 0 242 135l-297 332q-95 -65 -141 -121t-46 -138q1 -84 69 -146t173 -62zM571 1270q-76 0 -125 -49t-49 -117q0 -98 125 -246q118 78 152 109q69 64 69 133q0 70 -48 120t-124 50zM566 -10q-198 0 -320 110q-123 110 -123 273q0 124 71 213t183 172
q-78 86 -121 166t-43 173q0 91 40 169q41 78 125 128t184 50q190 0 278 -107t88 -226q0 -120 -79 -209t-208 -175l244 -268l106 217h193l-176 -354l288 -322h-237l-148 164q-147 -174 -345 -174z" />
    <glyph glyph-name="quotesingle" unicode="'" horiz-adv-x="491" 
d="M139 1321q1 55 29 87t78 32t78 -32t28 -87q0 -14 -14 -82l-51 -276h-82l-51 276q-15 73 -15 82z" />
    <glyph glyph-name="parenleft" unicode="(" horiz-adv-x="671" 
d="M274 637q0 -556 285 -870l-113 -113q-344 373 -344 982t344 982l113 -115q-285 -310 -285 -866z" />
    <glyph glyph-name="parenright" unicode=")" horiz-adv-x="671" 
d="M367 637q0 556 -285 866l113 115q344 -373 344 -982t-344 -982l-113 113q285 314 285 870z" />
    <glyph glyph-name="asterisk" unicode="*" horiz-adv-x="837" 
d="M735 999l-67 -114l-189 116l6 -223h-135l6 221l-188 -114l-66 114l197 107l-197 106l68 115l186 -117l-6 224h135l-6 -224l189 115l65 -115l-194 -104z" />
    <glyph glyph-name="plus" unicode="+" horiz-adv-x="1136" 
d="M1014 717v-156h-365v-368h-160v368h-366v156h366v366h160v-366h365z" />
    <glyph glyph-name="comma" unicode="," horiz-adv-x="491" 
d="M248 231q56 -1 88 -45t33 -109q0 -121 -59 -201t-104 -111l-18 -13l-55 58q80 70 100 184q-46 4 -78 38t-32 83q1 49 35 83t90 33z" />
    <glyph glyph-name="hyphen" unicode="-" horiz-adv-x="983" 
d="M123 715h737v-156h-737v156z" />
    <glyph glyph-name="period" unicode="." horiz-adv-x="491" 
d="M246 -10q-51 0 -87 36t-36 88t36 86q36 36 87 36t87 -36t36 -86q0 -52 -36 -88t-87 -36z" />
    <glyph glyph-name="slash" unicode="/" horiz-adv-x="1038" 
d="M977 1536l-733 -1638h-183l734 1638h182z" />
    <glyph glyph-name="zero" unicode="0" horiz-adv-x="1236" 
d="M619 166q96 0 168 66q145 133 145 421q0 213 -85 353t-229 141q-95 -1 -164 -67q-137 -132 -137 -426t137 -423q69 -65 165 -65zM621 -10q-214 0 -348 184t-134 483q0 298 133 482q132 184 346 184t352 -185q138 -184 138 -482t-136 -482t-351 -184z" />
    <glyph glyph-name="one" unicode="1" horiz-adv-x="739" 
d="M383 0v958h-250v146h150q50 0 81 32t31 83v92h168l2 -1311h-182z" />
    <glyph glyph-name="two" unicode="2" horiz-adv-x="1167" 
d="M356 172h637v-172h-829v104q0 153 68 271q24 43 80 89t111 82q56 35 97 57q42 23 72 41t71 45q156 104 156 250q0 86 -59 147t-170 61t-176 -85q-66 -85 -66 -171h-182q0 149 101 282q50 66 137 108t196 42q176 -1 290 -103t114 -262t-77 -255q-77 -94 -178 -159
q-21 -14 -45 -29t-77 -45t-124 -86q-72 -56 -94 -82q-53 -64 -53 -130z" />
    <glyph glyph-name="three" unicode="3" horiz-adv-x="1124" 
d="M971 398q0 -92 -30 -163t-84 -125t-137 -88q-83 -32 -181 -32q-190 0 -308 110t-118 267h174q7 -81 72 -145t180 -64t179 70t64 164t-61 160t-182 66h-68v154h59q94 0 154 54t61 136q0 83 -54 137q-53 54 -143 54q-90 -1 -148 -41t-68 -108h-170q0 138 113 228t273 91
t267 -95t107 -241q0 -87 -40 -158t-104 -110v-25q85 -34 139 -119t54 -177z" />
    <glyph glyph-name="four" unicode="4" horiz-adv-x="1187" 
d="M670 428v690h-19l-348 -690h367zM846 428h219v-162h-219v-266h-176v266h-578v125l477 922h277v-885z" />
    <glyph glyph-name="five" unicode="5" horiz-adv-x="1153" 
d="M569 874q193 0 311 -119t119 -326q-1 -207 -121 -323t-311 -116q-107 0 -193 38t-137 100q-104 125 -104 271h178q0 -84 70 -162q71 -79 187 -79t186 73t69 199q1 126 -67 206q-68 81 -207 81t-216 -90q-17 -20 -28 -41l-145 47l61 680h717v-172h-569l-37 -336
q84 69 237 69z" />
    <glyph glyph-name="six" unicode="6" 
d="M554 158q110 0 179 70q70 70 70 184q-1 114 -71 185t-179 71t-179 -71t-71 -185q1 -114 71 -184t180 -70zM572 838q80 0 154 -30q72 -30 130 -84t92 -136q35 -82 35 -192q-1 -110 -61 -208t-157 -148t-197 -50q-189 0 -317 114t-128 314q0 112 58 236t376 659h215
l-321 -506q41 31 121 31z" />
    <glyph glyph-name="seven" unicode="7" horiz-adv-x="1034" 
d="M102 1313h830v-105q-312 -287 -408 -675q-57 -229 -69 -533h-183q20 617 256 975q66 99 142 166h-568v172z" />
    <glyph glyph-name="eight" unicode="8" horiz-adv-x="1191" 
d="M592 141q80 0 142 38q118 73 118 200q0 83 -65 159t-193 76q-127 0 -191 -76q-63 -76 -63 -146t26 -122t86 -91q60 -38 140 -38zM596 1174q-90 0 -148 -52t-59 -137q1 -86 63 -139t142 -53t144 53t65 139q-1 85 -59 137t-148 52zM1038 375q0 -171 -122 -278t-322 -107
q-198 0 -319 106t-121 277q0 127 67 217t166 121v16q-78 33 -126 107t-48 165q1 141 113 233t270 91q158 1 270 -91t113 -233q0 -91 -48 -165t-126 -107v-16q101 -31 167 -121t66 -215z" />
    <glyph glyph-name="nine" unicode="9" horiz-adv-x="1085" 
d="M552 1155q-110 0 -179 -70q-70 -70 -70 -184q1 -114 71 -185t179 -71t179 71t71 185q-1 114 -71 184t-180 70zM534 475q-80 1 -154 31q-72 30 -130 84t-92 134q-35 82 -35 193q1 111 61 209t157 147q97 50 197 50q189 0 317 -114t128 -314q0 -112 -58 -236t-376 -659
h-215l321 506q-41 -31 -121 -31z" />
    <glyph glyph-name="colon" unicode=":" horiz-adv-x="491" 
d="M246 -10q-51 0 -87 36t-36 88t36 86q36 36 87 36t87 -36t36 -86q0 -52 -36 -88t-87 -36zM246 788q-51 0 -87 36t-36 88t36 86q36 36 87 36t87 -36t36 -86q0 -52 -36 -88t-87 -36z" />
    <glyph glyph-name="semicolon" unicode=";" horiz-adv-x="491" 
d="M248 231q56 -1 88 -45t33 -109q0 -121 -59 -201t-104 -111l-18 -13l-55 58q80 70 100 184q-46 4 -78 38t-32 83q1 49 35 83t90 33zM246 788q-51 0 -87 36t-36 88t36 86q36 36 87 36t87 -36t36 -86q0 -52 -36 -88t-87 -36z" />
    <glyph glyph-name="less" unicode="&#x3c;" 
d="M983 1239v-215l-629 -387v-37l629 -385v-215l-881 557v123z" />
    <glyph glyph-name="equal" unicode="=" horiz-adv-x="1218" 
d="M123 522h973v-155h-973v155zM123 850h973v-156h-973v156z" />
    <glyph glyph-name="greater" unicode="&#x3e;" 
d="M143 1239l881 -559v-123l-881 -557v215l629 385v37l-629 387v215z" />
    <glyph glyph-name="question" unicode="?" horiz-adv-x="882" 
d="M403 -10q-51 0 -87 36t-35 88q-1 52 35 86q36 36 87 36t87 -36t36 -86q0 -52 -36 -88t-87 -36zM305 526q-1 202 153 323q22 17 55 40q61 42 97 86q37 44 37 98q0 90 -44 159q-44 68 -161 68q-178 0 -206 -198h-168q0 164 116 268q92 82 264 82t270 -102t97 -268
q0 -164 -127 -268q-19 -16 -56 -42q-69 -49 -114 -100t-45 -150v-127h-168v131z" />
    <glyph glyph-name="at" unicode="@" horiz-adv-x="2048" 
d="M1245 510q0 158 -77 246q-77 90 -185 90t-193 -91t-85 -242t86 -233q86 -81 193 -81q107 1 184 77t77 234zM1540 -250q-232 -145 -510 -145t-518 161t-337 439q-52 149 -52 305t36 282q37 128 99 228q129 206 335 315t431 109q292 0 526 -148t325 -421q49 -147 49 -304
t-38 -273q-40 -116 -125 -192q-85 -75 -199 -75t-205 64q-53 37 -81 93q-90 -157 -311 -157q-181 0 -311 131t-130 352q0 220 130 360t306 140t273 -125h33l34 115h119v-676q0 -58 41 -98t99 -40q112 0 153 122q35 104 35 262q1 158 -57 300t-158 232q-206 186 -508 186
q-141 0 -271 -54t-231 -152t-161 -246t-60 -322q1 -174 61 -320t162 -242t232 -148q132 -52 276 -52q223 0 404 101z" />
    <glyph glyph-name="A" unicode="A" horiz-adv-x="1306" 
d="M641 1241l-223 -692h471l-223 692h-25zM1067 0l-121 375h-586l-120 -375h-199l483 1434h258l484 -1434h-199z" />
    <glyph glyph-name="B" unicode="B" horiz-adv-x="1257" 
d="M639 168q309 0 309 246q0 126 -82 187t-227 61h-301v-494h301zM883 1049q0 217 -287 217h-258v-441h268q140 0 208 61t69 163zM1135 395q-1 -169 -125 -282t-351 -113h-495v1434h452q196 0 324 -99t127 -264q0 -101 -48 -182t-124 -119v-25q102 -37 171 -129t69 -221z
" />
    <glyph glyph-name="C" unicode="C" horiz-adv-x="1460" 
d="M772 -10q-130 0 -248 54t-208 148q-88 94 -140 231t-53 294q1 157 53 294t140 231t207 148q118 54 247 54q196 0 358 -116t230 -304h-211q-51 114 -151 176t-226 62q-202 0 -328 -150t-125 -395q0 -245 126 -395t329 -150q128 0 226 64t149 174h211q-66 -184 -226 -302
t-360 -118z" />
    <glyph glyph-name="D" unicode="D" horiz-adv-x="1406" 
d="M618 180q221 0 344 148t123 388q1 242 -123 390t-344 147h-264v-1073h264zM618 1434q139 0 262 -53t212 -146q88 -93 140 -227t52 -291t-51 -291t-139 -227t-212 -146q-123 -53 -264 -53h-454v1434h454z" />
    <glyph glyph-name="E" unicode="E" horiz-adv-x="1251" 
d="M354 180h733v-180h-923v1434h903v-179h-713v-440h652v-178h-652v-457z" />
    <glyph glyph-name="F" unicode="F" horiz-adv-x="1087" 
d="M1026 1260h-674v-447h572v-174h-572v-639h-188v1434h862v-174z" />
    <glyph glyph-name="G" unicode="G" horiz-adv-x="1497" 
d="M766 573v168h588v-741h-113l-37 133h-26q-162 -143 -371 -143t-361 94t-238 260t-85 347t51 317t137 230q87 96 210 151t246 55t217 -32q160 -55 256 -174q97 -119 114 -214h-201q-33 83 -130 166q-97 82 -253 82q-205 0 -329 -157t-124 -398q0 -332 213 -481
q106 -74 238 -74t238 52q108 52 168 138v221h-408z" />
    <glyph glyph-name="H" unicode="H" horiz-adv-x="1392" 
d="M1038 1434h191v-1434h-191v635h-684v-635h-190v1434h190v-621h684v621z" />
    <glyph glyph-name="I" unicode="I" horiz-adv-x="518" 
d="M354 1434v-1434h-190v1434h190z" />
    <glyph glyph-name="J" unicode="J" horiz-adv-x="1161" 
d="M307 410q-1 -116 77 -180t184 -64t172 72q65 72 65 233v963h192v-942q0 -370 -262 -472q-75 -30 -167 -30q-185 0 -315 109t-130 311h184z" />
    <glyph glyph-name="K" unicode="K" horiz-adv-x="1282" 
d="M346 649v-649h-182v1434h182v-609h121l448 609h224l-508 -697l569 -737h-225l-508 649h-121z" />
    <glyph glyph-name="L" unicode="L" horiz-adv-x="1210" 
d="M352 180h735v-180h-923v1434h188v-1254z" />
    <glyph glyph-name="M" unicode="M" horiz-adv-x="1720" 
d="M1556 1434v-1434h-178v1161h-22l-383 -1059h-228l-380 1059h-23v-1161h-178v1434h278l406 -1125h24l406 1125h278z" />
    <glyph glyph-name="N" unicode="N" horiz-adv-x="1458" 
d="M1114 1434h180v-1434h-256l-673 1141h-23v-1141h-178v1434h229l697 -1168h24v1168z" />
    <glyph glyph-name="O" unicode="O" horiz-adv-x="1646" 
d="M825 170q223 0 365 154t141 392t-143 393t-364 155t-365 -155q-142 -155 -142 -392q1 -237 143 -392t365 -155zM824 -10q-140 0 -268 55t-224 151t-152 231q-57 136 -57 290q0 155 57 291q56 136 152 231t224 150t267 55t267 -55t224 -150t153 -231t57 -291
q0 -154 -56 -290q-56 -135 -152 -231t-224 -151t-268 -55z" />
    <glyph glyph-name="P" unicode="P" horiz-adv-x="1216" 
d="M639 741q114 0 204 67q91 67 91 214q0 146 -130 210q-72 34 -165 34h-301v-525h301zM659 1434q261 0 389 -192q66 -98 66 -228q0 -132 -65 -234t-168 -154t-222 -53h-321v-573h-174v1434h495z" />
    <glyph glyph-name="Q" unicode="Q" horiz-adv-x="1646" 
d="M825 174q223 0 365 153t141 390t-143 390t-364 153t-365 -153q-142 -153 -142 -390q1 -237 143 -390t365 -153zM1216 -246q-164 0 -270 68t-143 172q-137 4 -261 60t-216 151q-92 93 -148 227q-55 134 -55 286t57 288q56 136 152 230t224 150q128 54 267 54t267 -54
t224 -150q96 -94 153 -230t57 -289q0 -261 -150 -453t-381 -250q63 -88 230 -88q121 0 180 51l90 -133q-114 -90 -277 -90z" />
    <glyph glyph-name="R" unicode="R" horiz-adv-x="1304" 
d="M338 1266v-525h301q114 0 204 67q91 67 91 214q0 146 -130 210q-72 34 -165 34h-301zM338 573v-573h-174v1434h495q261 0 389 -192q66 -98 66 -242t-90 -256t-229 -152l387 -592h-207l-379 573h-258z" />
    <glyph glyph-name="S" unicode="S" horiz-adv-x="1255" 
d="M1133 373q0 -119 -67 -207q-133 -176 -409 -176q-115 0 -217 37t-170 99q-148 132 -147 306h184q9 -118 113 -192t222 -74q120 0 210 48t90 157t-122 177q-76 43 -226 103q-151 60 -229 108q-203 124 -203 310q0 110 64 197q64 88 168 134q106 46 222 46q223 0 349 -124
q127 -124 127 -267h-185q-10 89 -86 152q-77 63 -199 63t-196 -54t-74 -128q0 -73 53 -122t112 -78q60 -29 100 -45q41 -17 135 -56t170 -85q211 -129 211 -329z" />
    <glyph glyph-name="T" unicode="T" horiz-adv-x="1089" 
d="M1028 1434v-179h-387v-1255h-192v1255h-388v179h967z" />
    <glyph glyph-name="U" unicode="U" horiz-adv-x="1441" 
d="M1298 1434v-820q0 -372 -237 -530q-141 -93 -338 -94q-245 0 -407 146q-80 74 -127 196q-46 122 -46 282v820h193v-799q0 -350 234 -439q68 -26 153 -26q175 0 279 113t104 352v799h192z" />
    <glyph glyph-name="V" unicode="V" horiz-adv-x="1388" 
d="M1108 1434h199l-459 -1434h-307l-459 1434h201l397 -1256h29z" />
    <glyph glyph-name="W" unicode="W" horiz-adv-x="1949" 
d="M1663 1434h195l-353 -1434h-278l-240 1079h-24l-240 -1079h-279l-352 1434h195l288 -1223h25l248 1120h254l248 -1120h24z" />
    <glyph glyph-name="X" unicode="X" horiz-adv-x="1353" 
d="M1049 0l-355 559h-32l-357 -559h-223l479 739l-450 695h215l333 -519h33l334 519h217l-450 -695l479 -739h-223z" />
    <glyph glyph-name="Y" unicode="Y" horiz-adv-x="1337" 
d="M764 0h-191v719l-491 715h225l346 -521h29l346 521h227l-491 -715v-719z" />
    <glyph glyph-name="Z" unicode="Z" horiz-adv-x="1230" 
d="M1108 180v-180h-985v106l711 1149h-670v179h923v-105l-700 -1149h721z" />
    <glyph glyph-name="bracketleft" unicode="[" horiz-adv-x="657" 
d="M123 1583h350v-149h-190v-1631h211v-149h-371v1929z" />
    <glyph glyph-name="backslash" unicode="\" horiz-adv-x="1099" 
d="M123 1536h182l733 -1638h-182z" />
    <glyph glyph-name="bracketright" unicode="]" horiz-adv-x="657" 
d="M514 1583v-1929h-371v149h211v1631h-190v149h350z" />
    <glyph glyph-name="asciicircum" unicode="^" horiz-adv-x="1136" 
d="M819 737l-233 443h-33l-236 -443h-194l385 697h123l383 -697h-195z" />
    <glyph glyph-name="underscore" unicode="_" horiz-adv-x="1136" 
d="M123 0h891v-156h-891v156z" />
    <glyph glyph-name="grave" unicode="`" horiz-adv-x="665" 
d="M383 1393l119 -256h-125l-213 256h219z" />
    <glyph glyph-name="a" unicode="a" horiz-adv-x="1103" 
d="M293 283q0 -89 85 -123q84 -34 192 0t154 126q22 45 24 97v106q-236 -23 -324 -58t-115 -83q-16 -28 -16 -65zM911 262q-1 -72 25 -100t86 -27v-135h-72q-141 0 -182 123q-100 -133 -299 -133q-154 0 -250 83t-96 208t74 197q114 109 401 148q58 8 98 12t54 7
q-6 166 -116 210q-42 17 -91 17q-48 0 -79 -7q-32 -7 -52 -18q-68 -36 -86 -102h-176q14 111 115 200t273 89t272 -102t101 -316v-354z" />
    <glyph glyph-name="b" unicode="b" horiz-adv-x="1243" 
d="M940 512q0 158 -92 256t-215 98q-88 0 -162 -52q-133 -94 -133 -302t133 -302q74 -53 162 -52q123 0 215 98t92 256zM1120 512q0 -114 -38 -212t-101 -166q-137 -144 -330 -144t-301 141h-28l-39 -131h-119v1454h174v-580q110 160 308 160t335 -144q63 -68 101 -166
t38 -212z" />
    <glyph glyph-name="c" unicode="c" horiz-adv-x="1189" 
d="M632 -10q-146 0 -258 66t-182 188q-70 121 -69 268q-1 147 69 268q70 122 182 188t259 66t287 -109t167 -276h-184q-33 99 -110 158t-179 59q-137 0 -224 -101t-87 -253t87 -253t224 -101q99 0 174 54t111 148h182q-35 -162 -169 -266t-280 -104z" />
    <glyph glyph-name="d" unicode="d" horiz-adv-x="1247" 
d="M303 512q1 -158 93 -256t214 -98q88 0 162 52q133 94 133 302t-133 302q-74 52 -162 52q-122 0 -214 -98t-93 -256zM905 1454h174v-1454h-118l-39 131h-33q-107 -141 -299 -141t-330 149t-137 373q-1 224 137 373t335 149t310 -164v584z" />
    <glyph glyph-name="e" unicode="e" horiz-adv-x="1198" 
d="M606 883q-114 -1 -194 -73t-105 -196h580q-19 121 -93 195t-188 74zM608 1034q96 0 180 -36q85 -36 152 -102q68 -68 104 -180t29 -251h-774q11 -143 95 -226t216 -83q172 0 252 131h189q-59 -137 -179 -217t-262 -80q-197 0 -340 145q-67 69 -107 169t-40 216t40 214
t107 162q66 66 154 102t184 36z" />
    <glyph glyph-name="f" unicode="f" horiz-adv-x="808" 
d="M549 1280q-123 0 -123 -172v-84h246v-143h-246v-881h-172v881h-152v143h152v100q0 144 72 232t190 88t193 -66l-78 -127q-36 29 -82 29z" />
    <glyph glyph-name="g" unicode="g" horiz-adv-x="1153" 
d="M578 -258q112 0 192 48t80 120t-46 104q-46 31 -132 35q-20 1 -94 3t-127 9l-138 -129q-11 -86 71 -138t194 -52zM592 889q-93 0 -150 -58q-57 -59 -57 -145t56 -144q55 -58 149 -57q94 0 150 58q56 59 55 145q0 86 -55 144t-148 57zM342 285q0 -86 215 -86h145
q162 0 242 -78q80 -77 80 -195t-62 -196q-119 -150 -363 -150t-362 118t-87 286l155 108q-137 50 -137 175t129 190q-86 95 -86 237q-1 142 105 242t274 100q122 0 215 -55q45 21 83 52t53 52l15 21l105 -145q-58 -41 -154 -74q62 -91 62 -199q-1 -150 -105 -250t-274 -100
q-99 0 -182 39q-66 -36 -66 -92z" />
    <glyph glyph-name="h" unicode="h" horiz-adv-x="1187" 
d="M652 1034q182 0 282 -130t100 -349v-555h-180v494q0 277 -112 352q-49 33 -121 33q-117 1 -197 -81t-80 -214v-584h-180v1454h180v-539h21q105 119 287 119z" />
    <glyph glyph-name="i" unicode="i" horiz-adv-x="550" 
d="M385 1024v-1024h-180v1024h180zM296 1202q-54 0 -93 38t-39 94q0 54 38 92t94 38t94 -38t38 -92t-38 -94q-40 -38 -94 -38z" />
    <glyph glyph-name="j" unicode="j" horiz-adv-x="657" 
d="M309 1024h178v-1124q1 -142 -77 -231t-196 -89t-194 66l78 125q36 -29 88 -29t88 41t35 133v1108zM402 1202q-54 0 -93 38t-39 94q0 54 38 92t94 38q55 0 94 -38t39 -92t-39 -94q-40 -38 -94 -38z" />
    <glyph glyph-name="k" unicode="k" horiz-adv-x="1124" 
d="M340 0h-176v1454h176v-885h33l430 455h219l-408 -438l408 -586h-201l-327 459l-154 -166v-293z" />
    <glyph glyph-name="l" unicode="l" horiz-adv-x="505" 
d="M164 1454h178v-1454h-178v1454z" />
    <glyph glyph-name="m" unicode="m" horiz-adv-x="1746" 
d="M1232 1034q184 0 277 -130t93 -349v-555h-181v494q0 223 -51 304t-151 81q-99 1 -171 -75t-75 -206v-598h-180v494q-1 188 -35 268q-35 80 -90 103q-33 14 -76 14q-104 1 -176 -79t-72 -216v-584h-180v1024h119l34 -115h29q108 125 271 125t278 -164h35q118 164 302 164z
" />
    <glyph glyph-name="n" unicode="n" horiz-adv-x="1179" 
d="M644 1034q190 0 290 -130t100 -349v-555h-180v494q0 277 -112 352q-49 33 -121 33q-117 1 -197 -81t-80 -214v-584h-180v1024h119l36 -117h25q110 127 300 127z" />
    <glyph glyph-name="o" unicode="o" horiz-adv-x="1228" 
d="M614 158q138 0 225 100t87 254q0 152 -88 253t-224 101q-137 0 -224 -101t-87 -253t87 -253q86 -101 224 -101zM598 -10q-112 0 -224 66t-182 188q-70 121 -69 268q-1 147 69 268q70 122 182 188t224 66t200 -40q90 -40 158 -107q68 -68 109 -166t41 -209t-40 -209
t-109 -166q-67 -67 -157 -107t-202 -40z" />
    <glyph glyph-name="p" unicode="p" horiz-adv-x="1243" 
d="M940 512q0 158 -92 256t-215 98q-88 0 -162 -52q-133 -94 -133 -302t133 -302q74 -53 162 -52q123 0 215 98t92 256zM654 1034q190 0 328 -149t138 -373t-138 -373t-334 -149q-197 0 -310 164v-564h-174v1434h119l39 -129h32q109 139 300 139z" />
    <glyph glyph-name="q" unicode="q" horiz-adv-x="1243" 
d="M610 158q88 0 162 52q133 94 133 302t-133 302q-74 52 -162 52q-122 0 -214 -98t-93 -256q1 -158 93 -256t214 -98zM1079 1024v-1434h-174v560q-110 -160 -308 -160t-335 144q-64 68 -102 166t-37 212q-1 114 37 212t102 166q137 144 327 144q189 0 302 -139h31l39 129
h118z" />
    <glyph glyph-name="r" unicode="r" horiz-adv-x="790" 
d="M625 1034h63v-176q-40 8 -88 8q-100 0 -178 -63t-78 -199v-604h-180v1024h119l34 -115h29q108 125 279 125z" />
    <glyph glyph-name="s" unicode="s" horiz-adv-x="1030" 
d="M787 72q-100 -82 -264 -82t-272 98t-108 242h166q0 -90 65 -142q66 -52 150 -51t138 39t55 115q0 77 -90 119q-48 22 -104 38q-57 14 -81 22t-64 22q-38 14 -63 29q-141 79 -141 220t96 217t250 76t250 -88t96 -203h-166q0 59 -54 103t-130 43q-76 1 -124 -37t-48 -100
q0 -94 137 -136q23 -8 63 -18t66 -18t67 -23t67 -29q144 -82 143 -228q0 -146 -100 -228z" />
    <glyph glyph-name="t" unicode="t" horiz-adv-x="890" 
d="M574 -10q-118 0 -196 88t-77 231v563h-178v134h63q60 0 99 39t39 102v184h151v-307h248v-150h-246v-548q1 -92 37 -133t88 -41t88 28l78 -125q-76 -65 -194 -65z" />
    <glyph glyph-name="u" unicode="u" horiz-adv-x="1185" 
d="M842 1024h180v-1024h-119l-33 109h-26q-104 -119 -292 -119t-288 129t-100 350v555h180v-494q0 -211 65 -298t184 -87t184 84t65 252v543z" />
    <glyph glyph-name="v" unicode="v" horiz-adv-x="1179" 
d="M868 1024h189l-332 -1024h-270l-332 1024h188l267 -877h24z" />
    <glyph glyph-name="w" unicode="w" horiz-adv-x="1622" 
d="M1321 1024h178l-244 -1024h-270l-162 696h-24l-162 -696h-270l-244 1024h178l191 -862h24l182 780h226l184 -780h22z" />
    <glyph glyph-name="x" unicode="x" horiz-adv-x="1202" 
d="M860 0l-244 387h-28l-246 -387h-211l348 532l-317 492h205l223 -348h24l222 348h204l-317 -492l348 -532h-211z" />
    <glyph glyph-name="y" unicode="y" horiz-adv-x="1208" 
d="M336 -420q-40 0 -100 21t-82 49l79 125q55 -39 108 -39t80 12q59 25 107 168l31 84h-84l-373 1024h187l309 -848h23l301 848h184l-377 -1063q-46 -138 -73 -190q-94 -182 -272 -191h-48z" />
    <glyph glyph-name="z" unicode="z" horiz-adv-x="1064" 
d="M922 154v-154h-779v94l525 776h-504v154h737v-94l-524 -776h545z" />
    <glyph glyph-name="braceleft" unicode="{" horiz-adv-x="692" 
d="M403 858q0 -165 -127 -227v-25q127 -62 127 -227v-492q-1 -51 29 -81t84 -29h23v-123h-60q-105 0 -167 65t-62 177v483q0 184 -148 184v111q148 0 148 184v483q0 112 62 177t167 65h60v-123h-23q-54 0 -84 -30t-29 -80v-492z" />
    <glyph glyph-name="bar" unicode="|" horiz-adv-x="495" 
d="M332 1577v-1864h-168v1864h168z" />
    <glyph glyph-name="braceright" unicode="}" horiz-adv-x="671" 
d="M422 858q0 -88 34 -136t113 -48v-111q-79 1 -113 -47t-34 -137v-483q0 -112 -62 -177t-167 -65h-60v123h23q54 -1 83 29t29 81v492q0 165 127 227v25q-127 62 -127 227v492q0 52 -29 81t-83 29h-23v123h60q105 0 167 -65t62 -177v-483z" />
    <glyph glyph-name="asciitilde" unicode="~" horiz-adv-x="1343" 
d="M1221 672q-77 -172 -251 -214q-136 -32 -286 42q-64 32 -116 60q-54 28 -96 32q-78 8 -125 -29t-71 -82l-153 62q17 38 56 84q39 47 82 77t115 50q72 18 147 6q74 -12 137 -44q64 -32 116 -60t94 -32q79 -8 126 29q48 38 71 80z" />
    <glyph glyph-name="uni00A0" unicode="&#xa0;" horiz-adv-x="512" 
 />
    <glyph glyph-name="exclamdown" unicode="&#xa1;" horiz-adv-x="532" 
d="M373 -410h-215l41 1043h133zM266 1034q51 0 87 -36t36 -88t-36 -86q-36 -36 -87 -36t-87 36t-36 86q0 52 36 88t87 36z" />
    <glyph glyph-name="cent" unicode="&#xa2;" horiz-adv-x="1210" 
d="M295 655q1 -129 67 -225t175 -125v701q-109 -28 -175 -125t-67 -226zM690 -2h-153v141q-173 30 -293 174t-121 342q1 198 121 342t293 174v140h153v-140q146 -23 260 -127t137 -251h-178q-27 81 -84 137t-135 76v-701q73 18 129 71t86 128h176q-29 -143 -139 -242
t-252 -123v-141z" />
    <glyph glyph-name="sterling" unicode="&#xa3;" horiz-adv-x="1165" 
d="M438 168h611v-168h-924v166q69 0 146 62q96 77 96 227q0 53 -27 112h-217v162h129q-45 99 -45 193q-1 94 27 162q49 121 163 179t212 58t161 -18q63 -19 105 -47q143 -97 188 -259l-156 -43q-6 25 -31 66t-53 68t-78 49t-110 22q-105 0 -177 -59t-73 -149q0 -90 70 -222
h432v-162h-361q17 -56 17 -102q0 -153 -105 -270v-27z" />
    <glyph glyph-name="currency" unicode="&#xa4;" horiz-adv-x="1269" 
d="M360 512q0 -110 80 -192t194 -82t195 82q80 82 80 192t-80 192q-81 82 -195 82t-194 -82t-80 -192zM1079 512q0 -140 -82 -256l150 -147l-109 -109l-147 147q-115 -79 -255 -79t-257 79l-150 -147l-106 109l147 147q-82 116 -82 256t82 256l-147 147l106 109l150 -147
q113 79 255 79t257 -79l147 147l109 -109l-150 -147q82 -116 82 -256z" />
    <glyph glyph-name="yen" unicode="&#xa5;" horiz-adv-x="1243" 
d="M1004 844v-146h-295v-127h295v-145h-295v-426h-174l-3 426h-292v145h292v127h-292v146h209l-347 467h209l293 -414h33l293 414h211l-350 -467h213z" />
    <glyph glyph-name="brokenbar" unicode="&#xa6;" horiz-adv-x="495" 
d="M164 -287v727h168v-727h-168zM164 1577h168v-727h-168v727z" />
    <glyph glyph-name="section" unicode="&#xa7;" 
d="M576 309q103 1 174 61t71 156q-1 96 -85 164t-187 68t-175 -60t-71 -156q0 -95 85 -164t188 -69zM967 -72q-1 -102 -57 -180q-114 -159 -345 -158q-95 0 -173 33t-128 86q-104 112 -104 246h176q0 -71 67 -133t161 -62t159 55t65 137t-74 134q-52 38 -166 60
q-212 40 -333 166q-92 95 -92 223q0 127 62 211t161 118q-84 34 -136 104t-52 172q0 100 56 178t146 119q90 40 192 40q196 0 304 -115q109 -115 109 -250h-177q0 72 -67 134t-161 61t-158 -55q-66 -54 -66 -138q0 -154 255 -195q161 -26 281 -118q132 -101 132 -293
q0 -102 -62 -182t-164 -115q83 -32 136 -107t53 -176z" />
    <glyph glyph-name="dieresis" unicode="&#xa8;" horiz-adv-x="901" 
d="M625 1128q-45 0 -79 34t-34 80t34 79t79 33q46 0 79 -33t33 -79t-33 -80t-79 -34zM276 1128q-46 0 -79 34t-33 80t33 79t79 33t80 -33t33 -79q1 -46 -33 -80t-80 -34z" />
    <glyph glyph-name="copyright" unicode="&#xa9;" horiz-adv-x="1699" 
d="M1051 819q-57 135 -215 135q-78 0 -140 -72q-61 -72 -61 -166t61 -165q61 -72 160 -72q66 0 118 33t73 92h151q-26 -122 -126 -199t-234 -77t-244 112t-111 277q1 165 111 277t244 112t239 -82q104 -82 125 -205h-151zM850 141q156 -1 288 77t210 210t77 289
q1 157 -77 289t-210 209t-288 77t-288 -77t-210 -209t-78 -289t78 -289t210 -210t288 -77zM850 -10q-196 0 -364 98t-266 264q-98 168 -97 365q-1 197 97 365t266 264q168 98 364 98t364 -98t265 -264q98 -168 98 -365t-98 -365q-97 -168 -265 -264q-168 -98 -364 -98z" />
    <glyph glyph-name="guillemotleft" unicode="&#xab;" horiz-adv-x="1220" 
d="M893 199l-330 413l330 414h205l-334 -414l334 -413h-205zM453 199l-330 413l330 414h204l-333 -414l333 -413h-204z" />
    <glyph glyph-name="logicalnot" unicode="&#xac;" horiz-adv-x="1220" 
d="M123 694v156h973v-55l2 -428h-156l-2 327h-817z" />
    <glyph glyph-name="uni00AD" unicode="&#xad;" horiz-adv-x="983" 
d="M123 715h737v-156h-737v156z" />
    <glyph glyph-name="registered" unicode="&#xae;" horiz-adv-x="1699" 
d="M741 760h119q49 0 81 24t32 67q0 41 -27 69t-76 28h-129v-188zM741 618v-270h-141v737h274q100 0 174 -61q74 -60 74 -154t-44 -152t-115 -85l174 -285h-152l-168 270h-76zM850 141q156 -1 288 77t210 210t77 289q1 157 -77 289t-210 209t-288 77t-288 -78t-210 -210
t-78 -288t78 -288t210 -210t288 -77zM850 -10q-196 0 -364 98t-266 264q-98 168 -97 365q-1 197 97 365t266 264q168 98 364 98t364 -98t265 -264q98 -168 98 -365t-98 -365q-97 -168 -265 -264q-168 -98 -364 -98z" />
    <glyph glyph-name="macron" unicode="&#xaf;" horiz-adv-x="1003" 
d="M164 1331h676v-143h-676v143z" />
    <glyph glyph-name="degree" unicode="&#xb0;" horiz-adv-x="729" 
d="M365 973q43 -1 73 29t29 73q1 43 -29 73t-73 30t-73 -30t-30 -73t30 -73t73 -29zM364 834q-100 0 -170 70q-71 70 -71 171q0 100 71 171q70 71 170 71q100 1 171 -71t71 -171t-71 -170t-171 -71z" />
    <glyph glyph-name="plusminus" unicode="&#xb1;" horiz-adv-x="1095" 
d="M123 0v156h850v-156h-850zM629 795h344v-156h-342v-354h-164v354h-344v156h344v348h162v-348z" />
    <glyph glyph-name="uni00B2" unicode="&#xb2;" horiz-adv-x="741" 
d="M633 836v-136h-531v74q0 190 222 301q18 9 50 23q60 26 92 48t32 67t-32 73t-88 27q-54 0 -90 -39t-36 -103h-143q0 97 67 183t187 86t198 -61t78 -156q0 -125 -121 -185q-19 -10 -91 -45q-163 -80 -165 -157h371z" />
    <glyph glyph-name="uni00B3" unicode="&#xb3;" horiz-adv-x="743" 
d="M379 817q121 0 121 107q0 40 -34 69t-110 29h-53v117h47q127 0 127 98q0 30 -30 54t-78 24t-75 -24t-32 -58h-129q0 89 70 148t170 59q101 0 171 -55t70 -130q0 -110 -94 -161v-13q57 -17 89 -63t32 -103q1 -97 -71 -161t-197 -64t-198 74t-73 188h138q4 -60 38 -98
t101 -37z" />
    <glyph glyph-name="acute" unicode="&#xb4;" horiz-adv-x="665" 
d="M283 1393h219l-213 -256h-125z" />
    <glyph glyph-name="uni00B5" unicode="&#xb5;" horiz-adv-x="1185" 
d="M842 1024h180v-1024h-119l-37 117h-24q-110 -127 -295 -127q-131 0 -217 65v-465h-166v1434h180v-494q0 -385 225 -385q111 0 192 80t81 215v584z" />
    <glyph glyph-name="paragraph" unicode="&#xb6;" horiz-adv-x="1308" 
d="M123 1062q1 104 61 194q119 178 363 178h639v-148h-164v-1696h-150v1696h-172v-1696h-153v1072q-173 0 -291 100q-133 98 -133 300z" />
    <glyph glyph-name="periodcentered" unicode="&#xb7;" horiz-adv-x="491" 
d="M246 514q-51 0 -87 36t-36 88t36 86q36 36 87 36t87 -36t36 -86q0 -52 -36 -88t-87 -36z" />
    <glyph glyph-name="cedilla" unicode="&#xb8;" horiz-adv-x="761" 
d="M380 -170q-42 0 -87 -20l-57 73l81 127h134l-62 -92q77 16 143 -27t66 -124t-61 -134t-165 -53t-177 80q-17 19 -31 45l98 55q14 -24 47 -43q34 -20 73 -20q39 -1 62 19t23 48q-1 28 -23 46q-22 20 -64 20z" />
    <glyph glyph-name="uni00B9" unicode="&#xb9;" horiz-adv-x="522" 
d="M274 696v478h-182v116h113q34 0 56 23t22 61v60h135l2 -738h-146z" />
    <glyph glyph-name="guillemotright" unicode="&#xbb;" horiz-adv-x="1220" 
d="M768 199h-205l334 413l-334 414h205l330 -414zM328 199h-205l334 413l-334 414h205l329 -414z" />
    <glyph glyph-name="questiondown" unicode="&#xbf;" horiz-adv-x="882" 
d="M236 -49q0 -227 204 -227q179 0 207 198h168q0 -97 -38 -164q-38 -68 -79 -104q-93 -82 -264 -82q-172 0 -269 102t-97 268q0 164 127 268q19 16 56 42q69 49 114 100t45 150v127h168v-131q0 -202 -154 -323q-22 -17 -54 -40q-61 -42 -97 -86q-37 -44 -37 -98zM479 1034
q51 0 87 -36t36 -88t-36 -86q-36 -36 -87 -36t-87 36t-36 86q0 52 36 88t87 36z" />
    <glyph glyph-name="Agrave" unicode="&#xc0;" horiz-adv-x="1306" 
d="M641 1241l-223 -692h471l-223 692h-25zM1067 0l-121 375h-586l-120 -375h-199l483 1434h258l484 -1434h-199zM801 1546h-150l-256 256h262z" />
    <glyph glyph-name="Aacute" unicode="&#xc1;" horiz-adv-x="1306" 
d="M641 1241l-223 -692h471l-223 692h-25zM1067 0l-121 375h-586l-120 -375h-199l483 1434h258l484 -1434h-199zM930 1802l-256 -256h-150l144 256h262z" />
    <glyph glyph-name="Acircumflex" unicode="&#xc2;" horiz-adv-x="1306" 
d="M641 1241l-223 -692h471l-223 692h-25zM1067 0l-121 375h-586l-120 -375h-199l483 1434h258l484 -1434h-199zM635 1731l-121 -185h-182l223 316h186l224 -316h-183l-120 185h-27z" />
    <glyph glyph-name="Atilde" unicode="&#xc3;" horiz-adv-x="1306" 
d="M641 1241l-223 -692h471l-223 692h-25zM1067 0l-121 375h-586l-120 -375h-199l483 1434h258l484 -1434h-199zM624 1574q-68 42 -98 46q-52 6 -80 -19t-47 -59l-118 51q64 143 180 185q95 34 219 -43q68 -42 96 -46q54 -8 82 20q29 27 47 58l119 -53q-4 -8 -10 -24
t-32 -53t-56 -63t-78 -44q-50 -17 -103 -7q-53 9 -121 51z" />
    <glyph glyph-name="Adieresis" unicode="&#xc4;" horiz-adv-x="1306" 
d="M641 1241l-223 -692h471l-223 692h-25zM1067 0l-121 375h-586l-120 -375h-199l483 1434h258l484 -1434h-199zM898 1534q-52 0 -89 37t-37 90t37 89t90 36t89 -36t36 -88q0 -54 -36 -91q-38 -37 -90 -37zM408 1534q-52 0 -90 37t-37 90q0 53 37 89t90 36q52 0 88 -36
t36 -88q0 -54 -36 -91t-88 -37z" />
    <glyph glyph-name="Aring" unicode="&#xc5;" horiz-adv-x="1306" 
d="M641 1241l-223 -692h471l-223 692h-25zM652 1612q-36 0 -60 -26t-25 -62q1 -36 25 -62t60 -26t60 26t25 62q-1 36 -25 62t-60 26zM436 1522q0 90 64 154t152 63q88 1 152 -63t64 -153t-65 -151l463 -1372h-199l-121 375h-586l-120 -375h-199l463 1370q-68 62 -68 152z
" />
    <glyph glyph-name="AE" unicode="&#xc6;" horiz-adv-x="2121" 
d="M1034 549v639h-24l-408 -639h432zM1225 180h733v-180h-924v375h-542l-238 -375h-213l907 1434h989v-179h-712v-440h651v-178h-651v-457z" />
    <glyph glyph-name="Ccedilla" unicode="&#xc7;" horiz-adv-x="1460" 
d="M778 -158q-48 0 -88 -22l-59 78l63 96q-238 30 -404 228q-168 200 -167 501q1 151 53 288t140 231t207 148q118 54 247 54q196 0 358 -116t230 -304h-211q-51 114 -151 176t-226 62q-202 0 -328 -150t-125 -395q0 -245 126 -395t329 -150q128 0 226 64t149 174h211
q-61 -170 -204 -285t-325 -133l-38 -58q81 18 151 -27t70 -130t-65 -141t-162 -56t-152 43t-78 88l102 58q44 -66 123 -66q44 0 68 20q24 19 24 49t-23 50t-71 20z" />
    <glyph glyph-name="Egrave" unicode="&#xc8;" horiz-adv-x="1251" 
d="M354 180h733v-180h-923v1434h903v-179h-713v-440h652v-178h-652v-457zM598 1802l143 -256h-149l-256 256h262z" />
    <glyph glyph-name="Eacute" unicode="&#xc9;" horiz-adv-x="1251" 
d="M354 180h733v-180h-923v1434h903v-179h-713v-440h652v-178h-652v-457zM637 1802h262l-256 -256h-149z" />
    <glyph glyph-name="Ecircumflex" unicode="&#xca;" horiz-adv-x="1251" 
d="M354 180h733v-180h-923v1434h903v-179h-713v-440h652v-178h-652v-457zM604 1731l-121 -185h-182l223 316h187l223 -316h-182l-121 185h-27z" />
    <glyph glyph-name="Edieresis" unicode="&#xcb;" horiz-adv-x="1251" 
d="M354 180h733v-180h-923v1434h903v-179h-713v-440h652v-178h-652v-457zM866 1534q-52 0 -90 37t-37 90q0 53 37 89t90 36t89 -36t36 -88q-1 -54 -37 -91t-88 -37zM374 1534q-52 0 -89 37t-37 90t37 89t90 36t89 -36t36 -88q0 -54 -36 -91q-38 -37 -90 -37z" />
    <glyph glyph-name="Igrave" unicode="&#xcc;" horiz-adv-x="518" 
d="M354 1434v-1434h-190v1434h190zM246 1802l143 -256h-149l-256 256h262z" />
    <glyph glyph-name="Iacute" unicode="&#xcd;" horiz-adv-x="518" 
d="M354 1434v-1434h-190v1434h190zM274 1802h263l-256 -256h-150z" />
    <glyph glyph-name="Icircumflex" unicode="&#xce;" horiz-adv-x="518" 
d="M164 0v1434h190v-1434h-190zM348 1862l223 -316h-182l-121 185h-26l-121 -185h-182l223 316h186z" />
    <glyph glyph-name="Idieresis" unicode="&#xcf;" horiz-adv-x="518" 
d="M354 1434v-1434h-190v1434h190zM466 1534q-52 0 -89 37t-37 90t37 89t90 36t89 -36t36 -88q0 -54 -36 -91q-38 -37 -90 -37zM56 1534q-52 0 -89 37t-37 90t37 89t90 36t89 -36t36 -88q0 -54 -36 -91q-38 -37 -90 -37z" />
    <glyph glyph-name="Eth" unicode="&#xd0;" horiz-adv-x="1529" 
d="M741 180q221 0 344 148t123 388q0 242 -124 390t-343 147h-264v-430h363v-155h-363v-488h264zM741 1434q139 0 262 -53t212 -146t141 -227t51 -291q0 -157 -51 -291q-52 -134 -140 -227t-211 -146t-264 -53h-454v668h-205v155h205v611h454z" />
    <glyph glyph-name="Ntilde" unicode="&#xd1;" horiz-adv-x="1458" 
d="M1114 1434h180v-1434h-256l-673 1141h-23v-1141h-178v1434h229l697 -1168h24v1168zM700 1574q-68 42 -98 46q-52 6 -80 -19t-47 -59l-119 51q28 71 92 131q86 81 191 62q49 -9 117 -51t96 -46q54 -8 82 20q29 27 47 58l119 -53q-4 -8 -10 -24t-32 -53t-56 -63t-78 -44
q-50 -17 -103 -7q-53 9 -121 51z" />
    <glyph glyph-name="Ograve" unicode="&#xd2;" horiz-adv-x="1646" 
d="M825 170q223 0 365 154t141 392t-143 393t-364 155t-365 -155q-142 -155 -142 -392q1 -237 143 -392t365 -155zM824 -10q-140 0 -268 55t-224 151t-152 231q-57 136 -57 290q0 155 57 291q56 136 152 231t224 150t267 55t267 -55t224 -150t153 -231t57 -291
q0 -154 -56 -290q-56 -135 -152 -231t-224 -151t-268 -55zM846 1802l143 -256h-149l-256 256h262z" />
    <glyph glyph-name="Oacute" unicode="&#xd3;" horiz-adv-x="1646" 
d="M825 170q223 0 365 154t141 392t-143 393t-364 155t-365 -155q-142 -155 -142 -392q1 -237 143 -392t365 -155zM824 -10q-140 0 -268 55t-224 151t-152 231q-57 136 -57 290q0 155 57 291q56 136 152 231t224 150t267 55t267 -55t224 -150t153 -231t57 -291
q0 -154 -56 -290q-56 -135 -152 -231t-224 -151t-268 -55zM860 1802h262l-256 -256h-149z" />
    <glyph glyph-name="Ocircumflex" unicode="&#xd4;" horiz-adv-x="1646" 
d="M825 170q223 0 365 154t141 392t-143 393t-364 155t-365 -155q-142 -155 -142 -392q1 -237 143 -392t365 -155zM823 1444q139 0 267 -55t224 -150t153 -231t57 -291q0 -154 -56 -290q-56 -135 -152 -231t-224 -151t-268 -55t-268 55t-224 151t-152 231q-57 136 -57 290
q0 155 57 291q56 136 152 231t224 150t267 55zM809 1731l-121 -185h-182l223 316h186l224 -316h-183l-120 185h-27z" />
    <glyph glyph-name="Otilde" unicode="&#xd5;" horiz-adv-x="1646" 
d="M825 170q223 0 365 154t141 392t-143 393t-364 155t-365 -155q-142 -155 -142 -392q1 -237 143 -392t365 -155zM824 -10q-140 0 -268 55t-224 151t-152 231q-57 136 -57 290q0 155 57 291q56 136 152 231t224 150t267 55t267 -55t224 -150t153 -231t57 -291
q0 -154 -56 -290q-56 -135 -152 -231t-224 -151t-268 -55zM1194 1714q-4 -8 -10 -24t-32 -53t-56 -63t-78 -44q-50 -17 -103 -7q-53 9 -121 51t-98 46q-52 6 -80 -19t-47 -59l-118 51q64 143 180 185q95 34 219 -43q68 -42 96 -46q54 -8 82 20q29 27 47 58z" />
    <glyph glyph-name="Odieresis" unicode="&#xd6;" horiz-adv-x="1646" 
d="M825 170q223 0 365 154t141 392t-143 393t-364 155t-365 -155q-142 -155 -142 -392q1 -237 143 -392t365 -155zM824 -10q-140 0 -268 55t-224 151t-152 231q-57 136 -57 290q0 155 57 291q56 136 152 231t224 150t267 55t267 -55t224 -150t153 -231t57 -291
q0 -154 -56 -290q-56 -135 -152 -231t-224 -151t-268 -55zM1052 1534q-52 0 -89 37t-37 90t37 89t90 36t89 -36t36 -88q0 -54 -36 -91q-38 -37 -90 -37zM560 1534q-52 0 -89 37t-37 90t37 89t90 36t89 -36t36 -88q0 -54 -36 -91q-38 -37 -90 -37z" />
    <glyph glyph-name="multiply" unicode="&#xd7;" horiz-adv-x="1294" 
d="M1151 991l-385 -385l385 -385l-119 -119l-385 385l-385 -385l-119 119l385 385l-385 385l119 119l385 -385l385 385z" />
    <glyph glyph-name="Oslash" unicode="&#xd8;" horiz-adv-x="1646" 
d="M825 170q223 0 365 154t141 391q0 236 -135 387l-612 -873q106 -59 241 -59zM317 716q0 -238 146 -394l612 878q-112 64 -252 64q-222 0 -364 -155t-142 -393zM1524 719q0 -156 -56 -292q-56 -135 -152 -231t-224 -151t-290 -55t-321 92l-86 -121l-123 88l86 123
q-110 99 -172 240t-63 300q0 160 57 296q56 136 152 231t224 150t267 55q190 0 355 -98l84 120l127 -90l-89 -125q104 -102 164 -239t60 -293z" />
    <glyph glyph-name="Ugrave" unicode="&#xd9;" horiz-adv-x="1441" 
d="M1298 1434v-820q0 -372 -237 -530q-141 -93 -338 -94q-245 0 -407 146q-80 74 -127 196q-46 122 -46 282v820h193v-799q0 -350 234 -439q68 -26 153 -26q175 0 279 113t104 352v799h192zM672 1802l143 -256h-149l-256 256h262z" />
    <glyph glyph-name="Uacute" unicode="&#xda;" horiz-adv-x="1441" 
d="M1298 1434v-820q0 -372 -237 -530q-141 -93 -338 -94q-245 0 -407 146q-80 74 -127 196q-46 122 -46 282v820h193v-799q0 -350 234 -439q68 -26 153 -26q175 0 279 113t104 352v799h192zM735 1802h262l-256 -256h-149z" />
    <glyph glyph-name="Ucircumflex" unicode="&#xdb;" horiz-adv-x="1441" 
d="M1106 1434h192v-820q0 -372 -237 -530q-141 -93 -338 -94q-245 0 -407 146q-80 74 -127 196q-46 122 -46 282v820h193v-799q0 -350 234 -439q68 -26 153 -26q175 0 279 113t104 352v799zM707 1731l-121 -185h-183l224 316h186l223 -316h-182l-121 185h-26z" />
    <glyph glyph-name="Udieresis" unicode="&#xdc;" horiz-adv-x="1441" 
d="M1298 1434v-820q0 -372 -237 -530q-141 -93 -338 -94q-245 0 -407 146q-80 74 -127 196q-46 122 -46 282v820h193v-799q0 -350 234 -439q68 -26 153 -26q175 0 279 113t104 352v799h192zM960 1534q-52 0 -89 37t-37 90t37 89t90 36t89 -36t35 -88q0 -54 -36 -91
q-37 -37 -89 -37zM468 1534q-52 0 -89 37t-37 90t37 89t90 36t89 -36t36 -88q0 -54 -36 -91q-38 -37 -90 -37z" />
    <glyph glyph-name="Yacute" unicode="&#xdd;" horiz-adv-x="1337" 
d="M764 0h-191v719l-491 715h225l346 -521h29l346 521h227l-491 -715v-719zM973 1802l-256 -256h-150l144 256h262z" />
    <glyph glyph-name="Thorn" unicode="&#xde;" horiz-adv-x="1216" 
d="M639 500q113 0 204 67t91 213q0 148 -130 210q-72 34 -165 34h-301v-524h301zM659 1192q261 0 389 -192q66 -98 66 -228q0 -132 -65 -234t-168 -154t-222 -52h-321v-332h-174v1434h174v-242h321z" />
    <glyph glyph-name="germandbls" unicode="&#xdf;" horiz-adv-x="1191" 
d="M1069 403q0 -177 -120 -295t-281 -118q-72 0 -140 25t-104 55l78 110q72 -35 158 -35t160 74q74 73 73 203q0 130 -90 206t-264 77h-45v155h45q106 0 183 49t77 153t-61 159q-62 55 -164 55t-171 -61t-69 -191v-1024h-170v1024q0 184 104 302t292 118t304 -100
q115 -100 115 -257q0 -102 -49 -172t-133 -106v-23q119 -29 195 -136t77 -247z" />
    <glyph glyph-name="agrave" unicode="&#xe0;" horiz-adv-x="1103" 
d="M293 283q0 -89 85 -123q84 -34 192 0t154 126q22 45 24 97v106q-236 -23 -324 -58t-115 -83q-16 -28 -16 -65zM911 262q-1 -72 25 -100t86 -27v-135h-72q-141 0 -182 123q-100 -133 -299 -133q-154 0 -250 83t-96 208t74 197q114 109 401 148q58 8 98 12t54 7
q-6 166 -116 210q-42 17 -91 17q-48 0 -79 -7q-32 -7 -52 -18q-68 -36 -86 -102h-176q14 111 115 200t273 89t272 -102t101 -316v-354zM645 1137h-125l-213 256h219z" />
    <glyph glyph-name="aacute" unicode="&#xe1;" horiz-adv-x="1103" 
d="M293 283q0 -89 85 -123q84 -34 192 0t154 126q22 45 24 97v106q-236 -23 -324 -58t-115 -83q-16 -28 -16 -65zM911 262q-1 -72 25 -100t86 -27v-135h-72q-141 0 -182 123q-100 -133 -299 -133q-154 0 -250 83t-96 208t74 197q114 109 401 148q58 8 98 12t54 7
q-6 166 -116 210q-42 17 -91 17q-48 0 -79 -7q-32 -7 -52 -18q-68 -36 -86 -102h-176q14 111 115 200t273 89t272 -102t101 -316v-354zM801 1393l-213 -256h-125l119 256h219z" />
    <glyph glyph-name="acircumflex" unicode="&#xe2;" horiz-adv-x="1103" 
d="M293 283q0 -89 85 -123q84 -34 192 0t154 126q22 45 24 97v106q-236 -23 -324 -58t-115 -83q-16 -28 -16 -65zM911 262q-1 -72 25 -100t86 -27v-135h-72q-141 0 -182 123q-100 -133 -299 -133q-154 0 -250 83t-96 208t74 197q114 109 401 148q58 8 98 12t54 7
q-6 166 -116 210q-42 17 -91 17q-48 0 -79 -7q-32 -7 -52 -18q-68 -36 -86 -102h-176q14 111 115 200t273 89t272 -102t101 -316v-354zM524 1323l-108 -184h-166l203 315h170l202 -315h-166l-108 184h-27z" />
    <glyph glyph-name="atilde" unicode="&#xe3;" horiz-adv-x="1103" 
d="M293 283q0 -89 85 -123q84 -34 192 0t154 126q22 45 24 97v106q-236 -23 -324 -58t-115 -83q-16 -28 -16 -65zM911 262q-1 -72 25 -100t86 -27v-135h-72q-141 0 -182 123q-100 -133 -299 -133q-154 0 -250 83t-96 208t74 197q114 109 401 148q58 8 98 12t54 7
q-6 166 -116 210q-42 17 -91 17q-48 0 -79 -7q-32 -7 -52 -18q-68 -36 -86 -102h-176q14 111 115 200t273 89t272 -102t101 -316v-354zM506 1174q-62 38 -88 42q-75 9 -115 -71l-108 47q9 25 37 64q26 39 54 63t72 40q44 15 92 7q46 -8 108 -46t94 -42t60 14t39 38l11 20
l108 -50q-10 -28 -36 -66t-53 -62t-72 -38q-45 -16 -93 -7t-110 47z" />
    <glyph glyph-name="adieresis" unicode="&#xe4;" horiz-adv-x="1103" 
d="M293 283q0 -89 85 -123q84 -34 192 0t154 126q22 45 24 97v106q-236 -23 -324 -58t-115 -83q-16 -28 -16 -65zM911 262q-1 -72 25 -100t86 -27v-135h-72q-141 0 -182 123q-100 -133 -299 -133q-154 0 -250 83t-96 208t74 197q114 109 401 148q58 8 98 12t54 7
q-6 166 -116 210q-42 17 -91 17q-48 0 -79 -7q-32 -7 -52 -18q-68 -36 -86 -102h-176q14 111 115 200t273 89t272 -102t101 -316v-354zM711 1128q-45 0 -79 34t-34 80t34 79t79 33q46 0 79 -33t33 -79t-33 -80t-79 -34zM362 1128q-46 0 -79 34t-33 80t33 79t79 33t80 -33
t33 -79q1 -46 -33 -80t-80 -34z" />
    <glyph glyph-name="aring" unicode="&#xe5;" horiz-adv-x="1103" 
d="M293 283q0 -89 85 -123q84 -34 192 0t154 126q22 45 24 97v106q-236 -23 -324 -58t-115 -83q-16 -28 -16 -65zM911 262q-1 -72 25 -100t86 -27v-135h-72q-141 0 -182 123q-100 -133 -299 -133q-154 0 -250 83t-96 208t74 197q114 109 401 148q58 8 98 12t54 7
q-6 166 -116 210q-42 17 -91 17q-48 0 -79 -7q-32 -7 -52 -18q-68 -36 -86 -102h-176q14 111 115 200t273 89t272 -102t101 -316v-354zM558 1370q-32 0 -54 -24t-23 -56q1 -32 23 -56t54 -24t56 24q23 24 23 56t-23 56q-24 24 -56 24zM558 1096q-80 0 -138 57t-58 137
t58 138t138 57q80 0 140 -58q58 -58 58 -137q0 -78 -58 -136t-140 -58z" />
    <glyph glyph-name="ae" unicode="&#xe6;" horiz-adv-x="1824" 
d="M293 281q1 -86 85 -121q84 -34 192 0t154 125q21 40 24 86v102q-334 -7 -420 -99q-36 -38 -35 -93zM1232 883q-114 -1 -193 -73q-80 -72 -105 -196h579q-19 122 -93 196t-188 73zM545 866q-103 0 -149 -48t-60 -99h-166q18 143 116 229t261 86q232 0 317 -172
q68 84 166 128t198 44q102 0 187 -36t152 -102q67 -68 103 -180t30 -251h-774q12 -143 96 -226t215 -83q172 0 252 131h188q-58 -137 -178 -217q-121 -80 -249 -80q-257 0 -402 203q-44 -95 -142 -149t-238 -54q-141 0 -243 84t-102 219q0 327 627 332q0 241 -205 241z" />
    <glyph glyph-name="ccedilla" unicode="&#xe7;" horiz-adv-x="1189" 
d="M616 -170q-44 0 -84 -20l-57 73l72 111q-176 27 -300 172t-124 346q-1 147 69 268q70 122 182 188t259 66t287 -109t167 -276h-184q-33 99 -110 158t-179 59q-137 0 -224 -101t-87 -253t87 -253t224 -101q99 0 174 54t111 148h182q-32 -146 -144 -246t-257 -120l-51 -76
q77 16 143 -27t66 -124t-61 -134t-165 -53t-178 80q-17 18 -31 45l99 55q2 -6 15 -19q13 -14 36 -29t65 -15q42 -1 66 19t23 48q0 28 -23 46q-24 20 -68 20z" />
    <glyph glyph-name="egrave" unicode="&#xe8;" horiz-adv-x="1198" 
d="M606 883q-114 -1 -194 -73t-105 -196h580q-19 121 -93 195t-188 74zM608 1034q96 0 180 -36q85 -36 152 -102q68 -68 104 -180t29 -251h-774q11 -143 95 -226t216 -83q172 0 252 131h189q-59 -137 -179 -217t-262 -80q-197 0 -340 145q-67 69 -107 169t-40 216t40 214
t107 162q66 66 154 102t184 36zM666 1137h-125l-213 256h219z" />
    <glyph glyph-name="eacute" unicode="&#xe9;" horiz-adv-x="1198" 
d="M606 883q-114 -1 -194 -73t-105 -196h580q-19 121 -93 195t-188 74zM608 1034q96 0 180 -36q85 -36 152 -102q68 -68 104 -180t29 -251h-774q11 -143 95 -226t216 -83q172 0 252 131h189q-59 -137 -179 -217t-262 -80q-197 0 -340 145q-67 69 -107 169t-40 216t40 214
t107 162q66 66 154 102t184 36zM862 1393l-213 -256h-125l119 256h219z" />
    <glyph glyph-name="ecircumflex" unicode="&#xea;" horiz-adv-x="1198" 
d="M606 883q-114 -1 -194 -73t-105 -196h580q-19 121 -93 195t-188 74zM608 1034q96 0 180 -36q85 -36 152 -102q68 -68 104 -180t29 -251h-774q11 -143 95 -226t216 -83q172 0 252 131h189q-59 -137 -179 -217t-262 -80q-197 0 -340 145q-67 69 -107 169t-40 216t40 214
t107 162q66 66 154 102t184 36zM586 1323l-109 -184h-166l203 315h170l203 -315h-166l-109 184h-26z" />
    <glyph glyph-name="edieresis" unicode="&#xeb;" horiz-adv-x="1198" 
d="M606 883q-114 -1 -194 -73t-105 -196h580q-19 121 -93 195t-188 74zM608 1034q96 0 180 -36q85 -36 152 -102q68 -68 104 -180t29 -251h-774q11 -143 95 -226t216 -83q172 0 252 131h189q-59 -137 -179 -217t-262 -80q-197 0 -340 145q-67 69 -107 169t-40 216t40 214
t107 162q66 66 154 102t184 36zM772 1128q-46 0 -80 34t-33 80q-1 46 33 79t80 33t80 -33t33 -79q1 -46 -33 -80t-80 -34zM424 1128q-46 0 -80 34t-33 80q-1 46 33 79t80 33t80 -33t33 -79q1 -46 -33 -80t-80 -34z" />
    <glyph glyph-name="igrave" unicode="&#xec;" horiz-adv-x="466" 
d="M344 1024v-1024h-180v1024h180zM246 1393l119 -256h-125l-213 256h219z" />
    <glyph glyph-name="iacute" unicode="&#xed;" horiz-adv-x="466" 
d="M344 1024v-1024h-180v1024h180zM262 1393h219l-213 -256h-125z" />
    <glyph glyph-name="icircumflex" unicode="&#xee;" horiz-adv-x="466" 
d="M164 0v1024h180v-1024h-180zM340 1454l203 -315h-166l-109 184h-26l-109 -184h-166l203 315h170z" />
    <glyph glyph-name="idieresis" unicode="&#xef;" horiz-adv-x="466" 
d="M344 1024v-1024h-180v1024h180zM428 1149q-46 -1 -80 33t-33 80q-1 46 33 80q34 32 80 32t80 -32t33 -80q1 -46 -33 -80t-80 -33zM80 1149q-46 -1 -80 33t-33 80q-1 46 33 80q34 32 80 32t80 -32t33 -80q1 -46 -33 -80t-80 -33z" />
    <glyph glyph-name="eth" unicode="&#xf0;" horiz-adv-x="1349" 
d="M656 158q138 0 224 100q87 100 87 254q1 152 -87 253t-225 101t-224 -101t-87 -253t87 -253t225 -101zM678 -10q-151 0 -263 66q-111 66 -181 188q-70 121 -70 268t70 268q70 122 181 188q112 66 241 66t241 -78q31 -22 51 -43q-38 159 -176 269l-213 -101l-47 101
l154 71q-115 61 -232 84l70 138q197 -50 330 -142l284 133l47 -100l-239 -113q221 -218 221 -625t-201 -553q-117 -85 -268 -85z" />
    <glyph glyph-name="ntilde" unicode="&#xf1;" horiz-adv-x="1179" 
d="M644 1034q190 0 290 -130t100 -349v-555h-180v494q0 277 -112 352q-49 33 -121 33q-117 1 -197 -81t-80 -214v-584h-180v1024h119l36 -117h25q110 127 300 127zM520 1174q-62 38 -88 42q-75 9 -115 -71l-108 47q9 25 37 64q26 39 54 63t72 40q44 15 92 7q46 -8 108 -46
t94 -42t61 14q28 18 39 38l10 20l109 -50q-10 -28 -36 -66t-53 -62t-72 -38q-45 -16 -93 -7q-49 9 -111 47z" />
    <glyph glyph-name="ograve" unicode="&#xf2;" horiz-adv-x="1228" 
d="M614 158q138 0 225 100t87 254q0 152 -88 253t-224 101q-137 0 -224 -101t-87 -253t87 -253q86 -101 224 -101zM598 -10q-112 0 -224 66t-182 188q-70 121 -69 268q-1 147 69 268q70 122 182 188t224 66t200 -40q90 -40 158 -107q68 -68 109 -166t41 -209t-40 -209
t-109 -166q-67 -67 -157 -107t-202 -40zM563 1393l119 -256h-125l-213 256h219z" />
    <glyph glyph-name="oacute" unicode="&#xf3;" horiz-adv-x="1228" 
d="M614 158q138 0 225 100t87 254q0 152 -88 253t-224 101q-137 0 -224 -101t-87 -253t87 -253q86 -101 224 -101zM598 -10q-112 0 -224 66t-182 188q-70 121 -69 268q-1 147 69 268q70 122 182 188t224 66t200 -40q90 -40 158 -107q68 -68 109 -166t41 -209t-40 -209
t-109 -166q-67 -67 -157 -107t-202 -40zM655 1393h219l-212 -256h-125z" />
    <glyph glyph-name="ocircumflex" unicode="&#xf4;" horiz-adv-x="1228" 
d="M614 158q138 0 225 100t87 254q0 152 -88 253t-224 101q-137 0 -224 -101t-87 -253t87 -253q86 -101 224 -101zM598 1034q112 0 200 -40q90 -40 158 -107q68 -68 109 -166t41 -209t-40 -209t-109 -166q-67 -67 -157 -107t-202 -40t-224 66t-182 188q-70 121 -69 268
q-1 147 69 268q70 122 182 188t224 66zM602 1323l-108 -184h-166l202 315h170l203 -315h-166l-108 184h-27z" />
    <glyph glyph-name="otilde" unicode="&#xf5;" horiz-adv-x="1228" 
d="M614 158q138 0 225 100t87 254q0 152 -88 253t-224 101q-137 0 -224 -101t-87 -253t87 -253q86 -101 224 -101zM598 -10q-112 0 -224 66t-182 188q-70 121 -69 268q-1 147 69 268q70 122 182 188t224 66t200 -40q90 -40 158 -107q68 -68 109 -166t41 -209t-40 -209
t-109 -166q-67 -67 -157 -107t-202 -40zM952 1300q-10 -28 -36 -66t-53 -62t-72 -38q-45 -16 -93 -7t-110 47t-88 42q-75 9 -115 -71l-109 47q9 25 37 64q27 39 55 63t72 40q44 15 90 7t109 -46t95 -42t60 14t39 38l11 20z" />
    <glyph glyph-name="odieresis" unicode="&#xf6;" horiz-adv-x="1228" 
d="M614 158q138 0 225 100t87 254q0 152 -88 253t-224 101q-137 0 -224 -101t-87 -253t87 -253q86 -101 224 -101zM598 -10q-112 0 -224 66t-182 188q-70 121 -69 268q-1 147 69 268q70 122 182 188t224 66t200 -40q90 -40 158 -107q68 -68 109 -166t41 -209t-40 -209
t-109 -166q-67 -67 -157 -107t-202 -40zM788 1128q-46 0 -79 34t-33 80t33 79t79 33t80 -33t33 -79q1 -46 -33 -80t-80 -34zM440 1128q-46 0 -79 34t-33 80t33 79t79 33t80 -33t33 -79q1 -46 -33 -80t-80 -34z" />
    <glyph glyph-name="divide" unicode="&#xf7;" horiz-adv-x="1218" 
d="M610 96q-51 0 -87 36t-36 88t36 86q36 36 87 36t87 -36t36 -86q0 -52 -36 -88t-87 -36zM123 686h973v-156h-973v156zM610 874q-51 0 -87 36t-36 88t36 86q36 36 87 36t87 -36t36 -86q0 -52 -36 -88t-87 -36z" />
    <glyph glyph-name="oslash" unicode="&#xf8;" horiz-adv-x="1208" 
d="M614 158q138 0 225 100t87 245q0 144 -72 242l-385 -550q64 -37 145 -37zM303 514q0 -150 80 -248l389 557q-72 43 -158 43q-137 0 -224 -101t-87 -251zM123 512q-1 147 69 268q70 122 182 188t243 66t249 -76l66 95l92 -66l-70 -98q152 -155 152 -377q0 -111 -40 -209
t-109 -166q-67 -67 -157 -107t-201 -40t-226 67l-68 -96l-90 64l70 100q-162 156 -162 387z" />
    <glyph glyph-name="ugrave" unicode="&#xf9;" horiz-adv-x="1185" 
d="M842 1024h180v-1024h-119l-33 109h-26q-104 -119 -292 -119t-288 129t-100 350v555h180v-494q0 -211 65 -298t184 -87t184 84t65 252v543zM690 1137h-125l-213 256h219z" />
    <glyph glyph-name="uacute" unicode="&#xfa;" horiz-adv-x="1185" 
d="M842 1024h180v-1024h-119l-33 109h-26q-104 -119 -292 -119t-288 129t-100 350v555h180v-494q0 -211 65 -298t184 -87t184 84t65 252v543zM836 1393l-213 -256h-125l118 256h220z" />
    <glyph glyph-name="ucircumflex" unicode="&#xfb;" horiz-adv-x="1185" 
d="M842 1024h180v-1024h-119l-33 109h-26q-104 -119 -292 -119t-288 129t-100 350v555h180v-494q0 -211 65 -298t184 -87t184 84t65 252v543zM580 1323l-109 -184h-166l203 315h170l203 -315h-166l-109 184h-26z" />
    <glyph glyph-name="udieresis" unicode="&#xfc;" horiz-adv-x="1185" 
d="M842 1024h180v-1024h-119l-33 109h-26q-104 -119 -292 -119t-288 129t-100 350v555h180v-494q0 -211 65 -298t184 -87t184 84t65 252v543zM768 1128q-46 0 -80 34t-33 80q-1 46 33 79t80 33t80 -33t33 -79q1 -46 -33 -80t-80 -34zM420 1128q-46 0 -80 34t-33 80
q-1 46 33 79t80 33t79 -33t33 -79t-33 -80t-79 -34z" />
    <glyph glyph-name="yacute" unicode="&#xfd;" horiz-adv-x="1208" 
d="M336 -420q-40 0 -100 21t-82 49l79 125q55 -39 108 -39t80 12q59 25 107 168l31 84h-84l-373 1024h187l309 -848h23l301 848h184l-377 -1063q-46 -138 -73 -190q-94 -182 -272 -191h-48zM846 1393l-213 -256h-125l119 256h219z" />
    <glyph glyph-name="thorn" unicode="&#xfe;" horiz-adv-x="1243" 
d="M940 512q0 158 -92 256t-215 98q-88 0 -162 -52q-133 -94 -133 -302t133 -302q74 -53 162 -52q123 0 215 98t92 256zM662 1034q182 0 320 -149t138 -373t-138 -373t-334 -149q-197 0 -310 164v-564h-174v1864h174v-539h33q109 119 291 119z" />
    <glyph glyph-name="ydieresis" unicode="&#xff;" horiz-adv-x="1208" 
d="M336 -420q-40 0 -100 21t-82 49l79 125q55 -39 108 -39t80 12q59 25 107 168l31 84h-84l-373 1024h187l309 -848h23l301 848h184l-377 -1063q-46 -138 -73 -190q-94 -182 -272 -191h-48zM772 1128q-46 0 -80 34t-33 80q-1 46 33 79t80 33t80 -33t33 -79q1 -46 -33 -80
t-80 -34zM424 1128q-46 0 -80 34t-33 80q-1 46 33 79t80 33t80 -33t33 -79q1 -46 -33 -80t-80 -34z" />
    <glyph glyph-name="Ldot" unicode="&#x13f;" horiz-adv-x="1210" 
d="M748 618q-54 0 -94 39t-40 93t39 93q39 38 94 38t93 -38q38 -39 39 -93q-1 -54 -39 -93t-92 -39zM352 180h735v-180h-923v1434h188v-1254z" />
    <glyph glyph-name="ldot" unicode="&#x140;" horiz-adv-x="505" 
d="M605 881q55 0 93 -38q38 -39 39 -93q-1 -54 -39 -93t-92 -39t-94 39q-39 39 -39 93q1 54 39 93q38 38 93 38zM164 0v1454h178v-1454h-178z" />
    <glyph glyph-name="OE" unicode="&#x152;" horiz-adv-x="2418" 
d="M825 170q223 0 365 154t141 392t-143 393t-364 155t-365 -155q-142 -155 -142 -392q1 -237 143 -392t365 -155zM1522 180h733v-180h-924v225q-95 -111 -226 -173t-275 -62t-274 55q-128 55 -224 151t-152 231q-57 136 -57 290q0 155 57 291q56 136 152 231t224 150
t272 55t277 -62q132 -62 226 -176v228h903v-179h-712v-440h651v-178h-651v-457z" />
    <glyph glyph-name="oe" unicode="&#x153;" horiz-adv-x="2000" 
d="M614 158q138 0 225 100t87 254q0 152 -88 253t-224 101q-137 0 -224 -101t-87 -253t87 -253q86 -101 224 -101zM1408 883q-114 -1 -193 -73q-80 -72 -105 -196h580q-20 121 -94 195t-188 74zM1396 1034q110 0 195 -36t152 -102q67 -68 103 -180t30 -251h-774
q12 -143 96 -226t215 -83q172 0 252 131h188q-58 -137 -178 -217q-119 -80 -251 -80t-238 58t-172 163q-69 -103 -175 -162q-105 -59 -229 -59t-236 66t-182 188q-70 121 -69 268q-1 147 69 268q70 122 182 188t236 66t227 -59q104 -59 169 -162q67 105 174 163
q106 58 216 58z" />
    <glyph glyph-name="Ydieresis" unicode="&#x178;" horiz-adv-x="1337" 
d="M764 0h-191v719l-491 715h225l346 -521h29l346 521h227l-491 -715v-719zM908 1534q-52 0 -89 37t-37 90t37 89t90 36t89 -36t36 -88q0 -54 -36 -91q-38 -37 -90 -37zM418 1534q-52 0 -90 37t-37 90q0 53 37 89t90 36t89 -36t36 -88q-1 -54 -37 -91t-88 -37z" />
    <glyph glyph-name="circumflex" unicode="&#x2c6;" horiz-adv-x="903" 
d="M573 1139l-108 184h-27l-108 -184h-166l203 315h170l202 -315h-166z" />
    <glyph glyph-name="tilde" unicode="&#x2dc;" horiz-adv-x="1003" 
d="M840 1300q-10 -28 -36 -66t-53 -62t-72 -38q-45 -16 -93 -7t-110 47t-89 42q-75 9 -115 -71l-108 47q9 25 37 64q27 39 55 63t72 40q44 15 90 7t108 -46t94 -42t61 14q28 18 39 38l11 20z" />
    <glyph glyph-name="endash" unicode="&#x2013;" horiz-adv-x="1136" 
d="M123 715h891v-156h-891v156z" />
    <glyph glyph-name="emdash" unicode="&#x2014;" horiz-adv-x="1802" 
d="M1679 715v-156h-1556v156h1556z" />
    <glyph glyph-name="quoteleft" unicode="&#x2018;" horiz-adv-x="473" 
d="M236 1026q-52 0 -82 42t-31 105q0 115 55 191t94 104l17 13l51 -56q-71 -64 -92 -174q42 -3 72 -35t30 -80q0 -46 -32 -78q-30 -32 -82 -32z" />
    <glyph glyph-name="quoteright" unicode="&#x2019;" horiz-adv-x="473" 
d="M238 1434q52 0 82 -42t30 -105q0 -115 -55 -191t-94 -104l-17 -13l-51 55q71 64 92 174q-43 3 -73 36q-30 34 -29 80q-1 46 31 78t84 32z" />
    <glyph glyph-name="quotesinglbase" unicode="&#x201a;" horiz-adv-x="473" 
d="M238 219q52 -1 82 -43t30 -104q0 -115 -54 -190t-95 -106l-17 -12l-51 56q71 64 92 174q-43 4 -73 36t-29 78q-1 46 31 79q32 32 84 32z" />
    <glyph glyph-name="quotedblleft" unicode="&#x201c;" horiz-adv-x="780" 
d="M542 1026q-52 0 -82 42t-30 105q0 115 55 191t94 104l17 13l51 -56q-71 -64 -92 -174q43 -3 73 -35t29 -80q1 -46 -31 -78t-84 -32zM236 1026q-52 0 -82 42t-31 105q0 115 55 191t94 104l17 13l51 -56q-71 -64 -92 -174q42 -3 72 -35t30 -80q0 -46 -32 -78
q-30 -32 -82 -32z" />
    <glyph glyph-name="quotedblright" unicode="&#x201d;" horiz-adv-x="780" 
d="M545 1479q52 -1 82 -43t30 -104q0 -115 -55 -191t-93 -105l-17 -12l-52 55q71 64 92 174q-42 3 -72 36t-30 79t32 79q32 32 83 32zM238 1479q52 -1 82 -43t30 -104q0 -115 -54 -190t-95 -106l-17 -12l-51 55q71 64 92 174q-43 3 -73 36t-29 79q-1 46 31 79q32 32 84 32z
" />
    <glyph glyph-name="quotedblbase" unicode="&#x201e;" horiz-adv-x="780" 
d="M545 219q52 -1 82 -43t30 -104q0 -115 -55 -191t-93 -105l-17 -12l-52 56q71 64 92 174q-42 4 -72 36t-30 78t32 79q32 32 83 32zM238 219q52 -1 82 -43t30 -104q0 -115 -54 -190t-95 -106l-17 -12l-51 56q71 64 92 174q-43 4 -73 36t-29 78q-1 46 31 79q32 32 84 32z
" />
    <glyph glyph-name="bullet" unicode="&#x2022;" horiz-adv-x="491" 
d="M246 514q-51 0 -87 36t-36 88t36 86q36 36 87 36t87 -36t36 -86q0 -52 -36 -88t-87 -36z" />
    <glyph glyph-name="ellipsis" unicode="&#x2026;" horiz-adv-x="1720" 
d="M1475 -10q-51 0 -87 36t-36 88t36 86q36 36 87 36t87 -36t35 -86q1 -52 -35 -88t-87 -36zM860 -10q-51 0 -87 36t-36 88t36 86q36 36 87 36t87 -36t36 -86q0 -52 -36 -88t-87 -36zM246 -10q-51 0 -87 36t-36 88t36 86q36 36 87 36t87 -36t36 -86q0 -52 -36 -88t-87 -36z
" />
    <glyph glyph-name="guilsinglleft" unicode="&#x2039;" horiz-adv-x="780" 
d="M453 199l-330 413l330 414h204l-333 -414l333 -413h-204z" />
    <glyph glyph-name="guilsinglright" unicode="&#x203a;" horiz-adv-x="780" 
d="M328 199h-205l334 413l-334 414h205l329 -414z" />
    <glyph glyph-name="fraction" unicode="&#x2044;" horiz-adv-x="530" 
d="M858 1311l-1020 -1311h-166l1020 1311h166z" />
    <glyph glyph-name="uni2070" unicode="&#x2070;" horiz-adv-x="778" 
d="M390 817q60 0 101 39q72 68 72 189q1 121 -45 193t-128 71q-82 0 -128 -72t-45 -154t17 -135t56 -92t100 -39zM390 688q-130 0 -219 105t-89 262q0 283 191 363q54 22 133 22q78 0 150 -58q140 -112 140 -327q0 -157 -88 -262t-218 -105z" />
    <glyph glyph-name="uni2074" unicode="&#x2074;" horiz-adv-x="774" 
d="M434 983v268h-26l-156 -268h182zM561 983h121v-121h-121v-166h-127v166h-342v96l285 476h184v-451z" />
    <glyph glyph-name="uni2075" unicode="&#x2075;" horiz-adv-x="776" 
d="M429 1204q93 0 169 -69t76 -184t-78 -188t-201 -73q-121 0 -207 78t-86 168h140q8 -55 54 -85t102 -30t97 38q42 38 42 96q-1 58 -41 91t-101 33q-95 0 -137 -75l-123 32l45 398h451v-136h-336l-21 -141q62 47 155 47z" />
    <glyph glyph-name="uni2076" unicode="&#x2076;" horiz-adv-x="741" 
d="M372 817q60 0 96 39t36 92t-36 90t-97 37t-97 -37t-36 -90t36 -92q38 -39 98 -39zM385 1198q102 0 178 -69t76 -179q-1 -110 -83 -184q-82 -76 -186 -76t-186 76t-82 180q0 116 74 228q74 113 164 220l33 40h153l-194 -248q16 12 53 12z" />
    <glyph glyph-name="uni2077" unicode="&#x2077;" horiz-adv-x="745" 
d="M102 1434h551v-74q-203 -188 -245 -389q-24 -112 -27 -275h-150q9 217 49 354t146 244h-324v140z" />
    <glyph glyph-name="uni2078" unicode="&#x2078;" horiz-adv-x="741" 
d="M369 809q59 0 94 34t35 75q0 42 -34 76t-95 34t-93 -34t-32 -76t33 -75q33 -34 92 -34zM372 1321q-46 -1 -72 -23t-26 -58t27 -58t68 -23q41 0 69 22q28 23 29 59q-1 36 -25 58t-70 23zM606 1241q0 -95 -90 -135v-10q59 -19 91 -72t32 -128q1 -74 -69 -140t-200 -66
t-200 66q-68 66 -68 140q0 161 121 200v10q-90 42 -90 136t69 146t169 52q99 0 167 -52t68 -147z" />
    <glyph glyph-name="uni2079" unicode="&#x2079;" horiz-adv-x="741" 
d="M412 1313q-60 0 -97 -39q-36 -39 -36 -92t36 -90t97 -37t97 37t36 90q-1 53 -37 92t-96 39zM397 932q-102 0 -178 69t-76 179t83 184q82 76 186 76t186 -76t82 -180q0 -115 -72 -227t-165 -221l-33 -40h-154l195 248q-17 -12 -54 -12z" />
    <glyph glyph-name="uni2080" unicode="&#x2080;" horiz-adv-x="778" 
d="M390 -84q60 0 101 39q72 68 72 189q1 120 -45 192t-128 72t-128 -72t-45 -154t17 -135t56 -92t100 -39zM390 -213q-130 0 -219 105t-89 262q0 282 191 362q54 22 133 23q78 1 150 -57q140 -112 140 -328q0 -157 -88 -262t-218 -105z" />
    <glyph glyph-name="uni2081" unicode="&#x2081;" horiz-adv-x="522" 
d="M274 -205v477h-182v117h113q34 0 56 23t22 61v59h135l2 -737h-146z" />
    <glyph glyph-name="uni2082" unicode="&#x2082;" horiz-adv-x="741" 
d="M262 -68h371v-135h-531v74q0 190 222 301q18 9 50 23q60 26 92 48t32 67q0 44 -32 72t-88 28q-54 0 -90 -39t-36 -103h-143q0 97 67 183t187 86q120 1 198 -61t78 -157q0 -120 -121 -184q-19 -10 -92 -45q-164 -78 -164 -158z" />
    <glyph glyph-name="uni2083" unicode="&#x2083;" horiz-adv-x="743" 
d="M379 -84q121 0 121 107q0 40 -34 69t-110 29h-53v117h47q127 0 127 98q0 30 -30 54t-78 24t-75 -24t-32 -58h-129q0 89 70 148t170 59q101 0 171 -55t70 -130q0 -110 -94 -161v-13q57 -18 89 -64t32 -102q1 -98 -71 -162t-197 -63q-125 -1 -198 73t-73 189h138
q4 -59 38 -97t101 -38z" />
    <glyph glyph-name="uni2084" unicode="&#x2084;" horiz-adv-x="774" 
d="M434 82v268h-26l-156 -268h182zM561 82h121v-121h-121v-166h-127v166h-342v96l285 475h184v-450z" />
    <glyph glyph-name="uni2085" unicode="&#x2085;" horiz-adv-x="776" 
d="M395 178q-96 0 -137 -76l-123 33l45 397h451v-135h-336l-21 -141q62 47 155 47t169 -69t76 -184t-78 -188t-201 -73q-121 1 -207 79t-86 167h140q8 -55 54 -85t102 -30t97 38q42 38 42 96q-1 58 -41 91t-101 33z" />
    <glyph glyph-name="uni2086" unicode="&#x2086;" horiz-adv-x="741" 
d="M372 -84q60 0 96 39t36 92t-36 90t-97 37t-97 -37t-36 -90t36 -92q38 -39 98 -39zM385 297q102 0 178 -69q76 -68 76 -178q-1 -110 -83 -186t-186 -75q-104 -1 -186 75t-82 181q0 116 72 226t166 221l33 40h153l-194 -247q16 12 53 12z" />
    <glyph glyph-name="uni2087" unicode="&#x2087;" horiz-adv-x="745" 
d="M102 532h551v-73q-203 -188 -245 -389q-24 -112 -27 -275h-150q9 217 49 354t146 244h-324v139z" />
    <glyph glyph-name="uni2088" unicode="&#x2088;" horiz-adv-x="741" 
d="M369 -92q59 0 94 34t35 74q0 41 -34 76t-95 35q-61 -1 -93 -35t-32 -76t33 -74q33 -34 92 -34zM372 420q-46 0 -72 -22t-26 -59t27 -59t68 -22t69 22t29 58q-1 36 -25 60q-24 22 -70 22zM606 340q0 -95 -90 -135v-10q59 -19 91 -72t32 -128q1 -75 -69 -141t-200 -65
q-130 -1 -200 65q-68 66 -68 142q0 161 121 199v10q-90 41 -90 135t69 147q69 52 169 52q99 0 167 -52t68 -147z" />
    <glyph glyph-name="uni2089" unicode="&#x2089;" horiz-adv-x="741" 
d="M412 412q-60 0 -97 -39q-36 -39 -36 -92t36 -90t97 -37t97 37t36 90q-1 53 -37 92t-96 39zM397 31q-102 0 -178 69q-76 68 -76 178t83 186q82 76 186 75q104 1 186 -75t82 -181q0 -117 -69 -223q-69 -105 -168 -226l-33 -39h-154l195 248q-17 -12 -54 -12z" />
    <glyph glyph-name="Euro" unicode="&#x20ac;" horiz-adv-x="1351" 
d="M852 160q112 0 201 41q88 41 133 86l63 -150q-77 -65 -179 -106t-208 -41q-188 0 -353 126t-228 330h-158v146h129q-2 20 -2 56t4 85h-131v146h164q67 198 229 320t346 122q106 0 208 -41t179 -106l-63 -150q-45 45 -133 86t-199 41q-110 0 -212 -73t-155 -199h629
l-59 -146h-608q-5 -63 -5 -77t5 -64h565l-62 -146h-471q51 -130 155 -208t216 -78z" />
    <glyph glyph-name="trademark" unicode="&#x2122;" horiz-adv-x="1509" 
d="M1427 1434v-717h-120v534h-11l-166 -483h-143l-166 483h-8v-534h-123v717h184l179 -514h12l178 514h184zM82 1315v119h504v-119h-189v-598h-127v598h-188z" />
    <glyph glyph-name="uni25FC" unicode="&#x25fc;" horiz-adv-x="1024" 
d="M0 1024h1024v-1024h-1024v1024z" />
    <glyph glyph-name="uniFB03" unicode="&#xfb03;" horiz-adv-x="1832" 
d="M1667 1024v-1024h-180v881h-451v-881h-172v881h-438v-881h-172v881h-152v143h152v100q0 144 72 232t190 88t193 -66l-78 -127q-36 29 -82 29q-123 0 -123 -172v-84h438v100q0 144 72 232t190 88q117 0 193 -66l-78 -127q-36 29 -82 29q-123 0 -123 -172v-84h631z
M1578 1464q56 0 94 -38t38 -92t-38 -94q-38 -38 -94 -38q-54 0 -93 38t-39 94q0 54 38 92t94 38z" />
    <glyph glyph-name="uniFB04" unicode="&#xfb04;" horiz-adv-x="1849" 
d="M1686 0h-179v1208q-19 28 -71 53t-157 25t-174 -54t-69 -177v-31h246v-143h-246v-881h-172v881h-438v-881h-172v881h-152v143h152v100q0 144 72 232t190 88t193 -66l-78 -127q-36 29 -82 29q-123 0 -123 -172v-84h438v47q0 173 109 273t290 100t280 -58t129 -98l14 -18
v-1270z" />
    <glyph glyph-name="a.isol" horiz-adv-x="1187" 
d="M293 283q0 -89 85 -123q84 -34 192 0t154 126q22 45 24 97v106q-236 -23 -324 -58t-115 -83q-16 -28 -16 -65zM975 135q49 0 65 66l107 -56q-2 -7 -5 -17q-12 -43 -60 -90q-48 -48 -134 -48q-132 0 -180 133q-100 -133 -299 -133q-154 0 -250 83t-96 208t74 197
q114 109 401 148q58 8 98 12t54 7q-6 166 -116 210q-42 17 -91 17q-48 0 -79 -7q-32 -7 -52 -18q-68 -36 -86 -102h-176q14 111 115 200t273 89t272 -102t101 -316v-354q0 -127 64 -127z" />
    <glyph glyph-name="aacute.isol" horiz-adv-x="1183" 
d="M293 283q0 -89 85 -123q84 -34 192 0t154 126q22 45 24 97v106q-236 -23 -324 -58t-115 -83q-16 -28 -16 -65zM975 135q49 0 65 66l107 -56q-2 -7 -5 -17q-12 -43 -60 -90q-48 -48 -134 -48q-132 0 -180 133q-100 -133 -299 -133q-154 0 -250 83t-96 208t74 197
q114 109 401 148q58 8 98 12t54 7q-6 166 -116 210q-42 17 -91 17q-48 0 -79 -7q-32 -7 -52 -18q-68 -36 -86 -102h-176q14 111 115 200t273 89t272 -102t101 -316v-354q0 -127 64 -127zM801 1393l-213 -256h-125l119 256h219z" />
    <glyph glyph-name="acircumflex.isol" horiz-adv-x="1183" 
d="M293 283q0 -89 85 -123q84 -34 192 0t154 126q22 45 24 97v106q-236 -23 -324 -58t-115 -83q-16 -28 -16 -65zM975 135q49 0 65 66l107 -56q-2 -7 -5 -17q-12 -43 -60 -90q-48 -48 -134 -48q-132 0 -180 133q-100 -133 -299 -133q-154 0 -250 83t-96 208t74 197
q114 109 401 148q58 8 98 12t54 7q-6 166 -116 210q-42 17 -91 17q-48 0 -79 -7q-32 -7 -52 -18q-68 -36 -86 -102h-176q14 111 115 200t273 89t272 -102t101 -316v-354q0 -127 64 -127zM524 1323l-108 -184h-166l203 315h170l202 -315h-166l-108 184h-27z" />
    <glyph glyph-name="adieresis.isol" horiz-adv-x="1183" 
d="M293 283q0 -89 85 -123q84 -34 192 0t154 126q22 45 24 97v106q-236 -23 -324 -58t-115 -83q-16 -28 -16 -65zM975 135q49 0 65 66l107 -56q-2 -7 -5 -17q-12 -43 -60 -90q-48 -48 -134 -48q-132 0 -180 133q-100 -133 -299 -133q-154 0 -250 83t-96 208t74 197
q114 109 401 148q58 8 98 12t54 7q-6 166 -116 210q-42 17 -91 17q-48 0 -79 -7q-32 -7 -52 -18q-68 -36 -86 -102h-176q14 111 115 200t273 89t272 -102t101 -316v-354q0 -127 64 -127zM711 1128q-45 0 -79 34t-34 80t34 79t79 33q46 0 79 -33t33 -79t-33 -80t-79 -34z
M362 1128q-46 0 -79 34t-33 80t33 79t79 33t80 -33t33 -79q1 -46 -33 -80t-80 -34z" />
    <glyph glyph-name="agrave.isol" horiz-adv-x="1183" 
d="M293 283q0 -89 85 -123q84 -34 192 0t154 126q22 45 24 97v106q-236 -23 -324 -58t-115 -83q-16 -28 -16 -65zM975 135q49 0 65 66l107 -56q-2 -7 -5 -17q-12 -43 -60 -90q-48 -48 -134 -48q-132 0 -180 133q-100 -133 -299 -133q-154 0 -250 83t-96 208t74 197
q114 109 401 148q58 8 98 12t54 7q-6 166 -116 210q-42 17 -91 17q-48 0 -79 -7q-32 -7 -52 -18q-68 -36 -86 -102h-176q14 111 115 200t273 89t272 -102t101 -316v-354q0 -127 64 -127zM645 1137h-125l-213 256h219z" />
    <glyph glyph-name="aring.isol" horiz-adv-x="1183" 
d="M293 283q0 -89 85 -123q84 -34 192 0t154 126q22 45 24 97v106q-236 -23 -324 -58t-115 -83q-16 -28 -16 -65zM975 135q49 0 65 66l107 -56q-2 -7 -5 -17q-12 -43 -60 -90q-48 -48 -134 -48q-132 0 -180 133q-100 -133 -299 -133q-154 0 -250 83t-96 208t74 197
q114 109 401 148q58 8 98 12t54 7q-6 166 -116 210q-42 17 -91 17q-48 0 -79 -7q-32 -7 -52 -18q-68 -36 -86 -102h-176q14 111 115 200t273 89t272 -102t101 -316v-354q0 -127 64 -127zM558 1370q-32 0 -54 -24t-23 -56q1 -32 23 -56t54 -24t56 24q23 24 23 56t-23 56
q-24 24 -56 24zM558 1096q-80 0 -138 57t-58 137t58 138t138 57q80 0 140 -58q58 -58 58 -137q0 -78 -58 -136t-140 -58z" />
    <glyph glyph-name="atilde.isol" horiz-adv-x="1183" 
d="M293 283q0 -89 85 -123q84 -34 192 0t154 126q22 45 24 97v106q-236 -23 -324 -58t-115 -83q-16 -28 -16 -65zM975 135q49 0 65 66l107 -56q-2 -7 -5 -17q-12 -43 -60 -90q-48 -48 -134 -48q-132 0 -180 133q-100 -133 -299 -133q-154 0 -250 83t-96 208t74 197
q114 109 401 148q58 8 98 12t54 7q-6 166 -116 210q-42 17 -91 17q-48 0 -79 -7q-32 -7 -52 -18q-68 -36 -86 -102h-176q14 111 115 200t273 89t272 -102t101 -316v-354q0 -127 64 -127zM506 1174q-62 38 -88 42q-75 9 -115 -71l-108 47q9 25 37 64q26 39 54 63t72 40
q44 15 92 7q46 -8 108 -46t94 -42t60 14t39 38l11 20l108 -50q-10 -28 -36 -66t-53 -62t-72 -38q-45 -16 -93 -7t-110 47z" />
    <glyph glyph-name="a.ss02" horiz-adv-x="1243" 
d="M303 512q0 -158 93 -256t209 -98t208 86t92 268q-1 181 -93 268q-92 86 -208 86t-208 -98q-93 -98 -93 -256zM905 1024h174v-1024h-118l-37 125h-35q-109 -135 -300 -135t-329 148t-137 374q-1 226 137 374t336 148t309 -160v150z" />
    <glyph glyph-name="aacute.ss02" horiz-adv-x="1243" 
d="M303 512q0 -158 93 -256t209 -98t208 86t92 268q-1 181 -93 268q-92 86 -208 86t-208 -98q-93 -98 -93 -256zM905 1024h174v-1024h-118l-37 125h-35q-109 -135 -300 -135t-329 148t-137 374q-1 226 137 374t336 148t309 -160v150zM903 1393l-213 -256h-125l119 256h219z
" />
    <glyph glyph-name="acircumflex.ss02" horiz-adv-x="1243" 
d="M303 512q0 -158 93 -256t209 -98t208 86t92 268q-1 181 -93 268q-92 86 -208 86t-208 -98q-93 -98 -93 -256zM905 1024h174v-1024h-118l-37 125h-35q-109 -135 -300 -135t-329 148t-137 374q-1 226 137 374t336 148t309 -160v150zM606 1323l-108 -184h-166l203 315h170
l202 -315h-166l-108 184h-27z" />
    <glyph glyph-name="adieresis.ss02" horiz-adv-x="1243" 
d="M303 512q0 -158 93 -256t209 -98t208 86t92 268q-1 181 -93 268q-92 86 -208 86t-208 -98q-93 -98 -93 -256zM905 1024h174v-1024h-118l-37 125h-35q-109 -135 -300 -135t-329 148t-137 374q-1 226 137 374t336 148t309 -160v150zM801 1128q-45 0 -79 34t-34 80t34 79
t79 33q46 0 79 -33t33 -79t-33 -80t-79 -34zM453 1128q-45 0 -79 34t-34 80t34 79t79 33q46 0 79 -33t33 -79t-33 -80t-79 -34z" />
    <glyph glyph-name="agrave.ss02" horiz-adv-x="1243" 
d="M303 512q0 -158 93 -256t209 -98t208 86t92 268q-1 181 -93 268q-92 86 -208 86t-208 -98q-93 -98 -93 -256zM905 1024h174v-1024h-118l-37 125h-35q-109 -135 -300 -135t-329 148t-137 374q-1 226 137 374t336 148t309 -160v150zM743 1137h-125l-212 256h219z" />
    <glyph glyph-name="aring.ss02" horiz-adv-x="1243" 
d="M303 512q0 -158 93 -256t209 -98t208 86t92 268q-1 181 -93 268q-92 86 -208 86t-208 -98q-93 -98 -93 -256zM905 1024h174v-1024h-118l-37 125h-35q-109 -135 -300 -135t-329 148t-137 374q-1 226 137 374t336 148t309 -160v150zM634 1370q-32 0 -54 -24t-23 -56
q1 -32 23 -56t54 -24t56 24q23 24 23 56t-23 56q-24 24 -56 24zM634 1096q-80 0 -138 57t-58 137t58 138t138 57q80 0 139 -58q58 -58 58 -137q0 -78 -58 -136t-139 -58z" />
    <glyph glyph-name="atilde.ss02" horiz-adv-x="1243" 
d="M303 512q0 -158 93 -256t209 -98t208 86t92 268q-1 181 -93 268q-92 86 -208 86t-208 -98q-93 -98 -93 -256zM905 1024h174v-1024h-118l-37 125h-35q-109 -135 -300 -135t-329 148t-137 374q-1 226 137 374t336 148t309 -160v150zM574 1174q-62 38 -89 42q-74 9 -114 -71
l-109 47q9 25 37 64q27 39 55 63t72 40q44 15 90 7t109 -46t95 -42t60 14t38 38l11 20l109 -50q-10 -28 -36 -66t-53 -62t-72 -38q-45 -16 -93 -7t-110 47z" />
    <glyph glyph-name="g.aalt" horiz-adv-x="1247" 
d="M614 158q88 0 162 52q133 94 133 302t-133 302q-74 52 -162 52q-122 0 -214 -98t-93 -256q1 -158 93 -256t214 -98zM1083 1024v-983q0 -219 -156 -355q-122 -106 -333 -106q-112 0 -206 32t-150 84q-116 105 -115 220h170q7 -23 32 -56q89 -116 259 -116q135 0 232 73
t97 224v115q-112 -166 -311 -166t-336 144q-64 68 -102 166t-37 212q-1 114 37 212t102 166q137 144 327 144q189 0 302 -139h31l39 129h118z" />
    <glyph glyph-name="i.aalt" horiz-adv-x="550" 
d="M385 1024v-1024h-180v1024h180zM296 1202q-54 0 -93 38t-39 94q0 54 38 92t94 38t94 -38t38 -92t-38 -94q-40 -38 -94 -38z" />
    <glyph glyph-name="y.aalt" horiz-adv-x="1206" 
d="M883 1024h180v-983q1 -229 -139 -356q-115 -105 -328 -105q-116 0 -206 32t-142 84q-105 104 -105 220h170q3 -20 24 -55q22 -34 49 -57q26 -24 80 -42t122 -18q140 0 222 74t83 223v86q-24 -41 -74 -74q-95 -63 -235 -63q-204 0 -302 127t-98 352v555h181v-494
q1 -208 53 -292t190 -84q275 0 275 286v584z" />
    <glyph glyph-name="yacute.aalt" horiz-adv-x="1206" 
d="M883 1024h180v-983q1 -229 -139 -356q-115 -105 -328 -105q-116 0 -206 32t-142 84q-105 104 -105 220h170q3 -20 24 -55q22 -34 49 -57q26 -24 80 -42t122 -18q140 0 222 74t83 223v86q-24 -41 -74 -74q-95 -63 -235 -63q-204 0 -302 127t-98 352v555h181v-494
q1 -208 53 -292t190 -84q275 0 275 286v584zM872 1393l-213 -256h-124l118 256h219z" />
    <glyph glyph-name="ydieresis.aalt" horiz-adv-x="1206" 
d="M883 1024h180v-983q1 -229 -139 -356q-115 -105 -328 -105q-116 0 -206 32t-142 84q-105 104 -105 220h170q3 -20 24 -55q22 -34 49 -57q26 -24 80 -42t122 -18q140 0 222 74t83 223v86q-24 -41 -74 -74q-95 -63 -235 -63q-204 0 -302 127t-98 352v555h181v-494
q1 -208 53 -292t190 -84q275 0 275 286v584zM797 1128q-45 0 -79 34t-34 80t34 79t79 33q46 0 79 -33t33 -79t-33 -80t-79 -34zM449 1128q-45 0 -79 34t-34 80t34 79t79 33q46 0 79 -33t33 -79t-33 -80t-79 -34z" />
    <glyph glyph-name="zero.case" horiz-adv-x="1277" 
d="M640 168q104 0 181 82q148 158 148 465q0 217 -83 379q-88 173 -259 172q-91 0 -167 -82q-148 -158 -149 -468q1 -310 149 -467q76 -81 180 -81zM641 -10q-159 0 -278 95t-179 259t-61 375q1 211 61 374t178 257t277 94t277 -94t178 -258t61 -374q0 -212 -60 -376
q-59 -164 -177 -258t-277 -94z" />
    <glyph glyph-name="one.case" horiz-adv-x="770" 
d="M414 0v1057h-281v149h180q49 0 81 32t32 83v113h168l2 -1434h-182z" />
    <glyph glyph-name="two.case" horiz-adv-x="1208" 
d="M362 174h672v-174h-870v104q0 300 284 520q50 40 90 66t65 44t38 26t38 26t39 30t36 32q21 20 34 35q70 86 70 172q0 85 -64 149t-181 64t-191 -76t-74 -168h-182q0 122 70 228q127 192 376 192q188 0 310 -106t122 -281q0 -135 -71 -229q-71 -95 -169 -167
q-22 -15 -64 -47q-43 -32 -80 -60q-38 -28 -64 -48t-72 -60q-162 -138 -162 -272z" />
    <glyph glyph-name="three.case" horiz-adv-x="1171" 
d="M1018 414q0 -116 -57 -212t-161 -154t-235 -58q-190 0 -321 112t-131 277h176q5 -85 83 -151t191 -66q112 0 189 70t77 192t-76 194t-204 72h-68v162h60q100 0 176 58t76 152q-1 92 -59 152t-151 60t-157 -48t-72 -130h-166q0 160 114 254t282 94q169 0 277 -99t108 -262
q0 -107 -45 -183t-113 -116v-18q97 -44 152 -140t55 -212z" />
    <glyph glyph-name="four.case" horiz-adv-x="1208" 
d="M690 489v744h-20l-367 -744h387zM866 489h219v-161h-219v-328h-176v328h-598v125l498 981h276v-945z" />
    <glyph glyph-name="five.case" horiz-adv-x="1200" 
d="M597 975q143 0 245 -72t154 -185t51 -245q0 -211 -125 -347t-324 -136q-106 0 -196 38t-147 100q-122 131 -122 271h178q8 -83 85 -160q78 -77 204 -77t198 89t72 217t-59 226q-67 111 -234 111q-93 -1 -161 -55t-90 -121l-146 47l62 758h716v-172h-563l-33 -363
q92 76 235 76z" />
    <glyph glyph-name="six.case" horiz-adv-x="1167" 
d="M573 162q115 0 191 84t76 210q0 127 -74 208t-189 81q-115 1 -193 -81t-79 -209q1 -127 77 -210t191 -83zM596 918q82 0 158 -34t136 -94t97 -148t37 -202t-62 -222t-168 -168t-231 -60q-190 0 -315 134t-125 312q0 179 74 330q40 81 202 345q163 263 199 323h215
l-350 -547q51 31 133 31z" />
    <glyph glyph-name="seven.case" horiz-adv-x="1075" 
d="M102 1434h871v-105q-421 -385 -496 -1039q-15 -130 -22 -290h-183q14 454 124 776t294 486h-588v172z" />
    <glyph glyph-name="eight.case" horiz-adv-x="1232" 
d="M612 156q126 0 204 80q77 80 77 180t-79 178t-201 78q-121 0 -197 -79t-76 -179t73 -180q73 -78 199 -78zM616 1286q-94 0 -158 -60t-63 -154q0 -94 63 -157t156 -63q92 0 158 64t66 156q0 94 -64 154t-158 60zM1079 431q0 -196 -126 -318q-126 -123 -337 -123
q-210 0 -336 121t-126 299q0 127 64 224t159 130v18q-74 36 -119 120t-45 179q0 151 117 257t286 106q168 0 286 -106t118 -257q0 -92 -45 -177t-119 -122v-20q98 -31 160 -128t63 -203z" />
    <glyph glyph-name="nine.case" 
d="M573 1262q-115 0 -191 -84t-75 -210q0 -126 74 -208t189 -82q116 0 194 82t78 209t-77 210t-192 83zM552 506q-82 0 -158 34t-137 94q-60 60 -97 148t-37 202q1 114 63 222t168 168t230 60q190 0 315 -134t125 -313q0 -180 -74 -330q-43 -88 -204 -347t-197 -320h-215
l350 547q-50 -31 -132 -31z" />
    <glyph glyph-name="zero.oldstyle" horiz-adv-x="1196" 
d="M600 152q142 0 222 112t79 296q0 184 -80 300t-222 115q-142 0 -222 -115t-80 -299q0 -185 80 -297q81 -112 223 -112zM600 -10q-208 0 -342 158t-135 415q0 258 134 416t341 158q207 -1 341 -159t134 -416t-133 -416q-132 -156 -340 -156z" />
    <glyph glyph-name="one.oldstyle" horiz-adv-x="688" 
d="M362 0v784h-229v136h129q50 0 82 32t31 82v92h157l3 -1126h-173z" />
    <glyph glyph-name="two.oldstyle" horiz-adv-x="1083" 
d="M322 158h610v-158h-789v104q0 261 227 390q44 24 98 48t76 34q24 10 62 30q38 18 58 31q61 41 84 79q24 37 24 85q0 79 -60 129t-160 49q-100 0 -168 -64t-67 -172h-172q0 137 96 259q47 60 127 98t181 37q165 0 278 -93t113 -234t-95 -225t-237 -143q-141 -59 -170 -80
q-72 -54 -94 -99t-22 -105z" />
    <glyph glyph-name="three.oldstyle" horiz-adv-x="1040" 
d="M918 319q0 -141 -107 -235t-287 -94t-290 110q-111 110 -111 267h160q10 -84 68 -154t169 -70q112 1 170 51t58 133t-60 138t-190 55h-47v144h38q111 0 171 46t59 117q-1 70 -53 112t-144 42q-92 -1 -146 -45q-56 -44 -63 -102h-155q0 120 107 212t258 91q151 1 255 -79
t103 -212q0 -156 -150 -236v-16q83 -30 135 -104t52 -171z" />
    <glyph glyph-name="four.oldstyle" horiz-adv-x="1112" 
d="M649 387v569h-14l-332 -569h346zM807 387h203v-149h-203v-238h-158v238h-547v112l465 776h240v-739z" />
    <glyph glyph-name="five.oldstyle" horiz-adv-x="1112" 
d="M582 758q158 0 272 -104t115 -275q-1 -169 -117 -279t-297 -110q-97 0 -180 34t-137 86q-115 114 -115 248h164q7 -91 83 -153t186 -62q110 -1 180 67q71 68 71 170q-1 102 -67 168t-166 66t-165 -39q-64 -39 -94 -92l-145 47l63 596h674v-157h-532l-35 -291
q84 80 242 80z" />
    <glyph glyph-name="six.oldstyle" horiz-adv-x="1019" 
d="M500 143q104 0 168 61q64 60 65 166q0 106 -65 168t-168 62q-102 0 -168 -62t-66 -167t66 -167q64 -62 168 -61zM514 745q84 -1 148 -25q66 -24 119 -69t85 -117t31 -176q0 -104 -57 -193q-112 -175 -338 -175q-106 0 -196 45t-147 135t-57 192q0 104 35 188
q59 141 327 510l48 66h190l-317 -417q45 36 129 36z" />
    <glyph glyph-name="seven.oldstyle" horiz-adv-x="993" 
d="M102 1126h789v-104q-234 -216 -324 -428q-61 -143 -81 -276q-21 -132 -31 -318h-168q26 675 362 971h-547v155z" />
    <glyph glyph-name="eight.oldstyle" horiz-adv-x="1081" 
d="M544 127q110 0 170 60q60 61 60 143t-64 140t-172 58q-109 0 -170 -58t-61 -141t63 -143t174 -59zM542 1001q-88 1 -140 -43t-52 -120t55 -120t133 -44t136 44t57 120q0 76 -51 120q-50 44 -138 43zM938 322q0 -138 -105 -235t-297 -97t-292 98q-101 98 -101 234
q1 101 55 179t146 107v15q-76 32 -116 92t-40 135q0 126 105 206t248 81q143 0 247 -80t105 -205q1 -76 -41 -136t-117 -93v-15q91 -29 147 -107t56 -179z" />
    <glyph glyph-name="nine.oldstyle" horiz-adv-x="1040" 
d="M520 983q-104 -1 -169 -61q-64 -60 -64 -166t65 -168t168 -62q102 0 168 62t66 168q0 105 -65 166t-169 61zM506 381q-157 0 -270 97t-113 276q0 119 57 208q112 175 338 175q106 0 196 -45q90 -44 147 -134t57 -194t-35 -187q-35 -84 -104 -191t-223 -320l-48 -66h-191
l318 418q-46 -37 -129 -37z" />
    <glyph glyph-name="zero.tnum" 
d="M560 156q100 0 174 68t114 180q39 112 39 270q0 157 -64 291l-442 -727q79 -82 179 -82zM570 1157q-102 -1 -174 -69q-144 -138 -144 -433q0 -180 59 -307l441 723q-80 86 -182 86zM564 1323q214 0 351 -185q138 -184 138 -482t-137 -482t-351 -184q-213 0 -347 184
t-134 482t133 483q133 184 347 184z" />
    <glyph glyph-name="one.tnum" 
d="M965 170v-170h-752v170h303v788h-250v146h150q50 0 81 32t31 83v92h168l2 -1141h267z" />
    <glyph glyph-name="two.tnum" 
d="M338 172h637v-172h-830v104q1 178 81 286q86 116 266 206q176 101 208 135q32 33 56 63q44 58 45 145q0 86 -59 147t-170 61t-176 -85q-66 -85 -66 -171h-183q-1 119 65 229q122 204 370 203q176 -1 290 -103t113 -278q1 -228 -229 -382q-36 -24 -66 -42q-29 -18 -32 -20
t-8 -5t-40 -25t-71 -46q-107 -72 -154 -128t-47 -122z" />
    <glyph glyph-name="three.tnum" horiz-adv-x="1128" 
d="M979 398q0 -92 -30 -163t-84 -125t-137 -88q-83 -32 -181 -32q-190 0 -308 110t-118 267h174q7 -81 72 -145t180 -64t179 70t65 164t-61 160t-183 66h-68v154h60q95 0 155 54t60 136q0 83 -54 137t-144 54q-90 -1 -148 -41t-68 -108h-170q0 138 113 228t273 91t267 -95
t107 -241q0 -87 -40 -158t-104 -110v-25q85 -34 139 -119t54 -177z" />
    <glyph glyph-name="four.tnum" 
d="M649 428v690h-18l-348 -690h366zM825 428h219v-162h-219v-266h-176v266h-577v125l477 922h276v-885z" />
    <glyph glyph-name="five.tnum" 
d="M580 874q194 0 312 -119t118 -326t-120 -323t-312 -116q-108 0 -194 38t-136 100q-104 127 -105 271h179q0 -84 70 -162q70 -79 186 -79t186 73t70 196t-66 207q-66 83 -207 83q-142 0 -218 -90q-17 -20 -28 -41l-145 47l61 680h717v-172h-569l-37 -336q84 69 238 69z
" />
    <glyph glyph-name="six.tnum" horiz-adv-x="1128" 
d="M580 158q110 0 180 70t69 184t-71 185t-178 71t-180 -71q-70 -71 -70 -185t70 -184t180 -70zM598 838q80 0 154 -30q72 -30 130 -84t92 -136q36 -82 36 -192t-60 -208t-158 -148q-97 -50 -197 -50q-189 0 -317 114t-128 314q0 112 58 236t376 659h215l-322 -506
q41 31 121 31z" />
    <glyph glyph-name="seven.tnum" 
d="M168 1313h829v-105q-313 -287 -409 -675q-57 -229 -68 -533h-182q20 618 256 975q66 99 141 166h-567v172z" />
    <glyph glyph-name="eight.tnum" 
d="M568 141q80 0 142 38q118 73 119 200q0 83 -65 159t-193 76q-127 0 -191 -76q-63 -76 -63 -146t26 -122q25 -52 85 -91q60 -38 140 -38zM573 1174q-90 0 -148 -52t-58 -138t62 -138t142 -53q81 0 145 53t64 139q0 85 -58 137t-149 52zM1016 375q0 -171 -123 -278
t-321 -107t-320 106q-121 106 -121 277q-1 127 67 217t167 121v16q-79 33 -127 107t-48 165q0 141 112 233t271 91q159 1 271 -91t112 -233q0 -91 -48 -165t-126 -107v-16q102 -31 168 -121t66 -215z" />
    <glyph glyph-name="nine.tnum" 
d="M556 1155q-110 0 -179 -70q-70 -70 -70 -184q1 -114 71 -185t179 -71t179 71t71 185q-1 114 -71 184t-180 70zM538 475q-80 1 -154 31q-72 30 -130 84t-92 134q-35 82 -35 193q1 111 61 209t157 147q97 50 197 50q189 0 317 -114t128 -314q0 -112 -58 -236t-376 -659
h-215l321 506q-41 -31 -121 -31z" />
    <glyph glyph-name="zero.dnom" horiz-adv-x="827" 
d="M415 131q83 1 127 71t44 188t-44 191q-44 72 -128 72t-128 -72t-44 -190t44 -189t129 -71zM416 -6q-138 0 -226 109t-88 290t87 291t225 111q138 -1 224 -111t87 -292t-85 -290t-224 -108z" />
    <glyph glyph-name="one.dnom" horiz-adv-x="532" 
d="M285 0v528h-183v115h113q34 1 56 23t22 57v65h135l2 -788h-145z" />
    <glyph glyph-name="two.dnom" horiz-adv-x="774" 
d="M262 135h391v-135h-551v74q0 162 167 272q25 16 50 30t52 31q27 16 39 23q12 8 32 22q76 51 76 116q0 38 -34 66t-96 28t-101 -38t-39 -104h-144q0 96 69 186q69 89 200 89q130 1 208 -63t78 -157t-55 -149t-95 -80q-39 -24 -103 -62t-104 -73t-40 -76z" />
    <glyph glyph-name="three.dnom" horiz-adv-x="763" 
d="M383 666q-110 0 -121 -82h-135q0 90 74 150q75 60 183 61t180 -55t71 -157q0 -101 -105 -155v-12q58 -18 95 -68t37 -117q0 -101 -76 -169t-203 -68q-125 0 -203 74t-78 188h138q4 -58 42 -96t103 -39q65 0 100 33t35 85q0 53 -38 85t-115 32h-54v117h47q76 -1 107 29
t31 74t-31 66q-31 24 -84 24z" />
    <glyph glyph-name="four.dnom" horiz-adv-x="839" 
d="M485 287v319h-18l-197 -319h215zM616 287h121v-121h-121v-166h-131v166h-383v96l326 526h188v-501z" />
    <glyph glyph-name="five.dnom" horiz-adv-x="796" 
d="M436 545q98 -1 178 -77t80 -196t-82 -196t-211 -76q-131 0 -215 80t-84 176h140q8 -59 55 -92t107 -33q60 1 107 41q46 40 46 102q-1 62 -45 104t-128 42t-126 -76l-123 33l45 418h471v-136h-356l-21 -157q65 43 162 43z" />
    <glyph glyph-name="six.dnom" horiz-adv-x="761" 
d="M382 121q64 0 102 39q40 40 40 100t-40 100t-103 39q-63 1 -103 -39t-40 -100t40 -100t104 -39zM406 522q99 0 176 -70t77 -193q0 -121 -82 -193q-83 -72 -197 -72t-196 74t-82 194t81 244t169 240l31 42h164l-221 -294q24 28 80 28z" />
    <glyph glyph-name="seven.dnom" horiz-adv-x="735" 
d="M102 788h551v-73q-203 -189 -245 -400q-24 -121 -27 -315h-150q8 252 48 396t147 253h-324v139z" />
    <glyph glyph-name="eight.dnom" horiz-adv-x="761" 
d="M379 119q63 1 101 37t38 86t-36 86q-36 37 -104 37q-66 -1 -100 -37t-34 -86t36 -87q36 -36 99 -36zM381 670q-49 0 -78 -25t-29 -68t32 -69t74 -25q42 -1 74 25t33 69q-1 43 -29 68t-77 25zM133 594q-1 90 73 146t175 55q101 1 173 -55t73 -146q0 -50 -25 -93t-76 -65
v-10q63 -21 98 -75t35 -122q0 -101 -73 -168q-72 -67 -206 -67t-206 67t-72 168q0 68 34 122t97 75v10q-100 43 -100 158z" />
    <glyph glyph-name="nine.dnom" horiz-adv-x="761" 
d="M380 664q-64 0 -102 -40q-40 -40 -40 -100t40 -100t103 -39q63 -1 103 39t40 100t-40 100t-104 40zM356 262q-98 0 -176 70t-78 193q0 122 82 194t198 72q114 -1 196 -75t81 -195q0 -121 -80 -244t-169 -239l-31 -42h-164l221 295q-25 -29 -80 -29z" />
    <glyph glyph-name="zero.frac" horiz-adv-x="827" 
d="M415 653q83 1 127 71t44 188t-44 192q-44 72 -128 72t-128 -72t-44 -191q0 -118 44 -189t129 -71zM416 516q-138 0 -226 109t-88 290t87 291t225 111q138 -1 224 -111t87 -292t-85 -290t-224 -108z" />
    <glyph glyph-name="one.frac" horiz-adv-x="532" 
d="M285 522v529h-183v114h113q34 1 56 23t22 57v66h135l2 -789h-145z" />
    <glyph glyph-name="two.frac" horiz-adv-x="774" 
d="M262 657h391v-135h-551v74q0 162 167 272q25 16 50 30t52 31q27 16 39 23q12 8 32 22q76 51 76 116q0 38 -34 66t-96 28t-101 -38t-39 -104h-144q0 96 69 186q69 89 200 89q130 0 208 -63t78 -164q0 -69 -27 -105t-43 -54t-55 -45t-116 -73q-76 -45 -116 -80t-40 -76z
" />
    <glyph glyph-name="three.frac" horiz-adv-x="763" 
d="M383 1188q-110 0 -121 -82h-135q0 90 74 150q75 60 183 61t180 -55t71 -157q0 -101 -105 -155v-12q58 -18 95 -67t37 -117q0 -100 -76 -169t-203 -69q-125 0 -203 74t-78 188h138q4 -58 42 -96t103 -39q65 0 100 33t35 85t-38 85t-115 33h-54v116h47q74 0 106 30t32 73
q0 42 -30 66t-85 24z" />
    <glyph glyph-name="four.frac" horiz-adv-x="839" 
d="M485 809v319h-18l-197 -319h215zM616 809h121v-121h-121v-166h-131v166h-383v96l326 527h188v-502z" />
    <glyph glyph-name="five.frac" horiz-adv-x="796" 
d="M436 1061q98 -1 178 -77t80 -196t-82 -196t-211 -76q-131 0 -215 80t-84 176h140q8 -59 55 -92t107 -33t107 41q46 42 46 104q-1 62 -45 103t-128 41t-126 -76l-123 33l45 418h471v-135h-356l-21 -158q65 43 162 43z" />
    <glyph glyph-name="six.frac" horiz-adv-x="761" 
d="M382 643q64 0 102 39q40 40 40 100t-40 100t-103 40t-103 -40t-40 -100t40 -100t104 -39zM406 1044q99 0 176 -70t77 -193q0 -121 -82 -193q-83 -72 -197 -72t-196 74t-82 195q0 120 81 244t169 240l31 42h164l-221 -295q24 28 80 28z" />
    <glyph glyph-name="seven.frac" horiz-adv-x="735" 
d="M102 1311h551v-74q-203 -189 -245 -400q-24 -121 -27 -315h-150q8 252 48 396t147 253h-324v140z" />
    <glyph glyph-name="eight.frac" horiz-adv-x="761" 
d="M379 641q63 1 101 37t38 86t-36 86q-36 37 -104 37q-66 -1 -100 -37t-34 -86t36 -87q36 -36 99 -36zM381 1192q-49 0 -78 -25t-29 -68t32 -68t74 -25t74 25t33 68q-1 43 -29 68t-77 25zM133 1116q-1 90 73 146t175 55q101 1 173 -55t73 -146q0 -50 -25 -93t-76 -65v-10
q63 -20 98 -74t35 -122q1 -100 -73 -168t-207 -68t-205 68t-72 168q0 68 34 122t97 74v10q-100 43 -100 158z" />
    <glyph glyph-name="nine.frac" horiz-adv-x="761" 
d="M380 1190q-64 0 -102 -39q-40 -39 -40 -99t40 -101q40 -40 103 -40t103 40t40 100q0 59 -40 99t-104 40zM356 788q-98 0 -176 71t-78 193t82 194t198 71q114 -1 196 -75t81 -195q0 -121 -80 -244t-169 -239l-31 -42h-164l221 295q-25 -29 -80 -29z" />
    <glyph glyph-name="exclamdown.case" horiz-adv-x="532" 
d="M373 0h-215l41 1042h133zM266 1444q51 0 87 -36t36 -88t-36 -86q-36 -36 -87 -36t-87 36t-36 86q0 52 36 88t87 36z" />
    <glyph glyph-name="questiondown.case" horiz-adv-x="882" 
d="M236 361q0 -228 204 -228q179 0 207 199h168q0 -97 -38 -164q-38 -68 -79 -104q-93 -82 -264 -82q-172 0 -269 102t-97 268q0 165 126 267q18 15 56 41q70 50 115 101t45 150v127h168v-131q0 -201 -154 -322q-22 -17 -54 -40q-61 -42 -97 -86q-37 -44 -37 -98zM479 1444
q51 0 87 -36t36 -88t-36 -86q-36 -36 -87 -36t-87 36t-36 86q0 52 36 88t87 36z" />
    <glyph glyph-name="braceleft.case" horiz-adv-x="671" 
d="M403 946q0 -165 -127 -227v-25q127 -62 127 -227v-492q-1 -51 29 -81t84 -29h23v-123h-60q-105 0 -167 65t-62 177v483q0 184 -148 184v111q148 0 148 184v484q0 112 62 176t167 65h60v-123h-23q-54 0 -84 -30t-29 -80v-492z" />
    <glyph glyph-name="braceright.case" horiz-adv-x="671" 
d="M422 946q0 -88 34 -136t113 -48v-111q-79 1 -113 -47t-34 -137v-483q0 -112 -62 -177t-167 -65h-60v123h23q54 -1 83 29t29 81v492q0 165 127 227v25q-127 62 -127 227v492q0 52 -29 81t-83 29h-23v123h60q105 -1 167 -65t62 -176v-484z" />
    <glyph glyph-name="bracketleft.case" horiz-adv-x="657" 
d="M123 1671h350v-149h-190v-1631h211v-149h-371v1929z" />
    <glyph glyph-name="bracketright.case" horiz-adv-x="636" 
d="M514 1671v-1929h-371v149h211v1631h-190v149h350z" />
    <glyph glyph-name="parenleft.case" horiz-adv-x="692" 
d="M102 725q0 269 99 515t266 427l113 -115q-138 -150 -216 -374t-79 -452q0 -230 79 -454t216 -374l-113 -113q-167 181 -266 425t-99 515z" />
    <glyph glyph-name="parenright.case" horiz-adv-x="692" 
d="M377 726q-1 230 -79 452q-78 224 -216 374l113 115q166 -180 265 -426t99 -516q-1 -271 -99 -515t-265 -425l-113 113q137 150 216 374t79 454z" />
    <glyph glyph-name="emdash.case" horiz-adv-x="1802" 
d="M1679 797v-156h-1556v156h1556z" />
    <glyph glyph-name="endash.case" horiz-adv-x="1136" 
d="M123 797h891v-156h-891v156z" />
    <glyph glyph-name="hyphen.case" horiz-adv-x="983" 
d="M123 797h737v-156h-737v156z" />
    <glyph glyph-name="uni00AD.case" horiz-adv-x="983" 
d="M123 797h737v-156h-737v156z" />
    <glyph glyph-name="guillemotleft.case" horiz-adv-x="1220" 
d="M893 301l-330 414l330 413h205l-334 -413l334 -414h-205zM453 301l-330 414l330 413h204l-333 -413l333 -414h-204z" />
    <glyph glyph-name="guillemotright.case" horiz-adv-x="1220" 
d="M768 301h-205l334 414l-334 413h205l330 -413zM328 301h-205l334 414l-334 413h205l329 -413z" />
    <glyph glyph-name="guilsinglleft.case" horiz-adv-x="780" 
d="M453 301l-330 414l330 413h204l-333 -413l333 -414h-204z" />
    <glyph glyph-name="guilsinglright.case" horiz-adv-x="780" 
d="M328 301h-205l334 414l-334 413h205l329 -413z" />
    <glyph glyph-name="bar.case" horiz-adv-x="495" 
d="M332 1638v-1863h-168v1863h168z" />
    <glyph glyph-name="brokenbar.case" horiz-adv-x="495" 
d="M164 -225v727h168v-727h-168zM164 1638h168v-727h-168v727z" />
    <glyph glyph-name="at.case" horiz-adv-x="2048" 
d="M1245 692q0 158 -77 246q-77 90 -185 90t-193 -90t-85 -242q0 -151 85 -233t193 -82q108 1 185 77t77 234zM1558 373q188 0 189 356q-1 143 -61 292t-161 247t-231 152t-272 55q-140 -1 -270 -55t-230 -152t-161 -247q-60 -149 -60 -323q-1 -174 61 -320t164 -240
t230 -146t266 -53q236 0 414 100l104 -107q-231 -145 -510 -145t-520 164q-240 164 -336 435q-52 146 -51 314q0 168 51 320q51 150 138 260t202 189t245 118q131 39 265 39t264 -39t244 -118t202 -189t139 -260q51 -151 51 -282t-22 -216q-24 -84 -68 -154t-116 -112
t-139 -43q-69 -1 -119 13t-103 52t-81 93q-91 -158 -311 -158q-181 0 -311 131t-130 352q0 220 130 360t306 140t273 -125h33l34 115h119v-676q0 -57 41 -97q40 -40 98 -40z" />
    <glyph glyph-name="onehalf.aalt" horiz-adv-x="1650" 
d="M1139 135h391v-135h-551v74q0 162 166 272q25 16 51 30t52 30t38 24l33 22q76 52 76 116q-1 38 -35 66t-96 28t-100 -38q-40 -38 -40 -104h-143q0 96 69 186q69 89 200 89q130 1 208 -63t78 -157t-55 -149t-95 -80t-104 -62t-103 -73q-40 -35 -40 -76zM1327 1311
l-1020 -1311h-82l1020 1311h82zM285 522v529h-183v114h113q34 1 56 23t22 57v66h135l2 -789h-145z" />
    <glyph glyph-name="onequarter.aalt" horiz-adv-x="1552" 
d="M1198 287v319h-18l-197 -319h215zM1329 287h121v-121h-121v-166h-131v166h-383v96l326 526h188v-501zM1327 1311l-1020 -1311h-82l1020 1311h82zM285 522v529h-183v114h113q34 1 56 23t22 57v66h135l2 -789h-145z" />
    <glyph glyph-name="threequarters.aalt" horiz-adv-x="1660" 
d="M1307 287v319h-19l-196 -319h215zM1438 287h121v-121h-121v-166h-131v166h-383v96l325 526h189v-501zM1436 1311l-1020 -1311h-82l1020 1311h82zM383 1188q-110 0 -121 -82h-135q0 90 74 150q75 60 183 61t180 -55t71 -157q0 -101 -105 -155v-12q58 -18 95 -67t37 -117
q0 -100 -76 -169t-203 -69q-125 0 -203 74t-78 188h138q4 -58 42 -96t103 -39q65 0 100 33t35 85t-38 85t-115 33h-54v116h47q74 0 106 30t32 73q0 42 -30 66t-85 24z" />
    <glyph glyph-name="slash.salt" horiz-adv-x="929" 
d="M868 1536l-733 -1638h-72l734 1638h71z" />
    <glyph glyph-name="backslash.aalt" horiz-adv-x="989" 
d="M123 1536h72l733 -1638h-72z" />
    <glyph glyph-name="exclam.aalt" horiz-adv-x="532" 
d="M266 -10q-51 0 -87 36t-36 88t36 86q36 36 87 36t87 -36t36 -86q0 -52 -36 -88t-87 -36zM229 1434h76l-8 -1043h-59z" />
    <glyph glyph-name="exclamdown.salt" horiz-adv-x="532" 
d="M229 -410l9 1043h59l8 -1043h-76zM266 1034q51 0 87 -36t36 -88t-36 -86q-36 -36 -87 -36t-87 36t-36 86q0 52 36 88t87 36z" />
    <glyph glyph-name="question.aalt" horiz-adv-x="829" 
d="M383 -10q-51 0 -87 36t-36 88t36 86q36 36 87 36t87 -36t36 -86q0 -52 -36 -88t-87 -36zM332 526q0 203 164 344q124 105 157 164t33 109q0 89 -58 164q-59 75 -206 75q-176 0 -247 -131q-25 -45 -40 -149h-67q0 162 112 268q87 82 247 82q159 0 247 -91t88 -201
t-60 -187t-145 -144q-83 -70 -117 -144t-34 -163v-127h-74v131z" />
    <glyph glyph-name="questiondown.salt" horiz-adv-x="829" 
d="M498 498q0 -203 -164 -344q-123 -104 -157 -162t-34 -106q-1 -48 7 -76q18 -68 80 -118t194 -50q131 0 191 75q61 75 73 161q2 18 6 44h68q0 -162 -112 -268q-87 -82 -247 -82q-159 0 -247 91t-88 198q0 73 32 139t62 96t68 62t42 37q84 71 118 145t34 162v127h74v-131z
M446 1034q51 0 87 -36t36 -88t-36 -86q-36 -36 -87 -36q-50 0 -86 36t-36 86q0 52 36 88t86 36z" />
    <glyph glyph-name="braceleft.salt" horiz-adv-x="638" 
d="M330 858q0 -170 -119 -229v-21q119 -60 119 -229v-549q0 -64 30 -88t103 -23h22v-65h-59q-84 0 -124 44t-40 116v565q0 85 -45 145t-115 60v69q70 -1 114 59t44 146v565q0 72 40 116t126 44h59v-65h-22q-73 0 -103 -24t-30 -87v-549z" />
    <glyph glyph-name="braceright.salt" horiz-adv-x="618" 
d="M358 858q0 -86 44 -146t114 -59v-69q-70 0 -115 -60t-45 -145v-565q0 -72 -39 -116t-124 -44h-60v65h23q72 -1 102 23t31 88v549q0 169 119 229v21q-119 59 -119 229v549q-1 63 -31 87t-102 24h-23v65h60q85 0 125 -44t40 -116v-565z" />
    <glyph glyph-name="bracketleft.salt" horiz-adv-x="616" 
d="M123 1583h309v-65h-239v-1799h260v-65h-330v1929z" />
    <glyph glyph-name="bracketright.salt" horiz-adv-x="616" 
d="M473 1583v-1929h-330v65h260v1799h-239v65h309z" />
    <glyph glyph-name="parenleft.salt" horiz-adv-x="583" 
d="M92 635q0 300 86 551t238 432l45 -43q-139 -166 -215 -415t-76 -525t76 -525t215 -415l-45 -41q-152 181 -238 431t-86 550z" />
    <glyph glyph-name="parenright.salt" horiz-adv-x="583" 
d="M373 635q-1 276 -77 525t-214 415l45 43q151 -181 237 -432t87 -551q-1 -300 -87 -550t-237 -431l-45 41q138 166 214 415t77 525z" />
    <glyph glyph-name="underscore.aalt" horiz-adv-x="1136" 
d="M123 0h891v-66h-891v66z" />
    <glyph glyph-name="emdash.salt" horiz-adv-x="1802" 
d="M1679 670v-66h-1556v66h1556z" />
    <glyph glyph-name="endash.salt" horiz-adv-x="1136" 
d="M123 670h891v-66h-891v66z" />
    <glyph glyph-name="hyphen.salt" horiz-adv-x="983" 
d="M123 670h737v-66h-737v66z" />
    <glyph glyph-name="uni00AD.salt" horiz-adv-x="983" 
d="M123 670h737v-66h-737v66z" />
    <glyph glyph-name="guillemotleft.salt" horiz-adv-x="1064" 
d="M838 197l-336 413l336 414h104l-334 -414l334 -413h-104zM459 197l-336 413l336 414h104l-334 -414l334 -413h-104z" />
    <glyph glyph-name="guillemotright.salt" horiz-adv-x="1064" 
d="M606 197h-104l334 413l-334 414h104l336 -414zM227 197h-104l334 413l-334 414h104l336 -414z" />
    <glyph glyph-name="guilsinglleft.salt" horiz-adv-x="686" 
d="M459 197l-336 413l336 414h104l-334 -414l334 -413h-104z" />
    <glyph glyph-name="guilsinglright.salt" horiz-adv-x="686" 
d="M227 197h-104l334 413l-334 414h104l336 -414z" />
    <glyph glyph-name="quotedbl.aalt" horiz-adv-x="653" 
d="M465 1440q52 0 49 -66l-27 -411h-45l-26 411q-3 66 49 66zM188 1440q52 0 50 -66l-27 -411h-45l-27 411q-3 66 49 66z" />
    <glyph glyph-name="quotesingle.aalt" horiz-adv-x="376" 
d="M188 1440q52 0 50 -66l-27 -411h-45l-27 411q-3 66 49 66z" />
    <glyph glyph-name="bar.salt" horiz-adv-x="397" 
d="M233 1577v-1864h-69v1864h69z" />
    <glyph glyph-name="brokenbar.salt" horiz-adv-x="397" 
d="M164 -287v727h69v-727h-69zM164 1577h69v-727h-69v727z" />
    <glyph glyph-name="numbersign.aalt" horiz-adv-x="1347" 
d="M838 446l102 512h-426l-102 -512h426zM1225 958h-211l-103 -512h228v-65h-242l-74 -381h-73l73 381h-426l-75 -381h-72l76 381h-213v65h227l102 512h-243v66h258l80 410h71l-80 -410h426l82 410h74l-82 -410h197v-66z" />
    <glyph glyph-name="ampersand.aalt" horiz-adv-x="1398" 
d="M537 59q179 -1 313 145q32 36 57 75l-438 413q-205 -134 -251 -242q-22 -50 -21 -106q0 -123 100 -204t240 -81zM558 1374q-108 0 -190 -72t-81 -178q0 -156 188 -344q239 144 299 260q26 52 27 105q1 89 -67 159t-176 70zM418 743q-205 221 -205 361q1 140 89 236
q42 46 110 76q68 28 146 28q157 0 236 -93q80 -93 80 -196t-42 -163q-18 -26 -27 -42q-10 -16 -37 -40q-26 -26 -38 -37t-48 -37t-46 -36q-10 -8 -52 -37t-52 -36l408 -383l168 332h76l-191 -381l303 -295h-88l-250 229q-148 -239 -421 -239q-180 0 -297 100t-117 256
q0 185 204 334q37 27 91 63z" />
    <glyph glyph-name="at.salt" horiz-adv-x="2048" 
d="M1004 104q148 0 252 108t104 299t-106 310t-255 119q-100 0 -188 -54q-87 -54 -143 -152t-56 -218t56 -216t145 -146t191 -50zM1540 -229q-184 -166 -485 -166t-544 162t-337 438q-51 149 -51 319t50 317q93 276 332 439q239 164 528 164q288 0 519 -150
q232 -150 324 -420q50 -146 49 -304q0 -157 -35 -273q-36 -116 -112 -191t-172 -75q-198 0 -248 200q-52 -96 -152 -148t-204 -52t-188 34q-82 33 -144 95t-98 154t-37 202q0 218 132 358t324 140q107 0 193 -46t143 -126h25l24 162h54v-676q0 -158 84 -208q34 -20 81 -20
q83 0 141 64q111 122 111 389q0 456 -336 682q-201 135 -469 135t-489 -153t-307 -409q-46 -136 -45 -290q-1 -154 45 -290q85 -253 308 -402q223 -148 505 -148q137 0 239 36t197 108z" />
    <glyph glyph-name="copyright.aalt" horiz-adv-x="1699" 
d="M1051 819q-57 135 -215 135q-78 0 -140 -72q-61 -72 -61 -166t61 -165q61 -72 160 -72q66 0 118 33t73 92h151q-26 -122 -126 -199t-234 -77t-244 112t-111 277q1 165 111 277t244 112t239 -82q104 -82 125 -205h-151zM850 59q178 1 328 89t238 240t87 306q0 156 -52 278
q-51 122 -139 210t-208 140t-254 52q-133 0 -254 -52q-120 -52 -208 -140t-140 -210t-51 -278q0 -156 87 -306q88 -152 238 -240t328 -89zM850 -10q-196 0 -364 98t-266 264q-98 168 -97 365q-1 197 97 365t266 264q168 98 364 98t364 -98t265 -264q98 -168 98 -365
t-98 -365q-97 -168 -265 -264q-168 -98 -364 -98z" />
    <glyph glyph-name="registered.aalt" horiz-adv-x="1699" 
d="M752 760h118q49 0 81 24t32 67q-1 41 -27 69t-75 28h-129v-188zM752 618v-270h-142v737h275q101 0 175 -61t73 -154t-45 -152t-115 -85l174 -285h-152l-168 270h-75zM850 59q178 1 328 89t238 240t87 306q0 156 -52 278q-51 122 -139 210t-208 140t-254 52
q-133 0 -254 -52q-120 -52 -208 -140t-140 -210t-51 -278q0 -156 87 -306q88 -152 238 -240t328 -89zM850 -10q-196 0 -364 98t-266 264q-98 168 -97 365q-1 197 97 365t266 264q168 98 364 98t364 -98t265 -264q98 -168 98 -365t-98 -365q-97 -168 -265 -264
q-168 -98 -364 -98z" />
    <glyph glyph-name="section.aalt" horiz-adv-x="1085" 
d="M586 242q117 0 209 74t92 207q1 132 -109 217t-253 85t-235 -74t-91 -200q0 -91 52 -163t135 -109t200 -37zM158 1141q0 150 112 243t269 93q90 0 165 -33t122 -86q98 -111 98 -246h-74q0 68 -32 125t-66 89q-80 76 -212 77q-131 0 -219 -73t-88 -178q1 -106 55 -154
q75 -68 237 -96q20 -4 55 -9q383 -64 383 -365q0 -129 -65 -218t-177 -109q99 -18 152 -92t53 -177t-53 -182q-53 -80 -139 -120t-182 -40q-188 0 -290 115t-102 250h73q1 -69 33 -125q32 -58 66 -90q80 -76 211 -76t219 72t88 191q0 118 -73 168q-73 49 -222 72t-209 53
q-117 58 -170 131q-53 74 -53 196q1 123 69 211t175 106q-209 72 -209 277z" />
    <glyph glyph-name="trademark.aalt" horiz-adv-x="1509" 
d="M1427 1434v-717h-69v530h-23l-235 -479h-82l-238 479h-20v-530h-70v717h82l277 -555h20l277 555h81zM82 1368v66h504v-66h-217v-651h-70v651h-217z" />
    <glyph glyph-name="Euro.aalt" horiz-adv-x="1351" 
d="M868 63q106 0 202 41t138 91l41 -58q-165 -147 -375 -147t-374 131q-166 131 -224 342h-153v67h137q-10 68 -10 133t12 132h-139v67h158q61 205 225 332t371 127t372 -147l-41 -58q-42 50 -138 90t-202 41q-170 0 -308 -107t-198 -278h721l-26 -67h-715q-14 -79 -14 -141
t12 -124h639l-27 -67h-594q56 -176 196 -288t314 -112z" />
    <glyph glyph-name="dollar.aalt" horiz-adv-x="1024" 
d="M823 297q0 109 -70 174t-190 131v-539q114 5 187 65t73 169zM238 1020q0 -98 60 -160t196 -137v522q-108 -8 -182 -67t-74 -158zM901 279q-1 -57 -29 -115t-76 -94q-97 -72 -233 -80v-174h-69v176q-171 14 -271 132t-100 269h76q0 -141 83 -228t212 -99v573
q-205 110 -269 193q-65 82 -65 176t50 164q97 134 284 147v176h69v-176q154 -12 239 -121t85 -235h-76q0 94 -56 182t-192 100v-561q135 -71 171 -99q35 -27 62 -51t44 -48t32 -54t22 -64t7 -89z" />
    <glyph glyph-name="sterling.aalt" horiz-adv-x="1165" 
d="M311 68h738v-68h-924v61q42 16 104 55t104 78q43 39 77 103t34 143t-65 172h-256v68h205q-40 52 -60 81t-40 83t-21 128q1 74 39 146t102 116q128 87 292 87q164 1 294 -127q84 -81 129 -197l-72 -16q-17 53 -60 106q-44 52 -84 84q-95 76 -231 76q-136 1 -233 -83
q-98 -84 -98 -210q-1 -67 25 -112q26 -46 33 -58t41 -56t36 -48h467v-68h-420q55 -88 55 -184q0 -182 -211 -340v-20z" />
    <glyph glyph-name="yen.aalt" horiz-adv-x="1243" 
d="M1004 764v-66h-353v-168h353v-65h-353v-465h-67v465h-344v65h344v168h-344v66h303l-441 547h86l412 -510h31l422 510h88l-449 -547h312z" />
    <glyph glyph-name="cent.aalt" horiz-adv-x="1210" 
d="M201 655q-1 -179 107 -305t270 -141v893q-162 -14 -270 -141t-107 -306zM647 0h-69v135q-195 22 -325 167t-130 353q0 207 130 353t325 168v135h69v-135q165 -14 289 -120t151 -263h-71q-28 129 -126 215t-243 96v-897q137 9 235 91t132 206h71q-32 -152 -153 -253
t-285 -116v-135z" />
    <glyph glyph-name="currency.aalt" horiz-adv-x="1269" 
d="M264 512q0 -152 107 -262t263 -109q156 0 264 110t108 261t-108 261t-264 110q-156 1 -263 -109t-107 -262zM1079 513q0 -168 -106 -290l145 -145l-49 -49l-145 145q-122 -106 -290 -106t-290 104l-143 -143l-49 49l143 143q-107 126 -107 290t107 290l-143 143l49 49
l143 -143q125 106 291 106t291 -106l143 143l49 -49l-145 -145q106 -118 106 -286z" />
    <glyph glyph-name="percent.aalt" horiz-adv-x="1595" 
d="M1165 63q101 1 167 67t65 167q1 101 -65 167t-167 66t-166 -66t-65 -168t65 -167q65 -66 166 -66zM1164 -10q-126 0 -216 90t-90 217t90 217t216 90t218 -90t91 -217q1 -127 -91 -217t-218 -90zM430 780q100 0 166 66t66 168q0 101 -66 167t-166 66q-101 0 -166 -66
q-65 -65 -65 -167t65 -168t166 -66zM1288 1311l-913 -1311h-82l913 1311h82zM430 707q-126 1 -216 91t-91 216q1 126 91 216t216 91q126 -1 216 -91q91 -90 91 -216t-91 -216q-90 -90 -216 -91z" />
    <glyph glyph-name="asciitilde.aalt" horiz-adv-x="1343" 
d="M1221 672q-17 -31 -56 -71q-38 -40 -76 -66q-39 -26 -99 -43t-118 -8q-99 14 -208 86q-260 168 -425 0q-20 -20 -44 -58l-72 31q76 137 226 178q150 40 325 -74q176 -114 300 -82q104 26 175 137z" />
    <glyph glyph-name="divide.aalt" horiz-adv-x="1218" 
d="M610 96q-51 0 -87 36t-36 88t36 86q36 36 87 36t87 -36t36 -86q0 -52 -36 -88t-87 -36zM123 643h973v-68h-973v68zM610 874q-51 0 -87 36t-36 88t36 86q36 36 87 36t87 -36t36 -86q0 -52 -36 -88t-87 -36z" />
    <glyph glyph-name="equal.aalt" horiz-adv-x="1218" 
d="M123 479h973v-67h-973v67zM123 805h973v-68h-973v68z" />
    <glyph glyph-name="greater.aalt" 
d="M143 1239l881 -567v-107l-881 -565v84l811 520v29l-811 522v84z" />
    <glyph glyph-name="less.aalt" 
d="M983 1239v-84l-811 -522v-29l811 -520v-84l-881 565v107z" />
    <glyph glyph-name="logicalnot.aalt" horiz-adv-x="1220" 
d="M1098 367h-70v372h-905v66h975v-438z" />
    <glyph glyph-name="uni00B5.aalt" horiz-adv-x="1185" 
d="M952 1024h70v-1024h-53l-15 158h-22q-48 -70 -132 -119t-206 -49q-251 0 -365 229v-629h-65v1434h69v-453q0 -209 84 -353q43 -72 113 -114t152 -41q156 0 263 106t107 333v522z" />
    <glyph glyph-name="multiply.aalt" horiz-adv-x="1294" 
d="M1116 1026l-422 -420l422 -420l-49 -49l-420 422l-420 -422l-49 49l422 420l-422 420l49 49l420 -422l420 422z" />
    <glyph glyph-name="plus.aalt" horiz-adv-x="1136" 
d="M1014 670v-66h-410v-411h-69v411h-412v66h412v413h69v-413h410z" />
    <glyph glyph-name="plusminus.aalt" horiz-adv-x="1095" 
d="M123 0v66h850v-66h-850zM584 729h389v-65h-389v-420h-70v420h-391v65h391v414h70v-414z" />
    <glyph glyph-name="degree.aalt" horiz-adv-x="729" 
d="M364 907q70 1 120 49q48 48 48 119t-48 119t-120 49q-70 -1 -118 -49t-49 -119q1 -71 49 -119t118 -49zM364 834q-100 0 -170 70q-71 70 -71 171q0 100 71 171q70 71 170 71q100 1 171 -71t71 -171t-71 -170t-171 -71z" />
    <glyph glyph-name="asciicircum.aalt" horiz-adv-x="1136" 
d="M932 737l-348 602h-29l-350 -602h-82l405 697h82l404 -697h-82z" />
    <glyph glyph-name="asterisk.aalt" horiz-adv-x="808" 
d="M707 1241l-248 -133l248 -135l-35 -62l-238 148l6 -281h-69l8 285l-242 -152l-35 62l246 135l-246 131l35 61l242 -147l-8 281h69l-6 -275l236 144z" />
    </font>
</defs>
</svg>
