<svg xmlns="http://www.w3.org/2000/svg" width="552.15" height="693.95" viewBox="0 0 552.15 693.95">
  <defs>
    <style>
      .\33 7ac221a-b379-41f9-a5a6-dba69a801098, .f19b3f78-691d-4a4b-ae96-3878378ddc68 {
        fill: #fff;
      }

      .\33 7ac221a-b379-41f9-a5a6-dba69a801098 {
        fill-rule: evenodd;
      }

      .b131454e-33bc-40e2-bd7a-aaa49ced9e27 {
        fill: #abacaf;
      }
    </style>
  </defs>
  <title>Asset 3</title>
  <g id="f2406555-05a2-40f1-a852-d91793591eb6" data-name="Layer 2">
    <g id="edef63f8-23d9-4d63-ada6-8d3db2516c34" data-name="Layer 1">
      <g>
        <g>
          <g>
            <path class="f19b3f78-691d-4a4b-ae96-3878378ddc68" d="M462.29,531.05c-3.75,0-7.13-.41-10.15-3.43l3.89-3.89a8.66,8.66,0,0,0,6.36,2.24c2.06,0,4.21-.68,4.21-2.47,0-1.19-.64-2-2.51-2.2l-3.75-.37c-4.3-.41-7-2.28-7-6.68,0-4.94,4.34-7.59,9.19-7.59,3.7,0,6.81.64,9.1,2.79l-3.66,3.7c-1.37-1.23-3.48-1.6-5.54-1.6-2.38,0-3.38,1.1-3.38,2.29,0,.87.37,1.88,2.47,2.06l3.75.37c4.71.46,7.09,3,7.09,7,0,5.26-4.48,7.78-10.11,7.78"/>
            <path class="f19b3f78-691d-4a4b-ae96-3878378ddc68" d="M480.45,520.71c0,3.06,1.88,5.31,5.21,5.31a6.6,6.6,0,0,0,5.4-2.24l3.61,3.52a11.35,11.35,0,0,1-9.06,3.75c-5.62,0-11-2.56-11-12.21,0-7.78,4.21-12.16,10.38-12.16,6.63,0,10.38,4.85,10.38,11.39v2.65Zm8.51-6.63a4.44,4.44,0,0,0-8,0,6.61,6.61,0,0,0-.55,2.56h9.06a6.62,6.62,0,0,0-.55-2.56"/>
            <path class="f19b3f78-691d-4a4b-ae96-3878378ddc68" d="M503.91,520.71c0,3.06,1.88,5.31,5.21,5.31a6.6,6.6,0,0,0,5.4-2.24l3.61,3.52a11.35,11.35,0,0,1-9.05,3.75c-5.63,0-11-2.56-11-12.21,0-7.78,4.21-12.16,10.38-12.16,6.63,0,10.38,4.85,10.38,11.39v2.65Zm8.51-6.63a4.44,4.44,0,0,0-8,0,6.6,6.6,0,0,0-.55,2.56H513a6.64,6.64,0,0,0-.55-2.56"/>
            <polygon class="f19b3f78-691d-4a4b-ae96-3878378ddc68" points="537.02 530.78 531.17 520.85 528.65 523.69 528.65 530.78 522.7 530.78 522.7 498.21 528.65 498.21 528.65 516.69 536.56 506.95 543.74 506.95 535.24 516.55 544.38 530.78 537.02 530.78"/>
            <path class="f19b3f78-691d-4a4b-ae96-3878378ddc68" d="M377,519.31a33,33,0,1,1,33,33,33,33,0,0,1-33-33"/>
            <path d="M410.69,498.92a2.06,2.06,0,1,1,2.05,2.06,2.06,2.06,0,0,1-2.05-2.06"/>
            <path d="M417.1,505.84a2.27,2.27,0,1,1,2.27,2.27,2.27,2.27,0,0,1-2.27-2.27"/>
            <path d="M410.69,505.84a2.06,2.06,0,1,1,2.05,2.06,2.06,2.06,0,0,1-2.05-2.06"/>
            <path d="M423.92,512.79a2.55,2.55,0,1,1,2.55,2.55,2.55,2.55,0,0,1-2.55-2.55"/>
            <path d="M417.1,512.77a2.27,2.27,0,1,1,2.27,2.27,2.27,2.27,0,0,1-2.27-2.27"/>
            <path d="M410.69,512.77a2.06,2.06,0,1,1,2.05,2.06,2.06,2.06,0,0,1-2.05-2.06"/>
            <path d="M404.57,512.77a1.8,1.8,0,1,1,1.8,1.8,1.8,1.8,0,0,1-1.8-1.8"/>
            <path d="M399.47,512.77a1.54,1.54,0,1,1,1.55,1.55,1.55,1.55,0,0,1-1.55-1.55"/>
            <path d="M394.6,512.77a1.29,1.29,0,1,1,1.29,1.29,1.29,1.29,0,0,1-1.29-1.29"/>
            <path d="M390.48,512.77a1,1,0,1,1,1,1,1,1,0,0,1-1-1"/>
            <path d="M386.58,512.77a.77.77,0,1,1,.77.77.77.77,0,0,1-.77-.77"/>
            <path d="M383.28,512.77a.51.51,0,1,1,.52.52.52.52,0,0,1-.52-.52"/>
            <path d="M423.92,519.71a2.55,2.55,0,1,1,2.55,2.55,2.55,2.55,0,0,1-2.55-2.55"/>
            <path d="M417.1,519.69a2.27,2.27,0,1,1,2.27,2.27,2.27,2.27,0,0,1-2.27-2.27"/>
            <path d="M410.69,519.69a2.06,2.06,0,1,1,2.05,2.06,2.05,2.05,0,0,1-2.05-2.06"/>
            <path d="M404.57,519.69a1.8,1.8,0,1,1,1.8,1.8,1.8,1.8,0,0,1-1.8-1.8"/>
            <path d="M399.47,519.69a1.54,1.54,0,1,1,1.55,1.55,1.54,1.54,0,0,1-1.55-1.55"/>
            <path d="M394.6,519.69a1.29,1.29,0,1,1,1.29,1.29,1.29,1.29,0,0,1-1.29-1.29"/>
            <path d="M390.48,519.69a1,1,0,1,1,1,1,1,1,0,0,1-1-1"/>
            <path d="M386.58,519.69a.77.77,0,1,1,.77.77.77.77,0,0,1-.77-.77"/>
            <path d="M383.28,519.69a.51.51,0,1,1,.52.52.52.52,0,0,1-.52-.52"/>
            <path d="M430.92,519.76a2.79,2.79,0,1,1,2.79,2.79,2.8,2.8,0,0,1-2.79-2.79"/>
            <path d="M423.92,526.64a2.55,2.55,0,1,1,2.55,2.55,2.55,2.55,0,0,1-2.55-2.55"/>
            <path d="M417.1,526.62a2.27,2.27,0,1,1,2.27,2.27,2.27,2.27,0,0,1-2.27-2.27"/>
            <path d="M410.69,526.62a2.06,2.06,0,1,1,2.05,2.06,2.06,2.06,0,0,1-2.05-2.06"/>
            <path d="M404.57,526.62a1.8,1.8,0,1,1,1.8,1.8,1.8,1.8,0,0,1-1.8-1.8"/>
            <path d="M399.47,526.62a1.54,1.54,0,1,1,1.55,1.54,1.54,1.54,0,0,1-1.55-1.54"/>
            <path d="M394.6,526.62a1.29,1.29,0,1,1,1.29,1.29,1.28,1.28,0,0,1-1.29-1.29"/>
            <path d="M390.48,526.62a1,1,0,1,1,1,1,1,1,0,0,1-1-1"/>
            <path d="M386.58,526.62a.77.77,0,1,1,.77.77.77.77,0,0,1-.77-.77"/>
            <path d="M383.28,526.62a.51.51,0,1,1,1,0,.51.51,0,0,1-1,0"/>
            <path d="M417.1,533.55a2.27,2.27,0,1,1,2.27,2.27,2.27,2.27,0,0,1-2.27-2.27"/>
            <path d="M410.69,533.55a2.06,2.06,0,1,1,2.05,2.06,2.06,2.06,0,0,1-2.05-2.06"/>
            <path d="M410.69,540.47a2.06,2.06,0,1,1,2.05,2.06,2.05,2.05,0,0,1-2.05-2.06"/>
          </g>
          <g>
            <path class="37ac221a-b379-41f9-a5a6-dba69a801098" d="M73.21,491.49A38.33,38.33,0,1,0,84.44,518.6a38.08,38.08,0,0,0-11.23-27.11m.36,50.7A36.69,36.69,0,0,1,46.2,554.68,35.84,35.84,0,0,1,20.57,544.4a37.78,37.78,0,0,1-6.05-7.67,35.58,35.58,0,0,1-4.79-16.8c0-.82,0-2.09,0-3a9,9,0,0,0-1.55,4.54h0c0-.49-.06-1-.08-1.47a38,38,0,0,1,38-39.47c20.06,0,36.56,16.8,36.56,38.12a35.51,35.51,0,0,1-9.1,23.52"/>
            <path class="37ac221a-b379-41f9-a5a6-dba69a801098" d="M81.66,517.42A35.85,35.85,0,0,0,71.27,493.5c-4.64-4.75-13.25-11-25.07-11h-.57A37.11,37.11,0,0,0,22.18,492a34.44,34.44,0,0,0-11.39,25.78c0,19.5,13.67,33.42,32.43,34.6,1,.06,1.91.09,2.88.09a33.84,33.84,0,0,0,28.67-15.85,3.8,3.8,0,0,0,1.46-.58,3.19,3.19,0,0,0-.21-1.58A34.07,34.07,0,0,0,79.84,516h0a10.1,10.1,0,0,0,1.8,4.53c0-1,0-2.38,0-3.14M22.39,494.88a33.3,33.3,0,0,1,22.32-9.79l-4.3,30h0a.52.52,0,0,1-.18.33h0L16.38,534.15a33.59,33.59,0,0,1,6-39.27m53.44,39.27-24-18.83a.37.37,0,0,1-.11-.28L47.5,485.11a2.89,2.89,0,0,0-1.39-.91v33.65l0,.24.28-.06s3.18-1.62,4.24-2.12c.31-.14.42-.07.71.14l24.3,18.21c.09.07.12.14.2.41a3.34,3.34,0,0,1,.08,1.14L46.75,519h-.17l-.05.18c-.06,1.11-.17,3.56-.28,4.9,0,.48,0,.78-.14.78s-.1-.31-.14-.78c-.12-1.37-.25-3.82-.3-4.91L45.6,519l-.22.05L16.32,535.8a3.39,3.39,0,0,0,1.47.77l28.32-11.38,28.33,11.38a33.73,33.73,0,0,1-4.62,5.74,33.54,33.54,0,0,1-47.43,0A38.33,38.33,0,0,1,19.48,539c-1-1.27-1.69-2.4-1.69-2.4A3.46,3.46,0,0,1,16,536h0a3,3,0,0,1,.2-1.44l24.37-18.22c.33-.24.42-.33.76-.17,1.26.58,4.31,2.29,4.37,2.19s-3.73-2.75-4-3.07-.12-1-.09-1.23c.12-1,3.36-29.26,3.37-29.37a3.05,3.05,0,0,1,.37-.36,3.29,3.29,0,0,1,.78-.52,2.71,2.71,0,0,1,1.39,1.28,33.56,33.56,0,0,1,28.33,49.06"/>
            <rect class="f19b3f78-691d-4a4b-ae96-3878378ddc68" x="236.43" y="525.73" width="7.71" height="1.78"/>
            <path class="f19b3f78-691d-4a4b-ae96-3878378ddc68" d="M108.3,514.92l-.69,17.9v.31c0,1.52.45,1.83,2.86,2V536c-1.76-.14-2.45-.17-3.41-.17s-1.66,0-3.45.17v-.83c2.41-.17,2.76-.45,2.83-2.31l.72-16.93v-.21c0-1.59-.48-1.93-2.86-2.07v-.86c1.34.1,1.86.14,2.83.14a26.34,26.34,0,0,0,3.28-.17l6.41,17.45,6.52-17.45a32.51,32.51,0,0,0,3.31.17c.86,0,1.41,0,2.72-.14v.86c-2.35.14-2.86.48-2.86,2v.24l.38,16.93c0,1.86.34,2.14,2.83,2.31V536a33.9,33.9,0,0,0-8.62,0v-.83c2.35-.14,2.86-.52,2.86-2.14v-.17L123.64,515,118,530.33l-.41,1.14-.48,1.28-.45,1.31-.38,1.14h-.52l-.38-1.1-.48-1.35-.48-1.34-.41-1.21Z"/>
            <path class="f19b3f78-691d-4a4b-ae96-3878378ddc68" d="M138.67,535.09c-3.14,0-4.52-2.41-4.55-7.79H144.4c-.07-5.31-2.24-8.14-6.31-8.14s-6.72,3.35-6.72,8.66,2.59,8.41,7,8.41c3.38,0,5.59-2.1,6-5.66h-1.38c-.41,2.93-1.93,4.52-4.38,4.52m-4.48-9c.34-4,1.66-6,3.86-6s3.38,1.93,3.59,6Z"/>
            <path class="f19b3f78-691d-4a4b-ae96-3878378ddc68" d="M146.45,520.44v-.62A21.39,21.39,0,0,0,151,519c.17,1.28.24,1.83.31,2.86v.38a4.35,4.35,0,0,1,4-3.1,2.79,2.79,0,0,1,3,2.79,1.48,1.48,0,0,1-1.45,1.66,1.27,1.27,0,0,1-1.41-1.17,1.91,1.91,0,0,1,.07-.34l.07-.35v-.31c0-.48-.41-.83-1-.83-1.79,0-2.93,2.17-2.93,5.59v7.21c0,1.48.34,1.76,2.45,1.86V536a35.64,35.64,0,0,0-7.69,0v-.69c2.1-.1,2.48-.38,2.48-1.86V522.12c0-1.48-.21-1.65-2-1.69Z"/>
            <path class="f19b3f78-691d-4a4b-ae96-3878378ddc68" d="M171.54,518.85v5.69h-.76c-.62-3-1.9-4.45-4-4.45-2.59,0-4.1,2.79-4.1,7.72s1.35,7.28,4,7.28q3.21,0,3.83-4.55h1.41c-.45,3.69-2.41,5.69-5.52,5.69-4,0-6.73-3.38-6.73-8.41s2.76-8.65,6.83-8.65a4.47,4.47,0,0,1,3.52,1.45l.93-1.76Z"/>
            <path class="f19b3f78-691d-4a4b-ae96-3878378ddc68" d="M181.68,535.09c-3.14,0-4.52-2.41-4.55-7.79h10.28c-.07-5.31-2.24-8.14-6.31-8.14s-6.73,3.35-6.73,8.66,2.59,8.41,7,8.41c3.38,0,5.59-2.1,6-5.66h-1.38c-.41,2.93-1.93,4.52-4.38,4.52m-4.48-9c.34-4,1.66-6,3.86-6s3.38,1.93,3.59,6Z"/>
            <path class="f19b3f78-691d-4a4b-ae96-3878378ddc68" d="M203.44,532.37V512.46a32.83,32.83,0,0,1-5.21.94V514c2.17,0,2.45.24,2.45,2v6c-1.28-2.07-2.28-2.69-4.14-2.69-3.69,0-6.28,3.48-6.28,8.45s2.62,8.45,6.38,8.45a4.45,4.45,0,0,0,4.28-2.83,12.89,12.89,0,0,0,.48,2.76,17.15,17.15,0,0,1,4-.83l.52-.07v-.59c-2.31-.07-2.52-.24-2.52-2.34M197,535.3c-2.48,0-3.79-2.59-3.79-7.52s1.21-7.45,3.69-7.45,3.86,2.62,3.86,7.69c0,4.79-1.28,7.28-3.76,7.28"/>
            <path class="f19b3f78-691d-4a4b-ae96-3878378ddc68" d="M214.57,535.09c-3.14,0-4.52-2.41-4.55-7.79H220.3c-.07-5.31-2.24-8.14-6.31-8.14s-6.73,3.35-6.73,8.66,2.59,8.41,7,8.41c3.38,0,5.59-2.1,6-5.66H219c-.41,2.93-1.93,4.52-4.38,4.52m-4.48-9c.34-4,1.66-6,3.86-6s3.38,1.93,3.59,6Z"/>
            <path class="f19b3f78-691d-4a4b-ae96-3878378ddc68" d="M223.23,536.26V530.5l.76,0c.62,3.14,2.07,4.65,4.48,4.65A3.28,3.28,0,0,0,232,532c0-1.17-.66-2-2.35-2.72l-1.31-.59-1.59-.72c-2.52-1.17-3.31-2.14-3.31-4.14,0-2.72,2.14-4.59,5.17-4.59a5.76,5.76,0,0,1,3.52,1.1l.59-1.41h.62v5.35h-.79c-.31-2.76-1.45-4.07-3.62-4.07a3,3,0,0,0-3.24,2.86c0,1.38.52,1.83,3.66,3.21l1.45.62c2.62,1.14,3.55,2.24,3.55,4.28,0,2.9-2.31,5-5.55,5a6.2,6.2,0,0,1-4.14-1.45l-.83,1.55Z"/>
            <path class="f19b3f78-691d-4a4b-ae96-3878378ddc68" d="M260.43,518.47a5.42,5.42,0,0,0-2.07-4.38,7.41,7.41,0,0,0-4.76-1.24h-9.07v.86c2.48.14,2.83.41,2.83,2.28v16.72c0,1.86-.28,2.1-2.83,2.31v.83h8.72c2.55,0,3.93-.31,5.38-1.21a6.5,6.5,0,0,0,2.86-5.38,5.73,5.73,0,0,0-2.14-4.59,6,6,0,0,0-2.72-1.1,5.22,5.22,0,0,0,3.79-5.1m-10.17-4.55h2.93c2.9,0,4.17,1.41,4.17,4.62a5.3,5.3,0,0,1-1.14,3.62c-.76.86-1.69,1.14-3.62,1.14h-2.35Zm3.28,10.45c1.83,0,2.86.31,3.66,1.1a5.71,5.71,0,0,1,1.24,3.93c0,3.45-1.72,5.38-4.79,5.38H252.4c-1.83,0-2.14-.28-2.14-1.79v-8.62Z"/>
            <path class="f19b3f78-691d-4a4b-ae96-3878378ddc68" d="M271.62,535.09c-3.14,0-4.52-2.41-4.55-7.79h10.28c-.07-5.31-2.24-8.14-6.31-8.14s-6.72,3.35-6.72,8.66,2.59,8.41,7,8.41c3.38,0,5.59-2.1,6-5.66H276c-.41,2.93-1.93,4.52-4.38,4.52m-4.48-9c.34-4,1.66-6,3.86-6s3.38,1.93,3.59,6Z"/>
            <path class="f19b3f78-691d-4a4b-ae96-3878378ddc68" d="M279.16,520.57V520a21.32,21.32,0,0,0,4.55-1,18.66,18.66,0,0,1,.34,3,5.2,5.2,0,0,1,4.66-2.69,4.77,4.77,0,0,1,4.55,2.76,7.84,7.84,0,0,1,.52,3.1v8.28c0,1.48.34,1.76,2.45,1.86V536a33.18,33.18,0,0,0-3.76-.21,32.41,32.41,0,0,0-3.76.21v-.69c1.86-.07,2.31-.41,2.31-1.79V525c0-3-.9-4.21-3.1-4.21s-3.59,1.48-3.59,4.31v8.35c0,1.38.45,1.72,2.24,1.79V536a32.25,32.25,0,0,0-3.72-.21,32.66,32.66,0,0,0-3.72.21v-.69c2.1-.1,2.45-.38,2.45-1.86V522.23c0-1.41-.24-1.62-2-1.62-.1,0-.28,0-.45,0"/>
            <path class="f19b3f78-691d-4a4b-ae96-3878378ddc68" d="M297.57,535.85l9.34-15.38h-4.24c-2.24,0-2.79.48-4,3.59H298l.79-4.48h11.86L301.23,535h4c2.35,0,3.31-.93,4.34-4.07h.72l-.9,5Z"/>
          </g>
        </g>
        <g>
          <g>
            <g>
              <g>
                <path class="f19b3f78-691d-4a4b-ae96-3878378ddc68" d="M324.2,28.22a8.26,8.26,0,0,0,15.88,3.22l9.31,3.93a18.37,18.37,0,0,1-35.29-7.15v.24a18.37,18.37,0,0,1,35.29-7.15l-9.31,3.93a8.27,8.27,0,0,0-15.88,3.22Z"/>
                <polygon class="f19b3f78-691d-4a4b-ae96-3878378ddc68" points="263.63 45.22 263.63 22.55 252.65 22.55 252.65 11.57 285.94 11.57 285.94 22.55 274.96 22.55 274.96 45.22 263.63 45.22"/>
              </g>
              <path class="f19b3f78-691d-4a4b-ae96-3878378ddc68" d="M297,20.31,304.2,34.9H290ZM297,0l-22,45.22h44.15Z"/>
            </g>
            <polygon class="b131454e-33bc-40e2-bd7a-aaa49ced9e27" points="284.86 34.98 289.87 34.98 302.02 10.2 299.55 5.16 284.86 34.98"/>
          </g>
          <g>
            <path class="f19b3f78-691d-4a4b-ae96-3878378ddc68" d="M426.54,27.5c0,4.83,3.75,7.55,8,7.55s8-2.72,8-7.55-3.75-7.55-8-7.55-8,2.72-8,7.55m23.18,0c0,9-6.91,13.82-15.19,13.82s-15.19-4.83-15.19-13.82,6.91-13.82,15.19-13.82,15.19,4.83,15.19,13.82"/>
            <path class="f19b3f78-691d-4a4b-ae96-3878378ddc68" d="M475.05,13.9l0,15.25c-3-3.46-11.26-13-12.92-15.26h-7.94v27h6.54V23.25C470,34.19,475,39.63,476.06,40.92h5.53V13.86h-6.54"/>
            <path class="f19b3f78-691d-4a4b-ae96-3878378ddc68" d="M494.36,35h6.19c5.16,0,7.26-3.09,7.26-7.45s-2.1-7.45-7.26-7.45h-6.19ZM487,41.09V14l14.82,0c9,0,13.15,5.86,13.15,13.51,0,7-4.62,13.51-13.68,13.51Z"/>
            <path class="f19b3f78-691d-4a4b-ae96-3878378ddc68" d="M518.78,38.72a14.66,14.66,0,0,0,2.77,1.11,30.65,30.65,0,0,0,11.18,1.88c10.57,0,13.73-4.88,13.73-9.3,0-11.82-20.16-6.21-20.16-10.79,0-1.18,1.46-2.42,5.7-2.42a26.46,26.46,0,0,1,8.12,1.26,25.77,25.77,0,0,1,3.07,1.32l2.27-4.71a31.61,31.61,0,0,0-3.95-1.48,37.51,37.51,0,0,0-10.11-1.53c-7.16,0-11.83,3.55-11.83,8.68,0,9.91,20.06,5.7,20.06,9.5,0,2.26-2.19,3.5-7.06,3.5A20,20,0,0,1,525,34.19c-1.71-.69-1.71-.75-3.8-1.75Z"/>
            <path class="f19b3f78-691d-4a4b-ae96-3878378ddc68" d="M395.69,35.64H404c3.41,0,4.77-.82,4.77-3.08s-1.36-3.09-4.77-3.09h-8.28Zm0-11.41h6.62c4.19,0,5.26-.31,5.26-2.36s-1.07-2.36-5.26-2.36h-6.62Zm-7.32,16.85v-27h17.21c5.26,0,9.11,2.05,9.11,7.14A5.52,5.52,0,0,1,410,26.8v.1c3.26.92,5.65,2.77,5.65,6.58,0,4.11-2.92,7.6-9.84,7.6Z"/>
            <path class="f19b3f78-691d-4a4b-ae96-3878378ddc68" d="M415.76,45.76l-2,3.2a3.19,3.19,0,0,1-2.68,1.76l-25-.06h0l2-3.08c.69-1,1.41-1.81,2.64-1.81Z"/>
            <path class="f19b3f78-691d-4a4b-ae96-3878378ddc68" d="M448.47,45.76l-2,3.2a3.19,3.19,0,0,1-2.68,1.76l-25-.06h0l2-3.08a3.18,3.18,0,0,1,2.65-1.81Z"/>
            <path class="f19b3f78-691d-4a4b-ae96-3878378ddc68" d="M481.17,45.76l-2,3.2a3.19,3.19,0,0,1-2.68,1.76l-25-.06h0l2-3.08c.69-1,1.41-1.81,2.65-1.81Z"/>
            <path class="f19b3f78-691d-4a4b-ae96-3878378ddc68" d="M513.86,45.76l-2,3.2a3.19,3.19,0,0,1-2.68,1.76l-25-.06h0l2-3.08a3.18,3.18,0,0,1,2.64-1.81Z"/>
            <path class="f19b3f78-691d-4a4b-ae96-3878378ddc68" d="M546.56,45.76l-2,3.2a3.18,3.18,0,0,1-2.68,1.76l-25-.06h0l2-3.08a3.18,3.18,0,0,1,2.65-1.81Z"/>
            <path class="f19b3f78-691d-4a4b-ae96-3878378ddc68" d="M548.89,11.88c.5,0,1.28.08,1.28-.64,0-.55-.48-.61-.92-.61h-1v1.26Zm1.67,2H550l-1-1.64h-.81v1.64h-.43V10.31h1.55a1.63,1.63,0,0,1,.87.17.87.87,0,0,1,.4.77c0,.7-.5,1-1.13,1Zm1.21-1.78A2.8,2.8,0,1,0,549,14.89a2.79,2.79,0,0,0,2.79-2.81m-6,0a3.19,3.19,0,1,1,3.2,3.19,3.19,3.19,0,0,1-3.2-3.19"/>
          </g>
          <g>
            <g>
              <path class="f19b3f78-691d-4a4b-ae96-3878378ddc68" d="M49.65,18.34a1.74,1.74,0,0,1-.59.63C50,18.94,49.65,18.34,49.65,18.34Z"/>
              <path class="f19b3f78-691d-4a4b-ae96-3878378ddc68" d="M52.32,19.17c-.13-1.28-.82-1.38-1.49-1.66s-1.88-.61-2.33-.88a3.93,3.93,0,0,0-1.44-.44c-.54-.09-1.89,0-2.5-.1A5.17,5.17,0,0,0,42.78,16,2.53,2.53,0,0,1,41,17.3c-.93.29-2.12.58-3,.83a7.06,7.06,0,0,1,1.21-3.74c1.42-2.39,1.82-3.19,1.2-3.82s-3.51.81-3.51.81A6.12,6.12,0,0,0,37,10.7c.82-.49,4-2.23,5.24-1.52,1.48.83-.33,3.12-.5,3.34A28.56,28.56,0,0,0,39.18,17l.85-.23s1.88-3,2.52-3.81,2.15-3.09.95-4.1-3.14-.62-6.44,1.52c0-1.09-.18-2.74-1.69-3.31-2.58-1-11-.31-20.56,7.34A56.86,56.86,0,0,0,7.51,20.7C4.13,24.21,1,27.86,2,28.4s4-2.61,4.31-2.94c0,0,3,.18,6.78-3A6.54,6.54,0,0,0,18,23s-1.14,2.81,2.22,2.58c0,0-.28,1.37.85,1.14,0,0-6.62,3.87-6.51,4a29.45,29.45,0,0,0,5-2.1,9,9,0,0,1,2.31-1.09,18.89,18.89,0,0,0,7.37-2.36c3.85-2.11,5.08-4.82,5.26-6.78,0,0-1,.89-1.22.86s.16-1,.26-1.69.88-3.17.16-2.87-3,2.56-3.82,1.11c-.61-1.07,1.06-3.06,1.06-3.06s-5.2,2.89-6.16,1.41c-.85-1.32.59-2.35.59-2.35A66.87,66.87,0,0,0,13.71,18c-5.88,4-9.43,8.87-10.58,9.06s9.24-12.2,20.44-16.68c6-2.41,10.11-2.73,11.74-2,1,.44.84,1.66.84,2,0,0-.84,8,.57,10,0,0,1.21-.67,2.22-1.11,0,0-.48,0-.24-.43.13-.24.51-.37,1.07-.54a10,10,0,0,0,2.72-.84c.68-.5.63-.7,1-.82a10.63,10.63,0,0,0,2.13.17,5.25,5.25,0,0,1,1.84,0,21.72,21.72,0,0,0,2.83,1.09c.9.17,1,.24,1.29.76a2.89,2.89,0,0,1,.36,1.25l0,0a4.93,4.93,0,0,0-1.9-.28c.34,0,.68.18.18.31s-2,.59-2,.59a3.49,3.49,0,0,1,1.29-.89s-1.77,0-1.77,0a2.29,2.29,0,0,0,.67-1.27,2.55,2.55,0,0,0,.47-.12c.49-.17-.05-.3-1.1-.33a14.74,14.74,0,0,1-1.89-.19l-.26.46a2,2,0,0,1,1-.14.72.72,0,0,0,.65.72,1,1,0,0,0,.53-.08,1.22,1.22,0,0,1-1.43.78,1.46,1.46,0,0,1-.9-.71,4.62,4.62,0,0,1-1.23,1.61c-.6.32-3.69,1.73-5,3.29s-1.78,2.1-2.76,2.36-1.09.29-1.22.43A12.35,12.35,0,0,1,30.73,30c-1.07.57-1.51.55-1.69.37s.08-.77-.12-.76a4.23,4.23,0,0,0-1.4.48,8.77,8.77,0,0,1-2.61.92c-.77.06-1.51-.17-1.56-1.3,0,0,0,0-.58.17s-3.67,1.63-4.8,1.64c-.61,0,.51-1.4.51-1.4s-3,1.77-3.61,2.07-2.47,1.09-1.74-.8A49.34,49.34,0,0,1,2.53,36C.47,36.67,0,36.39,0,36.9c0,.24.23.32.54.35a10.33,10.33,0,0,0,2-.07,40.9,40.9,0,0,0,5.84-1.35c2.94-.93,3.81-1.95,5.85-1.38,2.58.72,3.88-.35,3.88-.35s.39.7,2,.67a5.62,5.62,0,0,0,4.12.68,5.93,5.93,0,0,0,2.61.52A10.77,10.77,0,0,1,27,38.28c-.1,1.29,0,1.66.72,1a23.81,23.81,0,0,1,.82,2.79c0,.55,0,.9.33.94a2.16,2.16,0,0,0,.5,0,1.35,1.35,0,0,0,.91.7s.06.22-1.06.66c-.56.22-1.07.74-.87,1,0,0,.46,0,1,0a1.25,1.25,0,0,1,1.44-.18.65.65,0,0,1,.38.75.83.83,0,0,1-.13.29c0,.05-.12.17-.21.33s-.29.54-.24.65.48.72-.59.86c0,0,.05.22.39.2s1.16-.55,1.21-.82a4.08,4.08,0,0,0,.65-1.08c.25-.63.28-.73.36-.63A1.66,1.66,0,0,1,32.7,47c-.17.42-.32.5-.19.68a1.44,1.44,0,0,0,.23.18c.09.06.1.22-.16.48-.45.45.78-.09,1-.52,0,0,.39-.45.23-2.16,0,0,0-.18.2,0a1.26,1.26,0,0,1,.57.82c0,.32-.14.61.07.71s.22.44.14.65-.56.27-.44.3a1,1,0,0,0,1.13-1A2.87,2.87,0,0,0,34,44.27c-1.18-.72-1.56-1.08-1.74-5.39a15.91,15.91,0,0,1,.69-4.43h0c.39-1.43.87-2.23.9-2.07s-.34,1.37-.37,1.91a40.28,40.28,0,0,0,4.5-2.68A10.12,10.12,0,0,0,39.52,30a5.76,5.76,0,0,0,1.23-3.15l1.32-2.59s.53.87,1,.34,1.35-2,1.49-2,.22.67.53.48.44-.92,1.25-1.31a20,20,0,0,1,2.22-.81s3.19-.79,3.31-.55a2.7,2.7,0,0,1,.12.79A3.24,3.24,0,0,0,52.32,19.17ZM32.67,43.66a1.52,1.52,0,0,0,.52.58,7.19,7.19,0,0,1,1.25.82c.12.12.24.3.17.35s-.23,0-.58-.34-.55-.14-.58.07.07.76,0,1.14-.25.44-.24,0-.22-1.41-.64-1.37a.79.79,0,0,0-.58.53c-.1.21-.26.41-.21.24a1.92,1.92,0,0,0-.18-.92c-.23-.49-.3-.54-.56-.58s-.28-.26.17-.45A1.62,1.62,0,0,1,32.67,43.66Z"/>
              <path class="f19b3f78-691d-4a4b-ae96-3878378ddc68" d="M14.18,35.13a4.83,4.83,0,0,0-3.37.55C9.57,36.24,3.6,38.24.18,38c0,0,.5.78,2.6,1.1,0,0-.17,1.16,1.88.72s9.44-3.75,11-4.64A2.14,2.14,0,0,1,14.18,35.13Z"/>
              <path class="f19b3f78-691d-4a4b-ae96-3878378ddc68" d="M19.51,35.4a2.65,2.65,0,0,1-1.85-.58l-7.32,3.78S7,40.15,7.62,40.55c0,0,1,.59,3.38-.31s8.92-4.56,8.92-4.56S19.53,35.4,19.51,35.4Z"/>
              <path class="f19b3f78-691d-4a4b-ae96-3878378ddc68" d="M22.62,36.07a3.54,3.54,0,0,1-1.67-.29S17,38.29,16.25,38.7s-1.93.88-.63,1.09,2.69.07,4.9-1.84A25.42,25.42,0,0,0,22.62,36.07Z"/>
              <path class="f19b3f78-691d-4a4b-ae96-3878378ddc68" d="M35.16,34.18c-.78.41-1.75.84-1.75.84a15.19,15.19,0,0,0-.26,3.93c.12,3.29.47,4.21,1.54,4.83a3.27,3.27,0,0,1,1.79,2.64c0,.42,0,.53.09.68s.13.24,0,.53-.62.36-.43.39a.87.87,0,0,0,1-.54,2.07,2.07,0,0,0,.05-2.14s.58-.09.8,1c.14.68-.07.93.47,1.13,0,0,.08.25-.23.59s.1.2.31.1a1.28,1.28,0,0,0,.63-1.26,4.06,4.06,0,0,0-.61-1.62,1,1,0,0,1,.63.49c.22.4.19.61.73.57a.77.77,0,0,1,.26.56c0,.38-.45.65-.3.62s1.19-.42.41-1.71a1.52,1.52,0,0,0-.73-.94,7.27,7.27,0,0,0-2.73-1.43A4.22,4.22,0,0,1,36,42.34,1.91,1.91,0,0,0,36.1,42c0-.15-.9-4.89,1.36-9.13C37.46,32.88,35.94,33.76,35.16,34.18Zm1.43,9.55A5,5,0,0,1,39.07,45c0,.14-.65-.16-.83-.24s-.44-.1-.23.19a3.17,3.17,0,0,1,.46,1.1c0,.14-.14,0-.14,0a2.53,2.53,0,0,0-1.15-1.35c-.33-.13-.43,0-.44.18s.09.67-.16,0a3.35,3.35,0,0,0-1-1.28c-.18-.12-.1-.25-.1-.25a.45.45,0,0,1,.38-.09A1.67,1.67,0,0,1,36.59,43.73Z"/>
              <path class="f19b3f78-691d-4a4b-ae96-3878378ddc68" d="M20.79,46.91l1.66.68a1.77,1.77,0,0,0,.76,1.58,1.62,1.62,0,0,1-.59.77c-.1.07-.18.09-.16.12s.09,0,.15,0a2.78,2.78,0,0,0,1.67-3.09,2.21,2.21,0,0,0-.75-1.5,17.06,17.06,0,0,0,3.64.17c1-.2,0-.24,0-.24-2,0-4.27-.79-5.41-.42a2.42,2.42,0,0,0-1.63,2.24,2.57,2.57,0,0,0,1,2.45c.07.05.16.13.17.12s-.06-.12-.09-.17A3.3,3.3,0,0,1,20.79,46.91Z"/>
              <path class="f19b3f78-691d-4a4b-ae96-3878378ddc68" d="M48.59,49a15.08,15.08,0,0,1-3.31-.21l-.23.15a8.25,8.25,0,0,0,2.88.49c.31.05-.06.18-.06.18-1.68,1.38-4.47,1-8.57,1A51.51,51.51,0,0,0,29.47,52c-.57.1-1-.4-1.44-.61a7.9,7.9,0,0,0-.94-.41,77.84,77.84,0,0,1,12.73-1.67c3.11-.21,5.75.23,6.08-2.13a2.63,2.63,0,0,0-.34-1.75A3.65,3.65,0,0,0,43.92,44a.75.75,0,0,0-.38,0,17.48,17.48,0,0,1-3.61.73c-.32,0-.15.13-.15.13a9.54,9.54,0,0,0,3.6-.45.59.59,0,0,1,.32,0,2.33,2.33,0,0,1,1.49,1.52c.67,1.85-.77,2.27-2,2.33s-6.42.61-8.39.72-7.16.82-9,1.1c-1.45.22-3.3.35-3.3.35-.5,0,.32.24,2.29.54A6.26,6.26,0,0,1,28,52.5a3.07,3.07,0,0,0,1.71.17c.81-.08,2.55-.57,3.65-.77a55,55,0,0,1,11-.62c2.84.09,3.83-.73,4.79-1.91C49.65,48.81,48.59,49,48.59,49Z"/>
            </g>
            <g>
              <path class="f19b3f78-691d-4a4b-ae96-3878378ddc68" d="M61.67,44.17v-5.8h2.23v5.74c0,1.65.83,2.51,2.19,2.51s2.19-.83,2.19-2.44V38.38h2.23V44.1c0,3.08-1.72,4.59-4.45,4.59S61.67,47.17,61.67,44.17Z"/>
              <path class="f19b3f78-691d-4a4b-ae96-3878378ddc68" d="M74.63,38.38h2.06l4.76,6.25V38.38h2.2V48.53h-1.9l-4.92-6.45v6.45h-2.2Z"/>
              <path class="f19b3f78-691d-4a4b-ae96-3878378ddc68" d="M87.93,38.38h2.23V48.53H87.93Z"/>
              <path class="f19b3f78-691d-4a4b-ae96-3878378ddc68" d="M93.39,38.38h2.47l2.65,7.15,2.66-7.15h2.41L99.47,48.53h-2Z"/>
              <path class="f19b3f78-691d-4a4b-ae96-3878378ddc68" d="M106.83,38.38h7.66v2H109v2.06h4.79v2H109v2.13h5.51v2h-7.73Z"/>
              <path class="f19b3f78-691d-4a4b-ae96-3878378ddc68" d="M118.11,38.38h4.64a4.06,4.06,0,0,1,3,1,3.19,3.19,0,0,1,.87,2.32v0a3.15,3.15,0,0,1-2.17,3.15l2.48,3.63h-2.61l-2.17-3.25h-1.76v3.25h-2.24Zm4.5,4.93c1.09,0,1.71-.58,1.71-1.44v0c0-1-.67-1.45-1.75-1.45h-2.22v2.91Z"/>
              <path class="f19b3f78-691d-4a4b-ae96-3878378ddc68" d="M129.57,47.05l1.32-1.58a4.67,4.67,0,0,0,3,1.23c.91,0,1.46-.36,1.46-1v0c0-.56-.35-.85-2-1.29-2-.53-3.36-1.09-3.36-3.1v0c0-1.84,1.48-3.06,3.55-3.06a5.89,5.89,0,0,1,3.77,1.29l-1.16,1.68a4.77,4.77,0,0,0-2.64-1c-.86,0-1.31.4-1.31.89v0c0,.67.44.88,2.19,1.33,2.06.54,3.22,1.28,3.22,3v0c0,2-1.53,3.15-3.73,3.15A6.47,6.47,0,0,1,129.57,47.05Z"/>
              <path class="f19b3f78-691d-4a4b-ae96-3878378ddc68" d="M141.15,38.38h2.23V48.53h-2.23Z"/>
              <path class="f19b3f78-691d-4a4b-ae96-3878378ddc68" d="M150.09,40.43H147V38.38h8.41v2.06h-3.09v8.1h-2.23Z"/>
              <path class="f19b3f78-691d-4a4b-ae96-3878378ddc68" d="M161.51,44.53l-3.9-6.15h2.61l2.42,4.07,2.47-4.07h2.54l-3.9,6.1v4.05h-2.23Z"/>
            </g>
            <g>
              <polygon class="f19b3f78-691d-4a4b-ae96-3878378ddc68" points="61.67 11.15 65.78 11.15 65.78 26.13 75.81 26.13 74.27 29.84 61.67 29.84 61.67 11.15"/>
              <path class="f19b3f78-691d-4a4b-ae96-3878378ddc68" d="M90.08,22,87.6,16,85.12,22ZM85.76,11.15h3.79l8,18.68h-4.3l-1.71-4.19h-7.9l-1.71,4.19H77.75Z"/>
              <polygon class="f19b3f78-691d-4a4b-ae96-3878378ddc68" points="111.14 14.94 105.28 14.94 105.28 11.15 121.12 11.15 121.12 14.94 115.26 14.94 115.26 29.84 111.14 29.84 111.14 14.94"/>
              <path class="f19b3f78-691d-4a4b-ae96-3878378ddc68" d="M134,20.23a3.4,3.4,0,0,0,2.33-.72,2.44,2.44,0,0,0,.81-1.92v-.05a2.37,2.37,0,0,0-.86-2,3.75,3.75,0,0,0-2.37-.67H129.8v5.36Zm-8.27-9.08h8.54a7.38,7.38,0,0,1,5.45,1.9,5.79,5.79,0,0,1,1.6,4.27v.06a5.86,5.86,0,0,1-1.11,3.7,6.39,6.39,0,0,1-2.9,2.1l4.56,6.67H137l-4-6H129.8v6h-4.11Z"/>
              <path class="f19b3f78-691d-4a4b-ae96-3878378ddc68" d="M154.92,26.37a5.6,5.6,0,0,0,2.27-.45A5.12,5.12,0,0,0,159,24.66a6,6,0,0,0,1.15-1.86,6.09,6.09,0,0,0,.41-2.25v-.06a6.25,6.25,0,0,0-.41-2.27,5.59,5.59,0,0,0-3-3.14,5.88,5.88,0,0,0-4.55,0,5.28,5.28,0,0,0-1.76,1.25,5.94,5.94,0,0,0-1.15,1.86,6.12,6.12,0,0,0-.42,2.26v0a6.23,6.23,0,0,0,.42,2.27,5.51,5.51,0,0,0,1.18,1.86,5.61,5.61,0,0,0,1.79,1.28,5.52,5.52,0,0,0,2.29.46m-.06,3.79a10.19,10.19,0,0,1-4-.76,9.77,9.77,0,0,1-3.13-2.06,9,9,0,0,1-2.05-3,9.57,9.57,0,0,1-.73-3.75v-.06a9.43,9.43,0,0,1,.75-3.75,9.75,9.75,0,0,1,2.07-3.07,9.62,9.62,0,0,1,3.15-2.08,10.29,10.29,0,0,1,4-.76,10.13,10.13,0,0,1,4,.76A9.92,9.92,0,0,1,162,13.65a9.3,9.3,0,0,1,2.06,3,9.62,9.62,0,0,1,.73,3.75v0a9.37,9.37,0,0,1-.75,3.75,9.51,9.51,0,0,1-5.22,5.15,10.26,10.26,0,0,1-4,.76"/>
              <path class="f19b3f78-691d-4a4b-ae96-3878378ddc68" d="M178.17,26.23a4,4,0,0,0,2.14-.49,1.68,1.68,0,0,0,.77-1.53v-.06a1.77,1.77,0,0,0-.72-1.48,3.87,3.87,0,0,0-2.32-.55h-4.75v4.11Zm-1.09-7.52a4.26,4.26,0,0,0,2.16-.47,1.6,1.6,0,0,0,.8-1.5v-.06a1.63,1.63,0,0,0-.7-1.42,3.39,3.39,0,0,0-2-.5h-4.05v3.95Zm-7.79-7.56h8.66a6.6,6.6,0,0,1,4.87,1.66A4.32,4.32,0,0,1,184.1,16V16a4.48,4.48,0,0,1-.2,1.41,4.29,4.29,0,0,1-1.3,2,4.87,4.87,0,0,1-.94.64,6.27,6.27,0,0,1,2.55,1.67,4.27,4.27,0,0,1,.93,2.92v.05a4.8,4.8,0,0,1-.5,2.24,4.35,4.35,0,0,1-1.41,1.6,6.57,6.57,0,0,1-2.21,1,11.65,11.65,0,0,1-2.86.32h-8.87Z"/>
              <polygon class="f19b3f78-691d-4a4b-ae96-3878378ddc68" points="189.62 11.15 203.69 11.15 203.69 14.81 193.68 14.81 193.68 18.6 201 18.6 201 22.26 193.68 22.26 193.68 26.18 203.82 26.18 203.82 29.84 189.62 29.84 189.62 11.15"/>
            </g>
          </g>
        </g>
        <g>
          <g>
            <rect class="f19b3f78-691d-4a4b-ae96-3878378ddc68" x="15.37" y="170.66" width="134.89" height="3.24"/>
            <polygon class="f19b3f78-691d-4a4b-ae96-3878378ddc68" points="76.87 139.88 70.76 148.01 63.88 139.88 49.81 139.88 61.55 153.76 61.55 161.13 73.8 161.13 73.8 154.28 84.64 139.88 76.87 139.88"/>
            <polygon class="f19b3f78-691d-4a4b-ae96-3878378ddc68" points="86.32 139.88 86.32 161.13 114.62 161.13 114.62 156.72 97.46 156.72 97.46 152.7 112.78 152.7 112.78 148.3 97.46 148.3 97.46 144.28 114.62 144.28 114.62 139.88 86.32 139.88"/>
            <polygon class="f19b3f78-691d-4a4b-ae96-3878378ddc68" points="36.88 139.88 31.98 149.49 27.08 139.88 15.37 139.88 15.37 161.12 18.25 161.12 18.25 147.22 25.37 161.12 31.67 161.12 37.81 147.22 37.81 161.12 48.51 161.12 48.51 139.88 36.88 139.88"/>
            <path class="f19b3f78-691d-4a4b-ae96-3878378ddc68" d="M135.21,147.65h-4.67v-3.37h4.67c1.43,0,2.57.52,2.58,1.68s-1.15,1.68-2.58,1.68M150.15,146c0-4.22-3.71-6.08-8.29-6.08H119.41v21.24h11.15V152.9l6.62,8.22h13L142.83,152c4.11-.3,7.36-2.41,7.33-6"/>
          </g>
          <g>
            <path class="f19b3f78-691d-4a4b-ae96-3878378ddc68" d="M297.85,130.15a.65.65,0,0,0,0,.93l.44.42h0l.5.49h0l-6,7a.83.83,0,0,0,0,1.15l.56.55a.89.89,0,0,0,1.19,0l7.23-5.83.5.49h0l.44.42a.7.7,0,0,0,1,0l1.71-1.66-5.84-5.67Z"/>
            <path class="f19b3f78-691d-4a4b-ae96-3878378ddc68" d="M332.13,108.16l-5.79-5.62a2.48,2.48,0,0,0-3.42,0l-22.63,22a2.31,2.31,0,0,0,0,3.32l.64.63,4.5,4.37.65.63a2.48,2.48,0,0,0,3.42,0l22.63-22a2.31,2.31,0,0,0,0-3.32"/>
            <path class="f19b3f78-691d-4a4b-ae96-3878378ddc68" d="M226.21,142.41a.7.7,0,0,0,1,0l.43-.42h0l.5-.49h0l7.23,5.84a.89.89,0,0,0,1.19,0l.56-.55a.83.83,0,0,0,0-1.15l-6-7,.5-.49h0l.44-.42a.65.65,0,0,0,0-.93l-1.71-1.66-5.84,5.67Z"/>
            <path class="f19b3f78-691d-4a4b-ae96-3878378ddc68" d="M203.57,109.13l-5.79,5.62a2.31,2.31,0,0,0,0,3.31l22.63,22a2.48,2.48,0,0,0,3.42,0l.64-.63L229,135l.65-.63a2.31,2.31,0,0,0,0-3.32l-22.63-22a2.48,2.48,0,0,0-3.42,0"/>
            <path class="f19b3f78-691d-4a4b-ae96-3878378ddc68" d="M229.77,168.93a9.84,9.84,0,0,0,3.09-3.48,8,8,0,0,0,.44-6.72,9.11,9.11,0,0,0-7-5.81,17.87,17.87,0,0,0-4.17-.39c.53-.57.73-1,.62-1.32-.18-.49-.77-.52-1.76-.08a12.9,12.9,0,0,0-2.71,1.67A43,43,0,0,0,209.7,155a31.33,31.33,0,0,0-7.55,4q-6.86,5.14-7.66,11.08a7.38,7.38,0,0,0,.37,3.6,5.5,5.5,0,0,0,.78,1.4,5.72,5.72,0,0,0,5,2.41A10.64,10.64,0,0,0,206,176q3.72-2,4-5a3.85,3.85,0,0,0-.23-1.59,3,3,0,0,0-1.81-1.83,3.73,3.73,0,0,0-2.61,0,4.09,4.09,0,0,0-2.93,3.74,3.15,3.15,0,0,0,.24,1.78,3.23,3.23,0,0,1-1.29-1,5.14,5.14,0,0,1-1.14-4.17A10.73,10.73,0,0,1,204,161.3a20.22,20.22,0,0,1,6.54-4.19,21.55,21.55,0,0,1,4.88-1.35,19,19,0,0,0-3.63,9.59,112.53,112.53,0,0,0-.72,14.87q0,9-2.33,12.22a7.79,7.79,0,0,1-3.76,3,2.47,2.47,0,0,1-1.8,0,2.68,2.68,0,0,0-1.67-.31,1,1,0,0,0-.71,1.41,1.46,1.46,0,0,0,.5.66q2.54,2.32,6.37,1a17.63,17.63,0,0,0,8.47-6.29q4,1.84,9.72-.17a18.52,18.52,0,0,0,7.34-4.76,13.11,13.11,0,0,0,3.67-7.12,11.13,11.13,0,0,0-.61-5.39,8.14,8.14,0,0,0-6.47-5.49m-10-6.22c.06-1.18.1-2.35.16-3.53a16.7,16.7,0,0,1,.57-3.42,6.27,6.27,0,0,1,5,4,8.81,8.81,0,0,1,0,5.52q-1.15,4-4.15,5.08a5.88,5.88,0,0,1-1.67.34,62.27,62.27,0,0,1,0-8m8.46,20.16q-1.16,4.66-4.38,6.13a6,6,0,0,1-5.86-.43q2.22-5.29,1.87-14.76a6.49,6.49,0,0,1,4-.6,5.84,5.84,0,0,1,4,3.86,9.92,9.92,0,0,1,.33,5.8"/>
            <path class="f19b3f78-691d-4a4b-ae96-3878378ddc68" d="M294.63,172.35a10.94,10.94,0,0,0-4.22-.85c.1-.49.22-1.22.33-2.18l1.44-12.92q.72-6.11.78-7c0-.74-.16-1.21-.55-1.4l-5.56,1.63a3.29,3.29,0,0,1,.24,1.49l0,.23a3.49,3.49,0,0,0-2.18-1,7.06,7.06,0,0,0-3,.26,11.92,11.92,0,0,0-3.34,1.61,12.23,12.23,0,0,0-3.68,4,4,4,0,0,0-.21-1.11,2.53,2.53,0,0,0-1.45-1.52,3.05,3.05,0,0,0-2.24,0,8.8,8.8,0,0,0-4.89,4.36q0-.64,0-1c0-.79-.19-1.27-.59-1.44l-5.46,1.92q.51.77.31,4.19l-.31,4.35-.24,3.49a8.83,8.83,0,0,1-.52,1.41,2.93,2.93,0,0,1-1.39,1.5,1.43,1.43,0,0,1-1.33,0,2.45,2.45,0,0,1-1.06-1.32,17.7,17.7,0,0,1-.45-4.84q0-1.55.13-5.12.06-1.4-.68-1.64l-5.39,2.1q.81,1,.38,7.19a22.78,22.78,0,0,1-.86,5.28q-1,2.65-2.06,3.07a1.81,1.81,0,0,1-.88.1,2,2,0,0,1-1.56-1.42,7.25,7.25,0,0,1-.47-2q0-4.93,0-8.12.09-1.59-.87-1.69l-5.25,2a.94.94,0,0,1,.2.34q.51,1.23.22,7.49a16.09,16.09,0,0,0,.52,6.12,5.78,5.78,0,0,0,2.65,3.23,4.78,4.78,0,0,0,3.95.11,6.51,6.51,0,0,0,3.23-2.75,13.26,13.26,0,0,0,1.57-4.67,4.74,4.74,0,0,0,2.82,3.08,5,5,0,0,0,3.7-.07,6.61,6.61,0,0,0,2.87-2.36l-.07,1,6.21-2.18q.09-5.39.1-8.11a28.84,28.84,0,0,1,.63-5.29,5.87,5.87,0,0,1,2.55-4,2.75,2.75,0,0,0,1.42,1.68,2.67,2.67,0,0,0,2.15.13,3.91,3.91,0,0,0,1.44-.89,12.21,12.21,0,0,0-.09,7.12,7.21,7.21,0,0,0,3,4.05,5.56,5.56,0,0,0,4.7.7,6.49,6.49,0,0,0,3.91-3.17q-.19,2.08-.25,3.14l-.23,1.4a19.55,19.55,0,0,0-8.13,4.29q-5,4.48-3.56,9a4.37,4.37,0,0,0,3,2.95,6.9,6.9,0,0,0,4.19,0,10.14,10.14,0,0,0,5.31-3.87,25.61,25.61,0,0,0,3.69-8c.15-.58.43-1.71.85-3.37q3.85.38,4.42,2.23a1.66,1.66,0,0,1-1,2.25,3.37,3.37,0,0,1-2.08-.26q-.41.12.12,1.12a2.46,2.46,0,0,0,1.91,1.29,3.48,3.48,0,0,0,1.83,0,3.31,3.31,0,0,0,2.11-1.81,3.59,3.59,0,0,0,.26-2.76,5.06,5.06,0,0,0-3.08-2.92M284,177.66A21.72,21.72,0,0,1,282.2,184c-1,1.82-2.07,2.78-3.34,2.88s-1.8-.59-2-2.06q-.5-3,2-6.61a12.08,12.08,0,0,1,5.71-4.39q-.33,2.53-.53,3.86m1.73-16.12q-1.18,3-2.71,3.45a2.3,2.3,0,0,1-1.1,0q-1.66-.32-2.37-2.6a8.79,8.79,0,0,1-.12-4.51,8.15,8.15,0,0,1,1.94-4,4.27,4.27,0,0,1,1.95-1.26,3.38,3.38,0,0,1,1.41-.12,2.32,2.32,0,0,1,1.75,1.86,6.11,6.11,0,0,1,.23,1.09q-.51,4.08-1,6"/>
            <path class="f19b3f78-691d-4a4b-ae96-3878378ddc68" d="M325.09,140.55a3,3,0,0,0-2.24-.16,8.8,8.8,0,0,0-5.12,3.93h-.06c0-.38,0-.68,0-.89.06-.79-.1-1.28-.49-1.48l-5.59,1.55c.84.31.18,9.45-1.58,12.78a7.63,7.63,0,0,1-5.18,4.23,3.88,3.88,0,0,1-3.72-1,5.9,5.9,0,0,1-1.29-2.68,12.19,12.19,0,0,0,6.69-2.79q2.86-2.63,2-5.85t-4.73-3.21a8.44,8.44,0,0,0-1.71.18,9.42,9.42,0,0,0-4.28,2.12,12.54,12.54,0,0,0-4,6.49,10.92,10.92,0,0,0-.17,5.19,7.85,7.85,0,0,0,1.69,3.5,6.76,6.76,0,0,0,4.12,2.38,9.46,9.46,0,0,0,3.58-.06c15.22-3.12,12.48-19.46,17.28-20.07a2.72,2.72,0,0,0,1.29,1.77,2.65,2.65,0,0,0,2.13.28A3.85,3.85,0,0,0,326,145a3.49,3.49,0,0,0,.41-2.84,2.5,2.5,0,0,0-1.33-1.62m-25,10.46a9.38,9.38,0,0,1,1.35-2.32,4.12,4.12,0,0,1,2.22-1.59q1.51-.31,1.94,1.41a4.33,4.33,0,0,1-1.12,4.19,8.41,8.41,0,0,1-4.91,2.37,9.56,9.56,0,0,1,.53-4.07"/>
            <path class="f19b3f78-691d-4a4b-ae96-3878378ddc68" d="M240.78,159.8a5.58,5.58,0,0,0,3.18-.4,8.86,8.86,0,0,0,4.45-4.25,21,21,0,0,0,1.71-4.6q.1-.3,1-4.77a62.79,62.79,0,0,0,1.05-6.29,70,70,0,0,0,3,7q1.71,3.64,1.54,5.62c-.09,1.16-.13,1.8-.12,1.91q.27,1.1,1.11.82a2.84,2.84,0,0,0,1.11-.83,8.91,8.91,0,0,0,2.39-5.68q.74-2.22,1.94-6.81c.69-2.66,1.31-4.43,1.8-5.86,0,.34,0,.69,0,1.05a28.55,28.55,0,0,0,.23,3.5,10.71,10.71,0,0,0,1.32,4.21,7.61,7.61,0,0,0,2,2.21,7.88,7.88,0,0,0,.7.44l.37.19.19.09.23.09.47.16.08,0h.06l.12,0,.11,0h.07l.15,0h0l.36,0a7,7,0,0,0,4.92-1.25,8.75,8.75,0,0,0,1.73-1.61l-.18,1.54,4.79-1.44q.26-4.08.36-6.14a21.44,21.44,0,0,1,.68-4,4.46,4.46,0,0,1,2.07-2.91,2,2,0,0,0,1,1.32,2,2,0,0,0,1.62.17,2.9,2.9,0,0,0,1.71-1.33,2.65,2.65,0,0,0,.26-2.17,1.93,1.93,0,0,0-1-1.21,2.33,2.33,0,0,0-1.7-.08,6.71,6.71,0,0,0-3.86,3.14c0-.33,0-.58,0-.75,0-.6-.1-1-.39-1.11l-4.21,1.27a3.91,3.91,0,0,1,.19,1.88c0,.23-.07.48-.12.75s-.1.63-.17,1-.16.69-.24,1.06-.21.74-.33,1.12a12.53,12.53,0,0,1-1,2.23,8.48,8.48,0,0,1-1.47,1.86,6.3,6.3,0,0,1-1.74,1.17,2.51,2.51,0,0,1-1.59.16h0l-.07,0-.1,0-.05,0h0l0,0h0l0,0a1.54,1.54,0,0,1-.37-.46,6.88,6.88,0,0,1-.78-2.41c-.13-.91-.19-1.86-.23-2.78,0-1.31,0-2.63-.05-4,0-3.09.12-5.8.12-5.85,0-.54.05-1.08.09-1.62a13,13,0,0,1,.35-2.22,6.06,6.06,0,0,1,1.06-2.37c.51-.47.72-.84.63-1.1s-.52-.34-1.23-.07a9.12,9.12,0,0,0-1.86,1.13,15.3,15.3,0,0,0-3.94,5.19,62.1,62.1,0,0,0-4.55,11.77l-1.38,4.8q-.67-2.08-2.35-5.87-1.8-4-2.45-5.89a9.86,9.86,0,0,1-.59-2.79,2,2,0,0,1,.54-1.34l.17-.23c.22-.26.28-.48.18-.69s-.42-.35-.85-.2a3.86,3.86,0,0,0-1.64,1.14,11.12,11.12,0,0,0-2.55,5.6l-1,6.78q-.6,4.13-1.19,6.74a37.23,37.23,0,0,1-1,4,8,8,0,0,1-2.12,3.49,2.37,2.37,0,0,1-1,.64,1.71,1.71,0,0,1-1.95-.4q-.9-.94-.72-1.62a.5.5,0,0,0,0-.32c-.12-.32-.63-.29-1.55.09a5,5,0,0,0-2.48,2,3.8,3.8,0,0,0-.41,3.57,4.07,4.07,0,0,0,3.36,2.7"/>
          </g>
          <g>
            <polygon class="37ac221a-b379-41f9-a5a6-dba69a801098" points="521.14 138.99 521.88 138.92 522.66 138.99 523.86 139.17 524.57 139.34 525.21 139.63 525.7 139.95 526.09 140.26 526.73 141.01 527.22 141.89 527.61 142.92 527.86 144.05 527.86 170.01 519.12 170.01 519.12 148.47 518.81 147.73 518.17 147.16 517.46 146.77 516.65 146.67 515.94 146.77 515.13 147.27 514.67 147.87 514.24 148.68 514.24 170.01 505.47 170.01 505.47 139.73 514.24 139.73 514.24 142.67 515.38 141.71 516.08 141.08 516.58 140.62 517.21 140.26 517.96 139.88 518.84 139.49 519.87 139.17 521.14 138.99 521.14 138.99"/>
            <polygon class="37ac221a-b379-41f9-a5a6-dba69a801098" points="429.42 139.73 429.42 163.29 435.68 163.29 435.68 170.01 420.55 170.01 420.55 139.73 429.42 139.73 429.42 139.73"/>
            <polygon class="37ac221a-b379-41f9-a5a6-dba69a801098" points="467.66 139.73 471.02 159.05 474.73 139.73 481.6 139.73 475.83 170.01 462.71 170.01 458.29 139.73 467.66 139.73 467.66 139.73"/>
            <polygon class="37ac221a-b379-41f9-a5a6-dba69a801098" points="500.59 139.73 500.59 146.45 493.3 146.45 493.3 151.97 500.59 151.97 500.59 157.77 493.3 157.77 493.3 163.29 500.59 163.29 500.59 170.01 484.5 170.01 484.5 139.73 500.59 139.73 500.59 139.73"/>
            <polygon class="37ac221a-b379-41f9-a5a6-dba69a801098" points="394.26 152.04 394.26 157.84 383.97 157.84 383.97 152.04 394.26 152.04 394.26 152.04"/>
            <polygon class="37ac221a-b379-41f9-a5a6-dba69a801098" points="414.78 139.73 414.78 146.45 407.35 146.45 407.35 151.97 414.78 151.97 414.78 157.77 407.35 157.77 407.35 163.29 414.78 163.29 414.78 170.01 398.61 170.01 398.61 139.73 414.78 139.73 414.78 139.73"/>
            <polygon class="37ac221a-b379-41f9-a5a6-dba69a801098" points="455 139.73 455 146.45 447.6 146.45 447.6 151.97 455 151.97 455 157.77 447.6 157.77 447.6 163.29 455 163.29 455 170.01 438.8 170.01 438.8 139.73 455 139.73 455 139.73"/>
            <polygon class="37ac221a-b379-41f9-a5a6-dba69a801098" points="359.71 146.95 370.04 146.95 372.37 144.37 373.64 143.16 375.24 141.89 376.61 140.94 378.35 139.88 359.71 139.88 359.71 146.95 359.71 146.95"/>
            <path class="37ac221a-b379-41f9-a5a6-dba69a801098" d="M382.34,139.61c-5.75,1.44-11.37,7-13.08,11.1-3.64,8.27-3,19.37-3,19.37s6.29,0,8.94,0c-.1-7.85,0-12.72,1.08-16.53s6.07-6.34,6.07-6.34v-7.55Z"/>
            <path class="37ac221a-b379-41f9-a5a6-dba69a801098" d="M530.37,166.67a2.85,2.85,0,1,1,2.86,2.94,2.84,2.84,0,0,1-2.86-2.94Zm2.86,3.52a3.51,3.51,0,1,0-3.57-3.52,3.51,3.51,0,0,0,3.57,3.52Zm-.74-3.24h.71l1.07,1.76H535l-1.15-1.78a1.05,1.05,0,0,0,1-1.11c0-.8-.47-1.15-1.43-1.15h-1.54v4h.61v-1.76Zm0-.52v-1.25h.84c.43,0,.88.09.88.59s-.46.66-1,.66Z"/>
          </g>
        </g>
        <g>
          <g>
            <polygon class="f19b3f78-691d-4a4b-ae96-3878378ddc68" points="85.8 295.28 90.3 295.28 94.53 282.06 99.47 282.06 101.01 278.07 101.09 277.81 95.89 277.81 98.36 270.1 105.3 270.1 106.94 265.84 95.22 265.84 85.8 295.28"/>
            <polygon class="f19b3f78-691d-4a4b-ae96-3878378ddc68" points="124.03 270.1 124.82 267.63 125.39 265.84 111.52 265.84 110.15 270.1 114.82 270.1 106.76 295.28 111.26 295.28 119.32 270.1 123.86 270.1 124.03 270.1"/>
            <path class="f19b3f78-691d-4a4b-ae96-3878378ddc68" d="M137.47,265.34c-3.08,0-6.4,2.05-8.28,5.09a10.42,10.42,0,0,0-1.06,2.29c-1.24,3.88.3,6.3,2.5,9.59l.34.51c1.44,2.13,2.39,3.59,1.66,5.87a3.92,3.92,0,0,1-3.67,2.84c-1.9,0-2.35-1.42-1.57-4.38h-.05l-4.65,1.45c-1,4.68.88,7.34,5,7.34s7.94-3,9.33-7.34c1.31-4.09.07-6.3-2-9.34-1.76-2.5-3.13-4.29-2.27-7A3.59,3.59,0,0,1,136,269.6c1.63,0,1.94,1.1,1.32,3.58l4.75-1.48c.67-4-1.13-6.36-4.59-6.36"/>
            <polygon class="f19b3f78-691d-4a4b-ae96-3878378ddc68" points="162.38 267.92 163.04 265.84 149.17 265.84 147.81 270.1 152.47 270.1 150.35 276.72 148.78 281.63 144.41 295.28 148.91 295.28 156.97 270.1 161.53 270.1 162.38 267.92"/>
            <path class="f19b3f78-691d-4a4b-ae96-3878378ddc68" d="M216.66,265.34c-3.8,0-8,3.13-9.34,7.38-1.24,3.88.3,6.3,2.5,9.59,1.62,2.42,2.79,3.92,2,6.38a3.92,3.92,0,0,1-3.67,2.84c-1.9,0-2.35-1.42-1.57-4.38l-.23,0-4.47,1.39c-1.06,4.7.86,7.37,5,7.37,4,0,7.94-3,9.33-7.34,1.31-4.09.07-6.3-2-9.34-1.76-2.5-3.13-4.29-2.27-7a3.59,3.59,0,0,1,3.26-2.71c1.63,0,1.94,1.09,1.33,3.55l4.75-1.48c.66-4-1.15-6.33-4.59-6.33"/>
            <path class="f19b3f78-691d-4a4b-ae96-3878378ddc68" d="M38.55,273.68,34,287.86c-.64,2-1.65,3.09-3.34,3.09H28.4L35,270.18h1c2.48,0,3.25,1.08,2.47,3.5m-.17-7.84H32l-9.42,29.44h6.61c5,0,7.89-2.58,9.69-8.21l4.2-13.13c1.75-5.46.32-8.09-4.68-8.09"/>
            <path class="f19b3f78-691d-4a4b-ae96-3878378ddc68" d="M59.84,274.18c-1,3.25-2,4.46-4.19,4.46H53.87l2.74-8.55h1.61c2.19,0,2.62,1,1.62,4.09m.23-8.34H53.47L44,295.28h4.5l4-12.38h2.15l-1.2,12.38h4.67L59.2,281.6c2.59-1.5,4.05-3.75,5.17-7.26,1.94-6,.58-8.51-4.3-8.51"/>
            <path class="f19b3f78-691d-4a4b-ae96-3878378ddc68" d="M79.17,272.43l-2.41,12.3H73.33l5.55-12.3ZM64,295.28h4.42l3-6.38H76l-1.13,6.38h4.63l4.63-29.44H78.22Z"/>
            <path class="f19b3f78-691d-4a4b-ae96-3878378ddc68" d="M172.52,272.43,171.24,279l-.84,4.28-.29,1.48h-3.43l1.09-2.42,2.35-5.2,2.11-4.68Zm-4.61,1L164.23,281l-6.87,14.24h4.42l3-6.38h4.54l-1.13,6.38h4.62l1.66-10.58,0-.28,2.93-18.58h-5.86Z"/>
            <path class="f19b3f78-691d-4a4b-ae96-3878378ddc68" d="M195.4,274.18c-1,3.25-2,4.46-4.19,4.46h-1.78l2.74-8.55h1.61c2.19,0,2.62,1,1.62,4.09m.23-8.34H189l-9.42,29.44h4.5l4-12.38h2.15L189,295.28h4.67l1.08-13.68c2.59-1.5,4.05-3.75,5.17-7.26,1.94-6,.58-8.51-4.3-8.51"/>
            <polygon class="f19b3f78-691d-4a4b-ae96-3878378ddc68" points="242.37 268.47 228.93 263.4 236.94 277.49 236.4 298.92 244.26 277.49 257.8 263.4 242.37 268.47"/>
          </g>
          <g>
            <path class="37ac221a-b379-41f9-a5a6-dba69a801098" d="M529.6,279.69c0,23.51-14.47,32.84-35.72,32.81h-.94c-22.2,0-35.93-10.25-35.93-32.82v-3.15c0-25.57,14.76-33.81,35.93-33.79h.94c21.11,0,35.72,8.72,35.72,33.79v3.15Zm-5.3-3c0-23.6-12.47-30.39-30.5-30.38H493c-19,0-30.69,6.87-30.69,30.38v2.84C462.32,300.32,473,309,493,309h.8c18.66,0,30.5-7.47,30.5-29.5v-2.84Z"/>
            <path class="37ac221a-b379-41f9-a5a6-dba69a801098" d="M512.37,270.94c5.59-.77,6.94-3,6.94-6.36,0-4.38-4.46-6.28-12.3-6.28H495.87v1.37c1.46.22,2,.85,2,2.39v18.7c0,1.64-.5,2.29-2,2.52v1.39H506.8v4.23c0,6.4-2.52,9.51-8.29,9.51-6.34,0-8.88-3.72-8.88-11.77v-.36a13.19,13.19,0,0,0,5.62-7.22l-1.72-.8a11.55,11.55,0,0,1-10,7.13c-6,0-9.26-4.41-9.26-13.23s3-13.57,8.25-13.57c4.22,0,7.51,2.09,9.83,8.38h1.13v-11h-1.08l-1.87,2.58c-.52.57-.61.62-1.8-.32a12.26,12.26,0,0,0-7.93-2.9h0c-8.55,0-15,7-15,16.55,0,9.95,6.69,16.73,15.4,16.64.39,0,.77,0,1.15,0,.1,3.55.52,6.3,2.25,8.62,2.22,3,6.3,4.73,11.78,4.73,5,0,8.79-1.8,10.8-4.85,1.79-2.72,1.85-5.72,1.85-9.31,0-.16,0-5,0-5h0v-8.44h-2.25v8.61c-2.92,0-3.11-.48-3.11-2.25v-8.1h2.77c4.59,0,6.87,1.72,6.87,5.24,0,2.33-.88,3.81-2.76,4.55v2.45c6.36-.29,10-2.41,10-6.58,0-3.84-1.78-6.36-8.16-7.13Zm-5.83-.46h-2.85v-8c0-1.94.46-2.35,2.81-2.35,4.48,0,6,1.15,6,5.05,0,4.1-1.75,5.3-6,5.3Z"/>
            <path class="37ac221a-b379-41f9-a5a6-dba69a801098" d="M480.39,274.59c1.44.22,2,.87,2,2.51v6.55a8.39,8.39,0,0,0,1.23.07,9.7,9.7,0,0,0,6.06-2.64v-4c0-1.64.51-2.29,2-2.51v-1.4h-11.2v1.4Z"/>
          </g>
          <g>
            <g>
              <polygon class="f19b3f78-691d-4a4b-ae96-3878378ddc68" points="350.91 296.52 341.87 296.52 347.52 261.79 356.56 261.79 350.91 296.52"/>
              <path class="f19b3f78-691d-4a4b-ae96-3878378ddc68" d="M334.26,261.79l-8.62,23.89-1-5.14h0l-3-15.62s-.37-3.13-4.29-3.13H303l-.17.59a33.77,33.77,0,0,1,9.46,4l7.86,30.17h9.42L344,261.79Z"/>
              <path class="f19b3f78-691d-4a4b-ae96-3878378ddc68" d="M405.38,296.52h8.3l-7.24-34.73h-7.27a4.15,4.15,0,0,0-4.17,2.59l-13.48,32.14h9.42l1.89-5.16h11.49Zm-9.95-12.28,4.75-13,2.67,13Z"/>
              <path class="f19b3f78-691d-4a4b-ae96-3878378ddc68" d="M382.22,270.14l1.29-7.46a26.1,26.1,0,0,0-8.13-1.51c-4.49,0-15.14,2-15.14,11.5,0,9,12.51,9.08,12.51,13.8s-11.22,3.87-14.92.9l-1.35,7.8a25.33,25.33,0,0,0,10.21,2c6.17,0,15.48-3.2,15.48-11.89,0-9-12.62-9.87-12.62-13.8S378.35,268,382.22,270.14Z"/>
            </g>
            <path class="f19b3f78-691d-4a4b-ae96-3878378ddc68" d="M324.62,280.53l-3-15.62s-.37-3.13-4.29-3.13H303l-.17.59a35,35,0,0,1,13.42,6.74A27.08,27.08,0,0,1,324.62,280.53Z"/>
          </g>
        </g>
        <g>
          <g>
            <path class="f19b3f78-691d-4a4b-ae96-3878378ddc68" d="M458.16,634.34a32.13,32.13,0,1,1,32.13,32.13,32.13,32.13,0,0,1-32.13-32.13m32.13,18.5a18.5,18.5,0,1,0-18.49-18.5,18.5,18.5,0,0,0,18.49,18.5"/>
            <path d="M520.38,622.93a32.2,32.2,0,0,0-6.7-10.67A17.55,17.55,0,0,0,507,610a14.28,14.28,0,0,0-3.21-3c-5.1-3.43-12.38-3.62-20-.54-12.76,5.18-23.42,18.42-25.5,30.84a31.42,31.42,0,0,0,1.5,7.25,21.39,21.39,0,0,1-.15-2.78c0-13,11.18-28.18,25-33.78,7.06-2.87,13.73-2.75,18.32.34a12.39,12.39,0,0,1,1.77,1.45,28.53,28.53,0,0,0-7.57.81,40.92,40.92,0,0,0-14.48,6.89,18.35,18.35,0,0,1,3.05-1.08,38.74,38.74,0,0,1,11.57-5,26.93,26.93,0,0,1,8.27-.73,13.44,13.44,0,0,1,2.26,4,24.3,24.3,0,0,0-13.47,1.61c.47.1.88.21,1.34.35a22.66,22.66,0,0,1,12.44-1.06,18.53,18.53,0,0,1,.75,5.31c0,13-11.19,28.18-25,33.78a27.69,27.69,0,0,1-7.65,2,14,14,0,0,1-4.19-2.62,12.67,12.67,0,0,1-2.65-3.47,29.44,29.44,0,0,1,2.92-11.92c-.1-.44-.2-.86-.27-1.31a31.89,31.89,0,0,0-3.38,11.52,17,17,0,0,1-.64-8.27,28.62,28.62,0,0,1,4.46-11.2,19.28,19.28,0,0,1,1.2-3.16,31.51,31.51,0,0,0-6.52,14.29,17,17,0,0,0,1.4,10.38v.05a20.48,20.48,0,0,0,.64,5.11,13.45,13.45,0,0,1-3.62-1.7c-.29-.2-.62-.37-.89-.59a31.31,31.31,0,0,0,3.11,3.54,16.32,16.32,0,0,0,2,.6,14.92,14.92,0,0,0,.89,1.9,17.11,17.11,0,0,0,2,1.39,14.17,14.17,0,0,1-1.83-3.08,22,22,0,0,0,7.08,0,25.15,25.15,0,0,0,12.33-.11c12.51-3,24.19-13.28,28.49-24.37-1.6,12.2-12,25.39-24.68,30.53a27.67,27.67,0,0,1-8,2,32.36,32.36,0,0,0,3.57.27,30.78,30.78,0,0,0,4.75-1.5c14-5.71,25.44-21.18,25.41-34.49v0c.19-.77.35-1.53.47-2.3a19.76,19.76,0,0,0,.13-5.22m-50.21,33.39a18,18,0,0,1-.73-3.94,13.59,13.59,0,0,0,2,2.31,14.21,14.21,0,0,0,2.94,2.07,17.78,17.78,0,0,1-4.2-.44m19.94.89a25.56,25.56,0,0,1-10,.53,31.5,31.5,0,0,0,4.63-1.48c14.27-5.79,25.85-21.55,25.83-35.12a20.92,20.92,0,0,0-.59-5,13.63,13.63,0,0,1,2.91,1.46c3.86,2.6,6,7.07,6.09,12.61-3,12-15.42,23.78-28.85,27m23.22-40.27a14.56,14.56,0,0,0-3.63-1.74,16,16,0,0,0-2-4.19,15.2,15.2,0,0,1,7.63,3.62c3.23,3,4.69,7.38,4.15,12.48a14.71,14.71,0,0,0-6.19-10.17"/>
            <path class="f19b3f78-691d-4a4b-ae96-3878378ddc68" d="M464.73,687.76c-3.5,0-6.57-2-6.57-7.11s3.13-7.05,6.57-7.05,6.54,1.91,6.54,7.05-3,7.11-6.54,7.11m0-11.55c-1.88,0-2.9,1.45-2.9,4.44s1,4.49,2.9,4.49,2.87-1.45,2.87-4.49-1-4.44-2.87-4.44m42.3-2.53a7.39,7.39,0,0,0-1.34-.08,2.31,2.31,0,0,0-1.86.71,4.12,4.12,0,0,0-.45,2.56v10.72a7.34,7.34,0,0,0,1.33.08,2.31,2.31,0,0,0,1.86-.71,4.14,4.14,0,0,0,.45-2.56Zm-23.84,13.91a7.26,7.26,0,0,0,1.33.08,2.31,2.31,0,0,0,1.86-.71,4.14,4.14,0,0,0,.45-2.56V673.67a7.34,7.34,0,0,0-1.33-.08,2.31,2.31,0,0,0-1.86.71,4.15,4.15,0,0,0-.44,2.56Zm-2.08-13.71a1.48,1.48,0,0,0-1-.28,4.77,4.77,0,0,0-3.38,2.39v-2.31a6.71,6.71,0,0,0-1.3-.08,2.31,2.31,0,0,0-1.86.71,4.13,4.13,0,0,0-.44,2.56v10.72a7.32,7.32,0,0,0,1.33.08,2.32,2.32,0,0,0,1.86-.71,4.15,4.15,0,0,0,.45-2.56v-6.1c1.84-1.73,3.11-2.05,4.57-1.75.2-2.08.06-2.39-.2-2.67m38.39-.09a5.06,5.06,0,0,0-1.46-.2,7.08,7.08,0,0,0-4.89,2.36v-2.27a6.7,6.7,0,0,0-1.3-.08,2.3,2.3,0,0,0-1.86.71,4.15,4.15,0,0,0-.44,2.56v10.72a7.27,7.27,0,0,0,1.33.08,2.32,2.32,0,0,0,1.86-.71,4.17,4.17,0,0,0,.44-2.56v-6.1c1-.88,2.24-1.84,3.4-1.84s1.71.64,1.79,2.29v8.83a7.3,7.3,0,0,0,1.33.08,2.31,2.31,0,0,0,1.86-.71,4.13,4.13,0,0,0,.45-2.56v-6.94a3.75,3.75,0,0,0-2.51-3.67m-22.87,11.12L494,684.8c-1.08-.06-1.42-.26-1.42-.71a1.34,1.34,0,0,1,.65-1,7.86,7.86,0,0,0,1.65.14c3.52,0,5.71-1.65,5.71-4.66a3.6,3.6,0,0,0-.6-2.13,1.48,1.48,0,0,0-.41-.42,2.47,2.47,0,0,0,1.53-.29,1.52,1.52,0,0,0,.47-1.23,4.92,4.92,0,0,0-.05-.87c-2.84.17-3.19,0-6.54,0-3.55,0-5.86,1.62-5.86,4.92a4.21,4.21,0,0,0,2.22,4,3.38,3.38,0,0,0-1.74,2.58c0,.93.57,1.85,2.06,2.23a6.06,6.06,0,0,0-.61.19,3.29,3.29,0,0,0-2.36,3c0,2.27,2.19,3.47,5.83,3.47,5,0,7.19-1.82,7.19-5,0-1.93-1.17-3.87-5.12-4M494.9,676a2.43,2.43,0,1,1-2.36,2.39A2.09,2.09,0,0,1,494.9,676m-.2,15.27c-1.76,0-2.9-.4-2.9-1.57,0-.76.46-1.45,1.63-2.07l2.42.08c1.93.08,2.61.52,2.61,1.48,0,1.45-1.53,2.07-3.75,2.07"/>
          </g>
          <g>
            <path class="f19b3f78-691d-4a4b-ae96-3878378ddc68" d="M48.92,649.16a4.09,4.09,0,0,1,.41,3.41c-1.47,5.49-5.91,11.26-2.72,16.87,1.65,2.87,6.63,2.87,8.67.68,1.54-1.64-1.48.41-2-2.43-1.1-5.86,4.62-12.06,1.71-18.87,7.61-5.16,16.14-9.43,20.88-18a4,4,0,0,0,.3-3.5,3.11,3.11,0,0,0-3.62-1.81,6.19,6.19,0,0,0-3.08,2c-5.79,6.61-11.23,14.19-19.31,19.47Z"/>
            <path class="f19b3f78-691d-4a4b-ae96-3878378ddc68" d="M48.55,648.63c-4,5.65-6.45,13-12.31,17.9a4.67,4.67,0,0,1-4.78.69A3.27,3.27,0,0,1,30,663c3.34-8.5,13.67-11.5,16.27-20.28,0-.21-.28-.47-.72-.32-4.7,1.48-5.69,8-10.54,9.47a3,3,0,0,1-3.31-.91c-1.16-1.66-.31-3.73.8-5,2.84-3.38,6.73-5,10.58-7,.85-.43,1.85-1,2.69-1.41,4-2.09,7-5.29,11.38-5.34a.94.94,0,0,1,.48,1.32c-2.8,4.45-5.23,8.26-7.81,12.75a20.33,20.33,0,0,0-1.26,2.4"/>
            <path class="f19b3f78-691d-4a4b-ae96-3878378ddc68" d="M169.65,636.71c1.92.11,2.87.29,3.76,2.55a3.7,3.7,0,0,1,.05,2.59c-.36,1.94-4.68,6.35-6.68,5.09-.4-.27.42-1.27.85-2a1.24,1.24,0,0,0-.06-1.45c-2-1.76-1.76-3.24-1.26-4.59A4.22,4.22,0,0,1,169.65,636.71Z"/>
            <path class="f19b3f78-691d-4a4b-ae96-3878378ddc68" d="M142.53,675.27a18.64,18.64,0,0,0,4.33-5.26c.25-.42-.39.06-1.38.34-1.21.34-6.1,3.66-5.47,5.59a2.33,2.33,0,0,0,.52.34A4,4,0,0,0,142.53,675.27Zm29.27-13.41c2.48-1.82,3.8-6.18,2.9-9.31-1.75.66-4.83,3.26-6.89,5.25-2.46,2.38-.38.52.88.87s2.8,2,2,2.84C170.4,661.82,171.27,662.25,171.8,661.86ZM158.68,646.6c1.18-.06,1.57,2.05.53,2.48-3.49,1.48-9.8,3.19-10,8.6a1.44,1.44,0,0,0,2.08.88c3.77-1.66,4.74-6.16,8-8.73,1.84-1.43,3.71.64,3,2.52a35.25,35.25,0,0,1-3.55,6.64c-.66,1,.71.41,1,.22,7.14-4.38,12.15-11.1,20-14.07a3.85,3.85,0,0,1,4.29.94,1.92,1.92,0,0,1,.36,2.15c-.57,1.25-2.08,1-3.34,1.23A1.73,1.73,0,0,0,180,650.6c-.86,2.87.18,5.92-.71,8.76a12.85,12.85,0,0,1-4.94,6.89,8.8,8.8,0,0,1-7.85,1.15,4.51,4.51,0,0,1-2.08-1.48c-3.55-4.23,2.17-6.78-1.06-4.92-2.65,1.52-7.57,4.11-9.26,6.22-2.91,3.71-5.2,7.5-8.63,10.42-2.47,2.15-5.05,4-8.57,3.18a2.91,2.91,0,0,1-2.24-2.66c-.26-8.61,11.34-10.63,16.07-14.66-.48-.23-2.77,1.5-4.75,1.4a3.87,3.87,0,0,1-3.28-1.43,6,6,0,0,1,0-6.28C145.81,651.46,151.87,647,158.68,646.6Z"/>
            <path class="f19b3f78-691d-4a4b-ae96-3878378ddc68" d="M66.2,655.13a7.61,7.61,0,0,0,1.71-3.8c0-.75,0-.88-.78-.83-1.17.1-4.77,4.29-4.38,6.76.07.41,1.47-.16,1.61-.25A9.72,9.72,0,0,0,66.2,655.13Zm19.16-9.27a33.63,33.63,0,0,0,4.12-6.33.74.74,0,0,0-.73-.68c-2.41.08-5.85,4.64-7.69,8.07-.65,1.2-1.82,4.26-1.63,5C80,652.32,83.75,648,85.36,645.86Zm15.84-.67c2.55-3.45,5.75-8.35,4.34-8.51-1.61,0-7.54,6.37-9.64,12.78-.14.36-.28,1.22-.14,1.16C96.78,650.25,99.65,647.3,101.2,645.19Zm-32.72,1.17a3.2,3.2,0,0,1,4,3.45c-.43,4.83-2.89,7.72-7.45,11.13-.43.35.08.68.39.68,3.15.05,7.18-3.45,7.5-4.41.54-1.52,1-4.07,1.47-5.35s1.09-2.58,1.61-3.69c3.61-7.37,11.63-18.39,18.2-15.49,1.48.65,1.61,1.87,1.08,3.88-2.46,9.3-10.23,16.86-15.66,20.94-3.55,2.69,4.59,2.33,6.78.57.59-.47,1.87-1.06,2-2,1.64-8.74,11-25.58,22-26.9,1.11-.13,2.15.41,2.33,2.16.43,4.54-2,7.1-4.15,10.75-3.81,6.43-8.72,10.31-13.46,15.21-.87.91-.64,3.23,1.88,3.51,1.08.11,2.1-.48,2.94-.55-.09,4.05-4.08,7.35-7.91,6.43-1.8-.43-3.51-2.09-3.47-3.59.08-2.27-.36-1-.63-.78-3.75,3.24-11.26,6.17-14.49.69-2.48.58-5.62,3.69-9.08,3.37-2.29-.22-4.57-.78-5.8-2.43-.45-.61-2,.73-3.08.17-1.44-.77-1-1.58-.38-2.29s2.73-.85,2.85-2.34C58.52,653.51,62.54,647.82,68.48,646.36Z"/>
            <path class="f19b3f78-691d-4a4b-ae96-3878378ddc68" d="M120.76,675.45c1.35-.95,5.49-5.31,4.39-5.19s-5.45,2.56-6.77,4.48c-.44.63-.18,1.22.46,1.33A3.05,3.05,0,0,0,120.76,675.45Zm16.9-26.61c-1.95.31-7.59,4.41-9.5,7.55a2.6,2.6,0,0,0-.34,2.33,1.48,1.48,0,0,0,2,.73c4.05-1.47,4.77-6.17,7.23-9.2.34-.9,4.29-4,5.57-1.84,1.51,2.63-3.57,9-6.15,13.33-.21.34-.24.84.26.64,1.29-.48,2.62-1.95,3.33-2.48,1.85.92-2.7,7.45-8,8.84-1.5.38-5.59,12.15-17,11.88-2.37-.05-2.81-3.2-1.69-5.27,3-5.48,10.83-8.48,14.63-9.63a6.64,6.64,0,0,0,1.59-1.83c.18-.61-.12-.36-.31-.29-2.61,1.18-5,1.72-7,.29-4-2.87-.08-8.87,3.24-11.33a7.82,7.82,0,0,1-5-.72c-.4-.26-1,1.06-1.12,2.06-.57,5.2-4.34,9.57-8.54,12.1a6.76,6.76,0,0,1-5.85.62,5.39,5.39,0,0,1-3.55-4.57c-.72-7.24,5.12-13.75,12.24-14.91a2.24,2.24,0,0,1,2.64,1.55l-.28.27c-3.33,1.1-5.77,4.47-6.85,6.94-.53,1.2-1.51,4.63,1.11,4.11,4.07-.8,6.11-6.55,5.41-9.35l.06-.9a25.83,25.83,0,0,1,2.49-1.74h.07c1.47-.1,4.38,1.2,6.47,1.38,5.25.47,7.91-3.13,12.13-2.21a2.48,2.48,0,0,1,.93.6c.36.25.45,1.06.29,1Z"/>
            <path class="f19b3f78-691d-4a4b-ae96-3878378ddc68" d="M48.92,649.16a4.09,4.09,0,0,1,.41,3.41c-1.47,5.49-5.91,11.26-2.72,16.87,1.65,2.87,6.63,2.87,8.67.68,1.54-1.64-1.48.41-2-2.43-1.1-5.86,4.62-12.06,1.71-18.87,7.61-5.16,16.14-9.43,20.88-18a4,4,0,0,0,.3-3.5,3.11,3.11,0,0,0-3.62-1.81,6.19,6.19,0,0,0-3.08,2c-5.79,6.61-11.23,14.19-19.31,19.47Z"/>
            <path class="f19b3f78-691d-4a4b-ae96-3878378ddc68" d="M48.55,648.63c-4,5.65-6.45,13-12.31,17.9a4.67,4.67,0,0,1-4.78.69A3.27,3.27,0,0,1,30,663c3.34-8.5,13.67-11.5,16.27-20.28,0-.21-.28-.47-.72-.32-4.7,1.48-5.69,8-10.54,9.47a3,3,0,0,1-3.31-.91c-1.16-1.66-.31-3.73.8-5,2.84-3.38,6.73-5,10.58-7,.85-.43,1.85-1,2.69-1.41,4-2.09,7-5.29,11.38-5.34a.94.94,0,0,1,.48,1.32c-2.8,4.45-5.23,8.26-7.81,12.75a20.33,20.33,0,0,0-1.26,2.4"/>
            <path class="f19b3f78-691d-4a4b-ae96-3878378ddc68" d="M169.65,636.71c1.92.11,2.87.29,3.76,2.55a3.7,3.7,0,0,1,.05,2.59c-.36,1.94-4.68,6.35-6.68,5.09-.4-.27.42-1.27.85-2a1.24,1.24,0,0,0-.06-1.45c-2-1.76-1.76-3.24-1.26-4.59A4.22,4.22,0,0,1,169.65,636.71Z"/>
            <path class="f19b3f78-691d-4a4b-ae96-3878378ddc68" d="M142.53,675.27a18.64,18.64,0,0,0,4.33-5.26c.25-.42-.39.06-1.38.34-1.21.34-6.1,3.66-5.47,5.59a2.33,2.33,0,0,0,.52.34A4,4,0,0,0,142.53,675.27Zm29.27-13.41c2.48-1.82,3.8-6.18,2.9-9.31-1.75.66-4.83,3.26-6.89,5.25-2.46,2.38-.38.52.88.87s2.8,2,2,2.84C170.4,661.82,171.27,662.25,171.8,661.86ZM158.68,646.6c1.18-.06,1.57,2.05.53,2.48-3.49,1.48-9.8,3.19-10,8.6a1.44,1.44,0,0,0,2.08.88c3.77-1.66,4.74-6.16,8-8.73,1.84-1.43,3.71.64,3,2.52a35.25,35.25,0,0,1-3.55,6.64c-.66,1,.71.41,1,.22,7.14-4.38,12.15-11.1,20-14.07a3.85,3.85,0,0,1,4.29.94,1.92,1.92,0,0,1,.36,2.15c-.57,1.25-2.08,1-3.34,1.23A1.73,1.73,0,0,0,180,650.6c-.86,2.87.18,5.92-.71,8.76a12.85,12.85,0,0,1-4.94,6.89,8.8,8.8,0,0,1-7.85,1.15,4.51,4.51,0,0,1-2.08-1.48c-3.55-4.23,2.17-6.78-1.06-4.92-2.65,1.52-7.57,4.11-9.26,6.22-2.91,3.71-5.2,7.5-8.63,10.42-2.47,2.15-5.05,4-8.57,3.18a2.91,2.91,0,0,1-2.24-2.66c-.26-8.61,11.34-10.63,16.07-14.66-.48-.23-2.77,1.5-4.75,1.4a3.87,3.87,0,0,1-3.28-1.43,6,6,0,0,1,0-6.28C145.81,651.46,151.87,647,158.68,646.6Z"/>
            <path class="f19b3f78-691d-4a4b-ae96-3878378ddc68" d="M66.2,655.13a7.61,7.61,0,0,0,1.71-3.8c0-.75,0-.88-.78-.83-1.17.1-4.77,4.29-4.38,6.76.07.41,1.47-.16,1.61-.25A9.72,9.72,0,0,0,66.2,655.13Zm19.16-9.27a33.63,33.63,0,0,0,4.12-6.33.74.74,0,0,0-.73-.68c-2.41.08-5.85,4.64-7.69,8.07-.65,1.2-1.82,4.26-1.63,5C80,652.32,83.75,648,85.36,645.86Zm15.84-.67c2.55-3.45,5.75-8.35,4.34-8.51-1.61,0-7.54,6.37-9.64,12.78-.14.36-.28,1.22-.14,1.16C96.78,650.25,99.65,647.3,101.2,645.19Zm-32.72,1.17a3.2,3.2,0,0,1,4,3.45c-.43,4.83-2.89,7.72-7.45,11.13-.43.35.08.68.39.68,3.15.05,7.18-3.45,7.5-4.41.54-1.52,1-4.07,1.47-5.35s1.09-2.58,1.61-3.69c3.61-7.37,11.63-18.39,18.2-15.49,1.48.65,1.61,1.87,1.08,3.88-2.46,9.3-10.23,16.86-15.66,20.94-3.55,2.69,4.59,2.33,6.78.57.59-.47,1.87-1.06,2-2,1.64-8.74,11-25.58,22-26.9,1.11-.13,2.15.41,2.33,2.16.43,4.54-2,7.1-4.15,10.75-3.81,6.43-8.72,10.31-13.46,15.21-.87.91-.64,3.23,1.88,3.51,1.08.11,2.1-.48,2.94-.55-.09,4.05-4.08,7.35-7.91,6.43-1.8-.43-3.51-2.09-3.47-3.59.08-2.27-.36-1-.63-.78-3.75,3.24-11.26,6.17-14.49.69-2.48.58-5.62,3.69-9.08,3.37-2.29-.22-4.57-.78-5.8-2.43-.45-.61-2,.73-3.08.17-1.44-.77-1-1.58-.38-2.29s2.73-.85,2.85-2.34C58.52,653.51,62.54,647.82,68.48,646.36Z"/>
            <path class="f19b3f78-691d-4a4b-ae96-3878378ddc68" d="M120.76,675.45c1.35-.95,5.49-5.31,4.39-5.19s-5.45,2.56-6.77,4.48c-.44.63-.18,1.22.46,1.33A3.05,3.05,0,0,0,120.76,675.45Zm16.9-26.61c-1.95.31-7.59,4.41-9.5,7.55a2.6,2.6,0,0,0-.34,2.33,1.48,1.48,0,0,0,2,.73c4.05-1.47,4.77-6.17,7.23-9.2.34-.9,4.29-4,5.57-1.84,1.51,2.63-3.57,9-6.15,13.33-.21.34-.24.84.26.64,1.29-.48,2.62-1.95,3.33-2.48,1.85.92-2.7,7.45-8,8.84-1.5.38-5.59,12.15-17,11.88-2.37-.05-2.81-3.2-1.69-5.27,3-5.48,10.83-8.48,14.63-9.63a6.64,6.64,0,0,0,1.59-1.83c.18-.61-.12-.36-.31-.29-2.61,1.18-5,1.72-7,.29-4-2.87-.08-8.87,3.24-11.33a7.82,7.82,0,0,1-5-.72c-.4-.26-1,1.06-1.12,2.06-.57,5.2-4.34,9.57-8.54,12.1a6.76,6.76,0,0,1-5.85.62,5.39,5.39,0,0,1-3.55-4.57c-.72-7.24,5.12-13.75,12.24-14.91a2.24,2.24,0,0,1,2.64,1.55l-.28.27c-3.33,1.1-5.77,4.47-6.85,6.94-.53,1.2-1.51,4.63,1.11,4.11,4.07-.8,6.11-6.55,5.41-9.35l.06-.9a25.83,25.83,0,0,1,2.49-1.74h.07c1.47-.1,4.38,1.2,6.47,1.38,5.25.47,7.91-3.13,12.13-2.21a2.48,2.48,0,0,1,.93.6c.36.25.45,1.06.29,1Z"/>
            <path class="f19b3f78-691d-4a4b-ae96-3878378ddc68" d="M185.27,666.15a3.48,3.48,0,1,0-3.5,3.45A3.35,3.35,0,0,0,185.27,666.15Zm-4.06-.35v-.9l.56,0c.31,0,.7,0,.7.41s-.2.48-.55.48Zm0,.64h.37l.86,1.56h.94l-.94-1.63a.86.86,0,0,0,.89-1c0-.87-.57-1.15-1.52-1.15h-1.4V668h.8Zm3-.29a2.51,2.51,0,0,1-2.48,2.66h0a2.47,2.47,0,0,1-2.47-2.66,2.48,2.48,0,1,1,4.95,0Z"/>
          </g>
          <g>
            <path class="f19b3f78-691d-4a4b-ae96-3878378ddc68" d="M386.24,633.26H257.7c-10.48,0-22.15,9.06-22.15,21.27s10.63,21.27,22.15,21.27H386.24c12.21.88,22.15-9.05,22.15-21.27S398.15,633.26,386.24,633.26Zm0,37.25H257.7c-9.78-.05-16.86-6.67-16.86-16s8.66-16.42,16.86-16H386.24c8.52-.72,16.86,6.67,16.86,16S396.15,670.64,386.24,670.51Z"/>
            <rect class="f19b3f78-691d-4a4b-ae96-3878378ddc68" x="276.9" y="651.52" width="6.1" height="13.43"/>
            <path class="f19b3f78-691d-4a4b-ae96-3878378ddc68" d="M296.69,650.91a7.43,7.43,0,0,0-4.45,2v-1.43h-6.1v13.43h6.1v-8.72a2.86,2.86,0,0,1,2.7-2.36A2.91,2.91,0,0,1,298,657v7.93h5.84v-8.11S303.49,650.91,296.69,650.91Z"/>
            <path class="f19b3f78-691d-4a4b-ae96-3878378ddc68" d="M346,650.91a7.43,7.43,0,0,0-4.45,2v-1.43h-6.1v13.43h6.1v-8.72a2.86,2.86,0,0,1,2.7-2.36,2.91,2.91,0,0,1,3.05,3.14v7.93h5.84v-8.11S352.76,650.91,346,650.91Z"/>
            <rect class="f19b3f78-691d-4a4b-ae96-3878378ddc68" x="276.9" y="645.02" width="6.1" height="4.05"/>
            <polygon class="f19b3f78-691d-4a4b-ae96-3878378ddc68" points="316.4 650.12 313.35 650.12 313.35 646.98 307.24 646.98 307.24 650.12 304.71 650.12 304.71 651.87 307.24 651.87 307.24 664.95 313.35 664.95 313.35 651.87 316.4 651.87 316.4 650.12"/>
            <path class="f19b3f78-691d-4a4b-ae96-3878378ddc68" d="M383.23,650.95c-4.72,0-8.54,3.32-8.54,7.41s3.83,7.41,8.54,7.41,8.55-3.32,8.55-7.41S387.95,650.95,383.23,650.95Zm2.35,10.61a2.37,2.37,0,1,1-4.71,0v-6.39a2.37,2.37,0,1,1,4.71,0Z"/>
            <path class="f19b3f78-691d-4a4b-ae96-3878378ddc68" d="M366.44,651.92a5.79,5.79,0,0,0-2.75-.75c-4.58,0-8.29,3.22-8.29,7.19s3.71,7.19,8.29,7.19a5.24,5.24,0,0,0,2.75-.94v.33h6.1V645.06h-6.1Zm-.1,9.4a2.29,2.29,0,1,1-4.57,0V655.5a2.29,2.29,0,1,1,4.57,0Z"/>
            <path class="f19b3f78-691d-4a4b-ae96-3878378ddc68" d="M334,658.58c0-.07-.51-7.63-8.95-7.63-4.95,0-9,3.32-9,7.41s4,7.41,9,7.41c3.81,0,7.06-2,8.36-4.75h-5.89c0,2.18-1.11,3.18-2.47,3.18a2.57,2.57,0,0,1-2.47-2.65v-3Zm-11.42-3.41a2.47,2.47,0,1,1,4.94,0v1.32h-4.94Z"/>
            <polygon class="f19b3f78-691d-4a4b-ae96-3878378ddc68" points="267.13 658.93 258.41 645.02 252.66 645.02 252.66 664.86 258.15 664.86 258.15 650.99 266.96 664.95 273.24 664.95 273.24 645.02 267.13 645.02 267.13 658.93"/>
            <path class="f19b3f78-691d-4a4b-ae96-3878378ddc68" d="M393.19,644.81a3.33,3.33,0,1,0,3.37,3.33A3.33,3.33,0,0,0,393.19,644.81Zm0,6.11a2.78,2.78,0,1,1,2.7-2.79A2.7,2.7,0,0,1,393.19,650.93Z"/>
            <path class="f19b3f78-691d-4a4b-ae96-3878378ddc68" d="M394.73,647.32c0-.76-.45-1.09-1.36-1.09H391.9v3.85h.58V648.4h.67l1,1.67h.65l-1.1-1.69A1,1,0,0,0,394.73,647.32Zm-2.24.59v-1.19h.79c.4,0,.84.09.84.56s-.44.63-.93.63Z"/>
          </g>
        </g>
        <g>
          <g>
            <path class="f19b3f78-691d-4a4b-ae96-3878378ddc68" d="M259.17,400.23a6.22,6.22,0,0,1,12,0ZM270,408.06a5.61,5.61,0,0,1-4.8,2.47,5.91,5.91,0,0,1-6.17-5h19.75a10.92,10.92,0,0,0,.19-2.09c0-8-5.89-14.39-13.91-14.39a14.06,14.06,0,0,0,.14,28.11,12.8,12.8,0,0,0,7.5-2.37,15.46,15.46,0,0,0,5.37-6.74Zm-21.59-10.68c-.66-6.93-6.65-8.31-10.11-8.31-5.46,0-10.21,3.47-10.21,8.69,0,3.56,2.85,5.79,6.27,6.89,5,1.95,7,2.18,7,4.23,0,1.28-1.42,2-2.75,2a2.8,2.8,0,0,1-3-2.42h-7.83c.71,6.93,6.74,8.74,10.73,8.74,5.84,0,10.73-3.42,10.73-9s-4.75-7-9.21-8.26c-2.09-.62-4-1.42-4-2.85,0-.71.57-1.76,2.23-1.76,2.33,0,2.42,1.42,2.47,2ZM225.53,390h-7.88v26.35h7.88Zm-75.28,26.35h7.88V403.65h.1l7.46,12.68h8.93L165,401.56,174.89,390h-9.35l-7.31,9.54h-.1V381.19h-7.88Zm-27.57,0h7.88V402c0-1.61,0-5.51,4.51-5.51,4.13,0,4.13,3.61,4.13,5.46v14.39h7.88V399.85c0-5.18-1.62-7.27-3-8.5a11.34,11.34,0,0,0-6.74-2.28c-4.7,0-6.36,2.42-7.17,3.7H130V390h-7.36ZM119.47,390h-7.88v26.35h7.88Zm-24.8,26.35h7.88V401.84c0-4,2.56-4.75,6.22-4.84v-7.93c-4.56,0-5.94,2.42-6.6,3.7h-.1V390H94.68ZM70.46,389.07h3.89c4,0,5.79,1.66,6.84,3.23a12.39,12.39,0,0,1,1.71,6.51c0,5-1.9,9.64-8.59,9.64H70.46Zm-8.14,27.25H73.78c13.34,0,18.09-8.07,18.09-17.66a18,18,0,0,0-3.23-10.92c-4.56-6.55-11.59-6.55-15.53-6.55H62.32Z"/>
            <path class="f19b3f78-691d-4a4b-ae96-3878378ddc68" d="M115.54,387.34a3.92,3.92,0,1,0-3.92-3.92,3.92,3.92,0,0,0,3.92,3.92"/>
            <path class="f19b3f78-691d-4a4b-ae96-3878378ddc68" d="M221.56,387.34a3.92,3.92,0,1,0-3.92-3.92,3.92,3.92,0,0,0,3.92,3.92"/>
            <path class="f19b3f78-691d-4a4b-ae96-3878378ddc68" d="M283.28,417.23a3.92,3.92,0,1,0-3.92-3.92,3.92,3.92,0,0,0,3.92,3.92"/>
            <polygon class="f19b3f78-691d-4a4b-ae96-3878378ddc68" points="172.92 382.41 181.65 416.23 189.46 416.23 194.53 394.34 194.63 394.34 199.7 416.23 207.28 416.23 216.24 382.41 207.51 382.41 202.9 404.48 202.81 404.48 197.92 382.41 191.29 382.41 186.31 404.39 186.22 404.39 181.69 382.41 172.92 382.41"/>
          </g>
          <g>
            <path class="f19b3f78-691d-4a4b-ae96-3878378ddc68" d="M406.61,389.57c-.18-1-.56-3-.56-3l-8.71.47v4.51l2.45.31v23.62h8V396.13c2.38-2.52,3.82-3.58,6.36-3.58,2.78,0,4,1.93,4,6.25v16.67h8V397.39c0-7.57-3.61-11.59-10.44-11.59C412.08,385.8,409.53,386.86,406.61,389.57Z"/>
            <path class="f19b3f78-691d-4a4b-ae96-3878378ddc68" d="M476.69,392.62c3.21,0,4.84,2.76,4.84,8.19,0,4-1.18,8.74-6.8,8.74a12.56,12.56,0,0,1-4.62-.92V396.42C472.36,393.81,474.4,392.62,476.69,392.62Zm-17.23-16.8v4.52l2.93.37c0,.89,0,33.49,0,33.49a42.49,42.49,0,0,0,11.86,1.87c9.91,0,15.59-5.86,15.59-16.07,0-8.67-4.48-14.07-11.68-14.07a11.91,11.91,0,0,0-8,3V375.43Z"/>
            <path class="f19b3f78-691d-4a4b-ae96-3878378ddc68" d="M432.65,387.62l-.44.16,1.44,6.08.56-.23a22.71,22.71,0,0,1,8-1.59c4.43,0,5.28,1.62,5.28,4.63v.94h-2.84c-9.59,0-14.45,3.22-14.45,9.57,0,5.66,3.75,9,10.06,9a12.76,12.76,0,0,0,8.43-3c.16.78.45,2.24.45,2.24l8.91-.28v-4.52l-2.7-.26V396c0-6.88-4-10.23-12.17-10.23A32.49,32.49,0,0,0,432.65,387.62Zm5.53,19.19c0-1.57.66-3.66,6.36-3.66h2.95v4.48a8.25,8.25,0,0,1-5.6,2.5C439.49,410.14,438.18,409,438.18,406.82Z"/>
            <path class="f19b3f78-691d-4a4b-ae96-3878378ddc68" d="M366.65,370.44l-10.38,12.78c-.08,0-14.81-7.18-14.81-7.18a.79.79,0,0,0-1.22,1l3.49,16c0,.07-14.82,7.13-14.82,7.13-.44.21-.68.49-.68.78s.24.57.68.78l14.7,7.25c0,.08-3.64,16.06-3.64,16.06-.11.48,0,.84.18,1a1,1,0,0,0,1,0l14.8-7c.08,0,10.31,12.89,10.31,12.89.3.38.62.56.91.5s.5-.36.61-.83l3.73-16c.07-.05,16.53,0,16.53,0,.49,0,.83-.14,1-.4a1,1,0,0,0-.27-1L378.58,401.3c0-.09,10.33-12.89,10.33-12.89.3-.38.41-.73.28-1s-.46-.41-.95-.42l-4.18,0a1.07,1.07,0,0,0-.77.34l-15.46,16.47c-.14.17-.27.22-.36.15s-.08-.17.07-.36c.31-.39,8.88-10.8,13.2-16a.35.35,0,0,0,.06-.38.42.42,0,0,0-.37-.22l-5.42,0a1.69,1.69,0,0,0-1.14.57c-2.51,2.67-15,16-15.3,16.3s-.27.22-.36.15-.07-.17.07-.36l13-15.78c.31-.38.49-.63.43-1,0-.17-3.51-15.88-3.54-16-.11-.47-.32-.77-.61-.84S367,370.06,366.65,370.44Z"/>
          </g>
        </g>
      </g>
    </g>
  </g>
</svg>
